%
M48
M72
T01C0.02362
T02C0.02400
T03C0.02500
T04C0.03200
T05C0.03346
T06C0.03600
T07C0.04000
T08C0.04724
T09C0.12205
%
T01
X260265Y298454
X237233Y303375
X309477Y300619
T02
X290186Y284674
X256721Y235461
X233099Y244320
X216367Y251209
X231131Y227587
X195698Y206918
X174044Y172469
X168139Y159674
X184871Y151800
X185855Y142942
X191761Y127194
X120894Y92745
X116957Y137036
X95304Y147863
X85461Y154753
X93335Y156721
X97272Y168532
X74635Y160658
X68729Y160658
X71682Y172469
X54950Y175422
X78572Y195107
X79556Y211839
X114989Y229556
X94320Y266957
X114989Y295501
X126800Y295501
X142548Y274831
X227194Y282706
X281328Y223650
X277391Y120304
X91367Y134083
X85461Y138020
T03
X230146Y89977
X230146Y84477
X230146Y78977
T04
X69509Y237036
X55509Y237036
X114894Y307706
X126894Y307706
X241603Y292469
X241603Y282469
X241603Y272469
X241603Y262469
X271603Y262469
X271603Y272469
X271603Y282469
X271603Y292469
T05
X29950Y297627
X29950Y282666
T06
X116795Y124635
X142395Y124635
T07
X25501Y134517
X25501Y144517
X25501Y154517
X25501Y164517
X25501Y174517
X25501Y184517
X167942Y319123
X177942Y319123
X290698Y299859
X317627Y300843
X317627Y359843
X290698Y358859
T08
X358296Y366800
X358296Y343178
X358296Y51839
X358296Y28217
T09
X24044Y67351
X267942Y30934
X23060Y325422
X267745Y364792
M30
