G75*
%MOIN*%
%OFA0B0*%
%FSLAX25Y25*%
%IPPOS*%
%LPD*%
%AMOC8*
5,1,8,0,0,1.08239X$1,22.5*
%
%ADD10R,0.03300X0.05800*%
%ADD11C,0.04000*%
%ADD12R,0.02454X0.04087*%
%ADD13R,0.02375X0.02965*%
%ADD14R,0.02965X0.02965*%
%ADD15R,0.01981X0.03753*%
%ADD16R,0.08280X0.07099*%
%ADD17R,0.05131X0.04737*%
%ADD18C,0.01421*%
%ADD19R,0.03162X0.03950*%
%ADD20R,0.03950X0.05524*%
%ADD21R,0.06312X0.02375*%
%ADD22C,0.04146*%
%ADD23R,0.07800X0.46800*%
%ADD24OC8,0.07100*%
%ADD25C,0.07100*%
%ADD26R,0.01981X0.05524*%
%ADD27R,0.05600X0.09600*%
%ADD28R,0.14973X0.09461*%
%ADD29C,0.06800*%
%ADD30R,0.04737X0.05131*%
%ADD31R,0.05524X0.05524*%
%ADD32R,0.06800X0.03800*%
%ADD33C,0.01075*%
%ADD34R,0.16548X0.02375*%
%ADD35R,0.05918X0.07887*%
%ADD36R,0.08800X0.03400*%
%ADD37C,0.07400*%
%ADD38R,0.04737X0.06312*%
%ADD39OC8,0.09300*%
%ADD40R,0.10800X0.10800*%
%ADD41C,0.07887*%
%ADD42R,0.04800X0.05300*%
%ADD43R,0.04343X0.04737*%
%ADD44R,0.04343X0.05131*%
%ADD45R,0.21272X0.09068*%
%ADD46R,0.13398X0.05524*%
%ADD47C,0.08200*%
%ADD48R,0.03162X0.05524*%
%ADD49R,0.05524X0.03950*%
%ADD50R,0.05300X0.05300*%
%ADD51C,0.05300*%
%ADD52C,0.04800*%
%ADD53C,0.04762*%
%ADD54C,0.17005*%
D10*
X0110894Y0295206D03*
X0120894Y0295206D03*
X0130894Y0295206D03*
X0130894Y0320206D03*
X0120894Y0320206D03*
X0110894Y0320206D03*
D11*
X0114894Y0307706D03*
X0126894Y0307706D03*
D12*
X0071269Y0294044D03*
X0066269Y0294044D03*
X0061269Y0294044D03*
X0056269Y0294044D03*
X0056269Y0273729D03*
X0061269Y0273729D03*
X0066269Y0273729D03*
X0071269Y0273729D03*
D13*
X0108769Y0286918D03*
X0112509Y0286918D03*
X0116249Y0286918D03*
D14*
X0116249Y0277863D03*
X0112509Y0277863D03*
X0108769Y0277863D03*
D15*
X0095166Y0271544D03*
X0092607Y0271544D03*
X0090048Y0271544D03*
X0087489Y0271544D03*
X0087489Y0294576D03*
X0090048Y0294576D03*
X0092607Y0294576D03*
X0095166Y0294576D03*
D16*
X0098257Y0257272D03*
X0085265Y0257272D03*
X0119753Y0258060D03*
X0132745Y0258060D03*
D17*
X0130225Y0272902D03*
X0136918Y0272902D03*
X0136524Y0284517D03*
X0129831Y0284517D03*
X0094202Y0241997D03*
X0087509Y0241997D03*
X0066249Y0259517D03*
X0059556Y0259517D03*
X0062902Y0304792D03*
X0056209Y0304792D03*
X0072548Y0304792D03*
X0079241Y0304792D03*
X0064477Y0214635D03*
X0057784Y0214635D03*
X0032509Y0108887D03*
X0025816Y0108887D03*
X0173611Y0155894D03*
X0180304Y0155894D03*
X0180698Y0146052D03*
X0174005Y0146052D03*
X0174123Y0135619D03*
X0180816Y0135619D03*
X0180225Y0167115D03*
X0173532Y0167115D03*
X0215383Y0226997D03*
X0222076Y0226997D03*
X0219517Y0260265D03*
X0212824Y0260265D03*
X0213020Y0272863D03*
X0219713Y0272863D03*
X0219713Y0286839D03*
X0213020Y0286839D03*
X0241957Y0303375D03*
X0248650Y0303375D03*
X0260068Y0302981D03*
X0266761Y0302981D03*
X0265776Y0240776D03*
X0259083Y0240776D03*
D18*
X0076311Y0313488D02*
X0076311Y0316804D01*
X0079627Y0316804D01*
X0079627Y0313488D01*
X0076311Y0313488D01*
X0076311Y0314908D02*
X0079627Y0314908D01*
X0079627Y0316328D02*
X0076311Y0316328D01*
X0069406Y0316804D02*
X0069406Y0313488D01*
X0069406Y0316804D02*
X0072722Y0316804D01*
X0072722Y0313488D01*
X0069406Y0313488D01*
X0069406Y0314908D02*
X0072722Y0314908D01*
X0072722Y0316328D02*
X0069406Y0316328D01*
X0060603Y0316608D02*
X0060603Y0313292D01*
X0060603Y0316608D02*
X0063919Y0316608D01*
X0063919Y0313292D01*
X0060603Y0313292D01*
X0060603Y0314712D02*
X0063919Y0314712D01*
X0063919Y0316132D02*
X0060603Y0316132D01*
X0053697Y0316608D02*
X0053697Y0313292D01*
X0053697Y0316608D02*
X0057013Y0316608D01*
X0057013Y0313292D01*
X0053697Y0313292D01*
X0053697Y0314712D02*
X0057013Y0314712D01*
X0057013Y0316132D02*
X0053697Y0316132D01*
D19*
X0046209Y0301249D03*
X0039517Y0301249D03*
D20*
X0038650Y0312587D03*
X0045737Y0312587D03*
X0047469Y0268099D03*
X0040383Y0268099D03*
X0093493Y0178060D03*
X0100580Y0178060D03*
X0098808Y0143060D03*
X0105894Y0143060D03*
X0102587Y0128769D03*
X0095501Y0128769D03*
X0089595Y0143060D03*
X0082509Y0143060D03*
X0202587Y0074635D03*
X0209674Y0074635D03*
D21*
X0031918Y0285028D03*
X0031918Y0287587D03*
X0031918Y0290146D03*
X0031918Y0292706D03*
X0031918Y0295265D03*
D22*
X0029950Y0297627D03*
X0029950Y0282666D03*
D23*
X0021288Y0290146D03*
D24*
X0069509Y0237036D03*
D25*
X0055509Y0237036D03*
D26*
X0058946Y0177824D03*
X0061505Y0177824D03*
X0064064Y0177824D03*
X0066623Y0177824D03*
X0069182Y0177824D03*
X0071741Y0177824D03*
X0074300Y0177824D03*
X0076859Y0177824D03*
X0079418Y0177824D03*
X0081977Y0177824D03*
X0081977Y0154989D03*
X0079418Y0154989D03*
X0076859Y0154989D03*
X0074300Y0154989D03*
X0071741Y0154989D03*
X0069182Y0154989D03*
X0066623Y0154989D03*
X0064064Y0154989D03*
X0061505Y0154989D03*
X0058946Y0154989D03*
D27*
X0100889Y0215230D03*
X0109989Y0215230D03*
X0119089Y0215230D03*
D28*
X0109989Y0239631D03*
D29*
X0028501Y0184517D02*
X0022501Y0184517D01*
X0022501Y0174517D02*
X0028501Y0174517D01*
X0028501Y0164517D02*
X0022501Y0164517D01*
X0022501Y0154517D02*
X0028501Y0154517D01*
X0028501Y0144517D02*
X0022501Y0144517D01*
X0022501Y0134517D02*
X0028501Y0134517D01*
D30*
X0043414Y0134477D03*
X0043414Y0127784D03*
X0087351Y0219595D03*
X0087351Y0226288D03*
X0133414Y0225501D03*
X0133414Y0218808D03*
X0239989Y0223454D03*
X0239989Y0230146D03*
X0265973Y0230540D03*
X0265973Y0223847D03*
X0296879Y0225225D03*
X0296879Y0231918D03*
X0311052Y0244517D03*
X0311052Y0251209D03*
D31*
X0118808Y0177942D03*
X0110540Y0177942D03*
D32*
X0099320Y0188946D03*
X0099320Y0203946D03*
X0079320Y0203946D03*
X0079320Y0188946D03*
D33*
X0065502Y0195848D02*
X0065502Y0199074D01*
X0068728Y0199074D01*
X0068728Y0195848D01*
X0065502Y0195848D01*
X0065502Y0196922D02*
X0068728Y0196922D01*
X0068728Y0197996D02*
X0065502Y0197996D01*
X0065502Y0199070D02*
X0068728Y0199070D01*
X0065502Y0201848D02*
X0065502Y0205074D01*
X0068728Y0205074D01*
X0068728Y0201848D01*
X0065502Y0201848D01*
X0065502Y0202922D02*
X0068728Y0202922D01*
X0068728Y0203996D02*
X0065502Y0203996D01*
X0065502Y0205070D02*
X0068728Y0205070D01*
X0073179Y0209431D02*
X0073179Y0212657D01*
X0076405Y0212657D01*
X0076405Y0209431D01*
X0073179Y0209431D01*
X0073179Y0210505D02*
X0076405Y0210505D01*
X0076405Y0211579D02*
X0073179Y0211579D01*
X0073179Y0212653D02*
X0076405Y0212653D01*
X0073179Y0215431D02*
X0073179Y0218657D01*
X0076405Y0218657D01*
X0076405Y0215431D01*
X0073179Y0215431D01*
X0073179Y0216505D02*
X0076405Y0216505D01*
X0076405Y0217579D02*
X0073179Y0217579D01*
X0073179Y0218653D02*
X0076405Y0218653D01*
X0056447Y0204956D02*
X0056447Y0201730D01*
X0056447Y0204956D02*
X0059673Y0204956D01*
X0059673Y0201730D01*
X0056447Y0201730D01*
X0056447Y0202804D02*
X0059673Y0202804D01*
X0059673Y0203878D02*
X0056447Y0203878D01*
X0056447Y0204952D02*
X0059673Y0204952D01*
X0056447Y0198956D02*
X0056447Y0195730D01*
X0056447Y0198956D02*
X0059673Y0198956D01*
X0059673Y0195730D01*
X0056447Y0195730D01*
X0056447Y0196804D02*
X0059673Y0196804D01*
X0059673Y0197878D02*
X0056447Y0197878D01*
X0056447Y0198952D02*
X0059673Y0198952D01*
X0042667Y0116256D02*
X0042667Y0113030D01*
X0042667Y0116256D02*
X0045893Y0116256D01*
X0045893Y0113030D01*
X0042667Y0113030D01*
X0042667Y0114104D02*
X0045893Y0114104D01*
X0045893Y0115178D02*
X0042667Y0115178D01*
X0042667Y0116252D02*
X0045893Y0116252D01*
X0042667Y0110256D02*
X0042667Y0107030D01*
X0042667Y0110256D02*
X0045893Y0110256D01*
X0045893Y0107030D01*
X0042667Y0107030D01*
X0042667Y0108104D02*
X0045893Y0108104D01*
X0045893Y0109178D02*
X0042667Y0109178D01*
X0042667Y0110252D02*
X0045893Y0110252D01*
X0171990Y0186998D02*
X0175216Y0186998D01*
X0171990Y0186998D02*
X0171990Y0190224D01*
X0175216Y0190224D01*
X0175216Y0186998D01*
X0175216Y0188072D02*
X0171990Y0188072D01*
X0171990Y0189146D02*
X0175216Y0189146D01*
X0175216Y0190220D02*
X0171990Y0190220D01*
X0177990Y0186998D02*
X0181216Y0186998D01*
X0177990Y0186998D02*
X0177990Y0190224D01*
X0181216Y0190224D01*
X0181216Y0186998D01*
X0181216Y0188072D02*
X0177990Y0188072D01*
X0177990Y0189146D02*
X0181216Y0189146D01*
X0181216Y0190220D02*
X0177990Y0190220D01*
X0177400Y0197077D02*
X0180626Y0197077D01*
X0177400Y0197077D02*
X0177400Y0200303D01*
X0180626Y0200303D01*
X0180626Y0197077D01*
X0180626Y0198151D02*
X0177400Y0198151D01*
X0177400Y0199225D02*
X0180626Y0199225D01*
X0180626Y0200299D02*
X0177400Y0200299D01*
X0174626Y0197077D02*
X0171400Y0197077D01*
X0171400Y0200303D01*
X0174626Y0200303D01*
X0174626Y0197077D01*
X0174626Y0198151D02*
X0171400Y0198151D01*
X0171400Y0199225D02*
X0174626Y0199225D01*
X0174626Y0200299D02*
X0171400Y0200299D01*
X0172187Y0180106D02*
X0175413Y0180106D01*
X0175413Y0176880D01*
X0172187Y0176880D01*
X0172187Y0180106D01*
X0172187Y0177954D02*
X0175413Y0177954D01*
X0175413Y0179028D02*
X0172187Y0179028D01*
X0172187Y0180102D02*
X0175413Y0180102D01*
X0178187Y0180106D02*
X0181413Y0180106D01*
X0181413Y0176880D01*
X0178187Y0176880D01*
X0178187Y0180106D01*
X0178187Y0177954D02*
X0181413Y0177954D01*
X0181413Y0179028D02*
X0178187Y0179028D01*
X0178187Y0180102D02*
X0181413Y0180102D01*
X0182476Y0127193D02*
X0179250Y0127193D01*
X0182476Y0127193D02*
X0182476Y0123967D01*
X0179250Y0123967D01*
X0179250Y0127193D01*
X0179250Y0125041D02*
X0182476Y0125041D01*
X0182476Y0126115D02*
X0179250Y0126115D01*
X0179250Y0127189D02*
X0182476Y0127189D01*
X0176476Y0127193D02*
X0173250Y0127193D01*
X0176476Y0127193D02*
X0176476Y0123967D01*
X0173250Y0123967D01*
X0173250Y0127193D01*
X0173250Y0125041D02*
X0176476Y0125041D01*
X0176476Y0126115D02*
X0173250Y0126115D01*
X0173250Y0127189D02*
X0176476Y0127189D01*
X0176397Y0115030D02*
X0173171Y0115030D01*
X0173171Y0118256D01*
X0176397Y0118256D01*
X0176397Y0115030D01*
X0176397Y0116104D02*
X0173171Y0116104D01*
X0173171Y0117178D02*
X0176397Y0117178D01*
X0176397Y0118252D02*
X0173171Y0118252D01*
X0179171Y0115030D02*
X0182397Y0115030D01*
X0179171Y0115030D02*
X0179171Y0118256D01*
X0182397Y0118256D01*
X0182397Y0115030D01*
X0182397Y0116104D02*
X0179171Y0116104D01*
X0179171Y0117178D02*
X0182397Y0117178D01*
X0182397Y0118252D02*
X0179171Y0118252D01*
X0216329Y0238329D02*
X0216329Y0241555D01*
X0219555Y0241555D01*
X0219555Y0238329D01*
X0216329Y0238329D01*
X0216329Y0239403D02*
X0219555Y0239403D01*
X0219555Y0240477D02*
X0216329Y0240477D01*
X0216329Y0241551D02*
X0219555Y0241551D01*
X0216329Y0244329D02*
X0216329Y0247555D01*
X0219555Y0247555D01*
X0219555Y0244329D01*
X0216329Y0244329D01*
X0216329Y0245403D02*
X0219555Y0245403D01*
X0219555Y0246477D02*
X0216329Y0246477D01*
X0216329Y0247551D02*
X0219555Y0247551D01*
X0232226Y0251248D02*
X0235452Y0251248D01*
X0235452Y0248022D01*
X0232226Y0248022D01*
X0232226Y0251248D01*
X0232226Y0249096D02*
X0235452Y0249096D01*
X0235452Y0250170D02*
X0232226Y0250170D01*
X0232226Y0251244D02*
X0235452Y0251244D01*
X0238226Y0251248D02*
X0241452Y0251248D01*
X0241452Y0248022D01*
X0238226Y0248022D01*
X0238226Y0251248D01*
X0238226Y0249096D02*
X0241452Y0249096D01*
X0241452Y0250170D02*
X0238226Y0250170D01*
X0238226Y0251244D02*
X0241452Y0251244D01*
X0252429Y0247948D02*
X0252429Y0244722D01*
X0249203Y0244722D01*
X0249203Y0247948D01*
X0252429Y0247948D01*
X0252429Y0245796D02*
X0249203Y0245796D01*
X0249203Y0246870D02*
X0252429Y0246870D01*
X0252429Y0247944D02*
X0249203Y0247944D01*
X0252429Y0241948D02*
X0252429Y0238722D01*
X0249203Y0238722D01*
X0249203Y0241948D01*
X0252429Y0241948D01*
X0252429Y0239796D02*
X0249203Y0239796D01*
X0249203Y0240870D02*
X0252429Y0240870D01*
X0252429Y0241944D02*
X0249203Y0241944D01*
D34*
X0202627Y0197902D03*
X0202627Y0195146D03*
X0202627Y0192391D03*
X0202627Y0189635D03*
X0202627Y0186879D03*
X0202627Y0184123D03*
X0202627Y0181367D03*
X0202627Y0178611D03*
X0202627Y0175855D03*
X0202627Y0173099D03*
X0202627Y0170343D03*
X0202627Y0167587D03*
X0202627Y0164831D03*
X0202627Y0162076D03*
X0202627Y0159320D03*
X0202627Y0156564D03*
X0202627Y0153808D03*
X0202627Y0151052D03*
X0202627Y0148296D03*
X0202627Y0145540D03*
X0202627Y0142784D03*
X0202627Y0140028D03*
X0202627Y0137272D03*
X0202627Y0134517D03*
X0202627Y0131761D03*
X0202627Y0129005D03*
X0202627Y0126249D03*
X0202627Y0123493D03*
X0202627Y0120737D03*
X0202627Y0117981D03*
D35*
X0067627Y0188847D03*
X0057784Y0188847D03*
D36*
X0258676Y0269733D03*
X0258676Y0274733D03*
X0258676Y0279733D03*
X0258676Y0284733D03*
X0282876Y0284733D03*
X0282876Y0279733D03*
X0282876Y0274733D03*
X0282876Y0269733D03*
D37*
X0271603Y0272469D03*
X0271603Y0262469D03*
X0271603Y0282469D03*
X0271603Y0292469D03*
X0241603Y0292469D03*
X0241603Y0282469D03*
X0241603Y0272469D03*
X0241603Y0262469D03*
D38*
X0106052Y0156367D03*
X0098572Y0156367D03*
X0102312Y0165028D03*
D39*
X0116795Y0124635D03*
X0142395Y0124635D03*
X0290698Y0299859D03*
X0317627Y0300843D03*
X0317627Y0359843D03*
X0290698Y0358859D03*
D40*
X0264593Y0314595D03*
X0246093Y0314595D03*
X0278770Y0247863D03*
X0297270Y0247863D03*
X0136326Y0160186D03*
X0117826Y0160186D03*
D41*
X0358296Y0051839D03*
X0358296Y0028217D03*
X0358296Y0343178D03*
X0358296Y0366800D03*
D42*
X0276757Y0326737D03*
X0269757Y0326737D03*
X0273257Y0334737D03*
X0304359Y0283950D03*
X0300859Y0275950D03*
X0307859Y0275950D03*
X0251997Y0231784D03*
X0255497Y0223784D03*
X0248497Y0223784D03*
D43*
X0287233Y0224438D03*
X0287233Y0231131D03*
D44*
X0274241Y0227784D03*
D45*
X0218139Y0305737D03*
X0218139Y0320698D03*
D46*
X0085658Y0128769D03*
X0085658Y0113020D03*
X0058887Y0113020D03*
X0058887Y0128769D03*
D47*
X0167942Y0319123D03*
X0177942Y0319123D03*
D48*
X0202194Y0092965D03*
X0205934Y0092965D03*
X0209674Y0092965D03*
X0209674Y0082682D03*
X0202194Y0082682D03*
D49*
X0194123Y0084871D03*
X0194123Y0091957D03*
D50*
X0230146Y0089977D03*
D51*
X0230146Y0084477D03*
X0230146Y0078977D03*
D52*
X0277391Y0120304D03*
X0191761Y0127194D03*
X0185855Y0142942D03*
X0184871Y0151800D03*
X0168139Y0159674D03*
X0174044Y0172469D03*
X0195698Y0206918D03*
X0231131Y0227587D03*
X0233099Y0244320D03*
X0216367Y0251209D03*
X0227194Y0282706D03*
X0256721Y0235461D03*
X0281328Y0223650D03*
X0290186Y0284674D03*
X0142548Y0274831D03*
X0126800Y0295501D03*
X0114989Y0295501D03*
X0094320Y0266957D03*
X0114989Y0229556D03*
X0079556Y0211839D03*
X0078572Y0195107D03*
X0071682Y0172469D03*
X0074635Y0160658D03*
X0068729Y0160658D03*
X0054950Y0175422D03*
X0085461Y0154753D03*
X0093335Y0156721D03*
X0095304Y0147863D03*
X0085461Y0138020D03*
X0091367Y0134083D03*
X0116957Y0137036D03*
X0097272Y0168532D03*
X0120894Y0092745D03*
D53*
X0260265Y0298454D03*
X0237233Y0303375D03*
X0309477Y0300619D03*
D54*
X0024044Y0067351D03*
X0267942Y0030934D03*
X0023060Y0325422D03*
X0267745Y0364792D03*
M02*
