G75*
%MOIN*%
%OFA0B0*%
%FSLAX25Y25*%
%IPPOS*%
%LPD*%
%AMOC8*
5,1,8,0,0,1.08239X$1,22.5*
%
%ADD10C,0.01600*%
%ADD11C,0.00600*%
%ADD12C,0.00500*%
%ADD13C,0.00400*%
%ADD14C,0.00000*%
%ADD15C,0.00787*%
%ADD16C,0.00800*%
%ADD17C,0.02559*%
%ADD18C,0.00100*%
%ADD19R,0.01800X0.03000*%
%ADD20C,0.02200*%
%ADD21C,0.00394*%
%ADD22C,0.01200*%
%ADD23C,0.00300*%
%ADD24R,0.01181X0.00591*%
%ADD25R,0.01181X0.01181*%
%ADD26C,0.00200*%
%ADD27C,0.02505*%
%ADD28C,0.03220*%
%ADD29C,0.00179*%
D10*
X0016564Y0055225D02*
X0253690Y0055225D01*
X0253814Y0055223D01*
X0253937Y0055217D01*
X0254061Y0055208D01*
X0254183Y0055194D01*
X0254306Y0055177D01*
X0254428Y0055155D01*
X0254549Y0055130D01*
X0254669Y0055101D01*
X0254788Y0055069D01*
X0254907Y0055032D01*
X0255024Y0054992D01*
X0255139Y0054949D01*
X0255254Y0054901D01*
X0255366Y0054850D01*
X0255477Y0054796D01*
X0255587Y0054738D01*
X0255694Y0054677D01*
X0255800Y0054612D01*
X0255903Y0054544D01*
X0256004Y0054473D01*
X0256103Y0054399D01*
X0256200Y0054322D01*
X0256294Y0054241D01*
X0256385Y0054158D01*
X0256474Y0054072D01*
X0256560Y0053983D01*
X0256643Y0053892D01*
X0256724Y0053798D01*
X0256801Y0053701D01*
X0256875Y0053602D01*
X0256946Y0053501D01*
X0257014Y0053398D01*
X0257079Y0053292D01*
X0257140Y0053185D01*
X0257198Y0053075D01*
X0257252Y0052964D01*
X0257303Y0052852D01*
X0257351Y0052737D01*
X0257394Y0052622D01*
X0257434Y0052505D01*
X0257471Y0052386D01*
X0257503Y0052267D01*
X0257532Y0052147D01*
X0257557Y0052026D01*
X0257579Y0051904D01*
X0257596Y0051781D01*
X0257610Y0051659D01*
X0257619Y0051535D01*
X0257625Y0051412D01*
X0257627Y0051288D01*
X0257627Y0024162D01*
X0257629Y0024038D01*
X0257635Y0023915D01*
X0257644Y0023791D01*
X0257658Y0023669D01*
X0257675Y0023546D01*
X0257697Y0023424D01*
X0257722Y0023303D01*
X0257751Y0023183D01*
X0257783Y0023064D01*
X0257820Y0022945D01*
X0257860Y0022828D01*
X0257903Y0022713D01*
X0257951Y0022598D01*
X0258002Y0022486D01*
X0258056Y0022375D01*
X0258114Y0022265D01*
X0258175Y0022158D01*
X0258240Y0022052D01*
X0258308Y0021949D01*
X0258379Y0021848D01*
X0258453Y0021749D01*
X0258530Y0021652D01*
X0258611Y0021558D01*
X0258694Y0021467D01*
X0258780Y0021378D01*
X0258869Y0021292D01*
X0258960Y0021209D01*
X0259054Y0021128D01*
X0259151Y0021051D01*
X0259250Y0020977D01*
X0259351Y0020906D01*
X0259454Y0020838D01*
X0259560Y0020773D01*
X0259667Y0020712D01*
X0259777Y0020654D01*
X0259888Y0020600D01*
X0260000Y0020549D01*
X0260115Y0020501D01*
X0260230Y0020458D01*
X0260347Y0020418D01*
X0260466Y0020381D01*
X0260585Y0020349D01*
X0260705Y0020320D01*
X0260826Y0020295D01*
X0260948Y0020273D01*
X0261071Y0020256D01*
X0261193Y0020242D01*
X0261317Y0020233D01*
X0261440Y0020227D01*
X0261564Y0020225D01*
X0363690Y0020225D01*
X0363814Y0020227D01*
X0363937Y0020233D01*
X0364061Y0020242D01*
X0364183Y0020256D01*
X0364306Y0020273D01*
X0364428Y0020295D01*
X0364549Y0020320D01*
X0364669Y0020349D01*
X0364788Y0020381D01*
X0364907Y0020418D01*
X0365024Y0020458D01*
X0365139Y0020501D01*
X0365254Y0020549D01*
X0365366Y0020600D01*
X0365477Y0020654D01*
X0365587Y0020712D01*
X0365694Y0020773D01*
X0365800Y0020838D01*
X0365903Y0020906D01*
X0366004Y0020977D01*
X0366103Y0021051D01*
X0366200Y0021128D01*
X0366294Y0021209D01*
X0366385Y0021292D01*
X0366474Y0021378D01*
X0366560Y0021467D01*
X0366643Y0021558D01*
X0366724Y0021652D01*
X0366801Y0021749D01*
X0366875Y0021848D01*
X0366946Y0021949D01*
X0367014Y0022052D01*
X0367079Y0022158D01*
X0367140Y0022265D01*
X0367198Y0022375D01*
X0367252Y0022486D01*
X0367303Y0022598D01*
X0367351Y0022713D01*
X0367394Y0022828D01*
X0367434Y0022945D01*
X0367471Y0023064D01*
X0367503Y0023183D01*
X0367532Y0023303D01*
X0367557Y0023424D01*
X0367579Y0023546D01*
X0367596Y0023669D01*
X0367610Y0023791D01*
X0367619Y0023915D01*
X0367625Y0024038D01*
X0367627Y0024162D01*
X0367627Y0056288D01*
X0367625Y0056412D01*
X0367619Y0056535D01*
X0367610Y0056659D01*
X0367596Y0056781D01*
X0367579Y0056904D01*
X0367557Y0057026D01*
X0367532Y0057147D01*
X0367503Y0057267D01*
X0367471Y0057386D01*
X0367434Y0057505D01*
X0367394Y0057622D01*
X0367351Y0057737D01*
X0367303Y0057852D01*
X0367252Y0057964D01*
X0367198Y0058075D01*
X0367140Y0058185D01*
X0367079Y0058292D01*
X0367014Y0058398D01*
X0366946Y0058501D01*
X0366875Y0058602D01*
X0366801Y0058701D01*
X0366724Y0058798D01*
X0366643Y0058892D01*
X0366560Y0058983D01*
X0366474Y0059072D01*
X0366385Y0059158D01*
X0366294Y0059241D01*
X0366200Y0059322D01*
X0366103Y0059399D01*
X0366004Y0059473D01*
X0365903Y0059544D01*
X0365800Y0059612D01*
X0365694Y0059677D01*
X0365587Y0059738D01*
X0365477Y0059796D01*
X0365366Y0059850D01*
X0365254Y0059901D01*
X0365139Y0059949D01*
X0365024Y0059992D01*
X0364907Y0060032D01*
X0364788Y0060069D01*
X0364669Y0060101D01*
X0364549Y0060130D01*
X0364428Y0060155D01*
X0364306Y0060177D01*
X0364183Y0060194D01*
X0364061Y0060208D01*
X0363937Y0060217D01*
X0363814Y0060223D01*
X0363690Y0060225D01*
X0336567Y0060225D01*
X0336443Y0060227D01*
X0336320Y0060233D01*
X0336196Y0060242D01*
X0336073Y0060256D01*
X0335951Y0060274D01*
X0335829Y0060295D01*
X0335708Y0060320D01*
X0335587Y0060349D01*
X0335468Y0060381D01*
X0335350Y0060418D01*
X0335233Y0060458D01*
X0335117Y0060502D01*
X0335003Y0060549D01*
X0334890Y0060600D01*
X0334779Y0060655D01*
X0334669Y0060713D01*
X0334562Y0060774D01*
X0334456Y0060839D01*
X0334353Y0060907D01*
X0334252Y0060978D01*
X0334153Y0061052D01*
X0334056Y0061129D01*
X0333962Y0061210D01*
X0333871Y0061293D01*
X0333782Y0061379D01*
X0333696Y0061468D01*
X0333613Y0061560D01*
X0333532Y0061654D01*
X0333455Y0061751D01*
X0333381Y0061850D01*
X0333310Y0061951D01*
X0333242Y0062054D01*
X0333177Y0062160D01*
X0333116Y0062267D01*
X0333058Y0062377D01*
X0333004Y0062488D01*
X0332953Y0062601D01*
X0332906Y0062715D01*
X0332862Y0062831D01*
X0332822Y0062948D01*
X0332786Y0063066D01*
X0332753Y0063186D01*
X0332724Y0063306D01*
X0332699Y0063427D01*
X0332678Y0063549D01*
X0332661Y0063672D01*
X0332647Y0063795D01*
X0332638Y0063918D01*
X0332632Y0064042D01*
X0332630Y0064165D01*
X0332630Y0064166D02*
X0332821Y0331600D01*
X0332823Y0331723D01*
X0332829Y0331847D01*
X0332838Y0331970D01*
X0332852Y0332093D01*
X0332869Y0332216D01*
X0332891Y0332338D01*
X0332916Y0332459D01*
X0332945Y0332579D01*
X0332977Y0332698D01*
X0333014Y0332817D01*
X0333054Y0332934D01*
X0333097Y0333049D01*
X0333145Y0333164D01*
X0333196Y0333277D01*
X0333250Y0333388D01*
X0333308Y0333497D01*
X0333369Y0333605D01*
X0333434Y0333710D01*
X0333502Y0333813D01*
X0333573Y0333915D01*
X0333647Y0334014D01*
X0333724Y0334110D01*
X0333805Y0334204D01*
X0333888Y0334296D01*
X0333974Y0334385D01*
X0334063Y0334471D01*
X0334154Y0334554D01*
X0334248Y0334635D01*
X0334345Y0334712D01*
X0334444Y0334786D01*
X0334545Y0334858D01*
X0334648Y0334926D01*
X0334754Y0334990D01*
X0334861Y0335052D01*
X0334970Y0335110D01*
X0335081Y0335164D01*
X0335194Y0335215D01*
X0335308Y0335262D01*
X0335424Y0335306D01*
X0335541Y0335346D01*
X0335659Y0335383D01*
X0335779Y0335416D01*
X0335899Y0335445D01*
X0336020Y0335470D01*
X0336142Y0335491D01*
X0336264Y0335509D01*
X0336387Y0335522D01*
X0336511Y0335532D01*
X0336634Y0335538D01*
X0336758Y0335540D01*
X0364221Y0335540D01*
X0364345Y0335542D01*
X0364469Y0335548D01*
X0364593Y0335558D01*
X0364716Y0335571D01*
X0364839Y0335589D01*
X0364961Y0335610D01*
X0365082Y0335635D01*
X0365203Y0335664D01*
X0365323Y0335697D01*
X0365441Y0335734D01*
X0365559Y0335774D01*
X0365675Y0335818D01*
X0365789Y0335866D01*
X0365902Y0335917D01*
X0366013Y0335972D01*
X0366123Y0336030D01*
X0366231Y0336092D01*
X0366336Y0336157D01*
X0366440Y0336225D01*
X0366541Y0336296D01*
X0366640Y0336371D01*
X0366737Y0336449D01*
X0366831Y0336530D01*
X0366923Y0336613D01*
X0367012Y0336700D01*
X0367098Y0336789D01*
X0367181Y0336881D01*
X0367261Y0336976D01*
X0367339Y0337073D01*
X0367413Y0337172D01*
X0367484Y0337274D01*
X0367552Y0337378D01*
X0367616Y0337484D01*
X0367677Y0337592D01*
X0367735Y0337702D01*
X0367789Y0337813D01*
X0367840Y0337926D01*
X0367887Y0338041D01*
X0367930Y0338157D01*
X0367970Y0338275D01*
X0368006Y0338394D01*
X0368038Y0338513D01*
X0368067Y0338634D01*
X0368091Y0338756D01*
X0368112Y0338878D01*
X0368129Y0339001D01*
X0368142Y0339124D01*
X0368151Y0339248D01*
X0368157Y0339372D01*
X0368158Y0339496D01*
X0368001Y0371309D01*
X0367998Y0371432D01*
X0367992Y0371555D01*
X0367982Y0371678D01*
X0367968Y0371800D01*
X0367950Y0371922D01*
X0367928Y0372044D01*
X0367902Y0372164D01*
X0367873Y0372284D01*
X0367840Y0372403D01*
X0367803Y0372520D01*
X0367763Y0372637D01*
X0367719Y0372752D01*
X0367671Y0372866D01*
X0367620Y0372978D01*
X0367565Y0373088D01*
X0367507Y0373197D01*
X0367446Y0373304D01*
X0367381Y0373409D01*
X0367313Y0373511D01*
X0367242Y0373612D01*
X0367168Y0373710D01*
X0367090Y0373806D01*
X0367010Y0373900D01*
X0366927Y0373991D01*
X0366841Y0374079D01*
X0366752Y0374165D01*
X0366660Y0374247D01*
X0366567Y0374327D01*
X0366470Y0374404D01*
X0366371Y0374478D01*
X0366270Y0374549D01*
X0366167Y0374616D01*
X0366062Y0374680D01*
X0365955Y0374741D01*
X0365846Y0374799D01*
X0365735Y0374853D01*
X0365623Y0374903D01*
X0365509Y0374950D01*
X0365393Y0374994D01*
X0365277Y0375034D01*
X0365159Y0375070D01*
X0365040Y0375102D01*
X0364920Y0375131D01*
X0364799Y0375156D01*
X0364678Y0375177D01*
X0364556Y0375194D01*
X0364433Y0375208D01*
X0364310Y0375217D01*
X0364187Y0375223D01*
X0364064Y0375225D01*
X0261564Y0375225D01*
X0261440Y0375223D01*
X0261317Y0375217D01*
X0261193Y0375208D01*
X0261071Y0375194D01*
X0260948Y0375177D01*
X0260826Y0375155D01*
X0260705Y0375130D01*
X0260585Y0375101D01*
X0260466Y0375069D01*
X0260347Y0375032D01*
X0260230Y0374992D01*
X0260115Y0374949D01*
X0260000Y0374901D01*
X0259888Y0374850D01*
X0259777Y0374796D01*
X0259667Y0374738D01*
X0259560Y0374677D01*
X0259454Y0374612D01*
X0259351Y0374544D01*
X0259250Y0374473D01*
X0259151Y0374399D01*
X0259054Y0374322D01*
X0258960Y0374241D01*
X0258869Y0374158D01*
X0258780Y0374072D01*
X0258694Y0373983D01*
X0258611Y0373892D01*
X0258530Y0373798D01*
X0258453Y0373701D01*
X0258379Y0373602D01*
X0258308Y0373501D01*
X0258240Y0373398D01*
X0258175Y0373292D01*
X0258114Y0373185D01*
X0258056Y0373075D01*
X0258002Y0372964D01*
X0257951Y0372852D01*
X0257903Y0372737D01*
X0257860Y0372622D01*
X0257820Y0372505D01*
X0257783Y0372386D01*
X0257751Y0372267D01*
X0257722Y0372147D01*
X0257697Y0372026D01*
X0257675Y0371904D01*
X0257658Y0371781D01*
X0257644Y0371659D01*
X0257635Y0371535D01*
X0257629Y0371412D01*
X0257627Y0371288D01*
X0257627Y0339162D01*
X0257625Y0339038D01*
X0257619Y0338915D01*
X0257610Y0338791D01*
X0257596Y0338669D01*
X0257579Y0338546D01*
X0257557Y0338424D01*
X0257532Y0338303D01*
X0257503Y0338183D01*
X0257471Y0338064D01*
X0257434Y0337945D01*
X0257394Y0337828D01*
X0257351Y0337713D01*
X0257303Y0337598D01*
X0257252Y0337486D01*
X0257198Y0337375D01*
X0257140Y0337265D01*
X0257079Y0337158D01*
X0257014Y0337052D01*
X0256946Y0336949D01*
X0256875Y0336848D01*
X0256801Y0336749D01*
X0256724Y0336652D01*
X0256643Y0336558D01*
X0256560Y0336467D01*
X0256474Y0336378D01*
X0256385Y0336292D01*
X0256294Y0336209D01*
X0256200Y0336128D01*
X0256103Y0336051D01*
X0256004Y0335977D01*
X0255903Y0335906D01*
X0255800Y0335838D01*
X0255694Y0335773D01*
X0255587Y0335712D01*
X0255477Y0335654D01*
X0255366Y0335600D01*
X0255254Y0335549D01*
X0255139Y0335501D01*
X0255024Y0335458D01*
X0254907Y0335418D01*
X0254788Y0335381D01*
X0254669Y0335349D01*
X0254549Y0335320D01*
X0254428Y0335295D01*
X0254306Y0335273D01*
X0254183Y0335256D01*
X0254061Y0335242D01*
X0253937Y0335233D01*
X0253814Y0335227D01*
X0253690Y0335225D01*
X0016564Y0335225D01*
X0016440Y0335223D01*
X0016317Y0335217D01*
X0016193Y0335208D01*
X0016071Y0335194D01*
X0015948Y0335177D01*
X0015826Y0335155D01*
X0015705Y0335130D01*
X0015585Y0335101D01*
X0015466Y0335069D01*
X0015347Y0335032D01*
X0015230Y0334992D01*
X0015115Y0334949D01*
X0015000Y0334901D01*
X0014888Y0334850D01*
X0014777Y0334796D01*
X0014667Y0334738D01*
X0014560Y0334677D01*
X0014454Y0334612D01*
X0014351Y0334544D01*
X0014250Y0334473D01*
X0014151Y0334399D01*
X0014054Y0334322D01*
X0013960Y0334241D01*
X0013869Y0334158D01*
X0013780Y0334072D01*
X0013694Y0333983D01*
X0013611Y0333892D01*
X0013530Y0333798D01*
X0013453Y0333701D01*
X0013379Y0333602D01*
X0013308Y0333501D01*
X0013240Y0333398D01*
X0013175Y0333292D01*
X0013114Y0333185D01*
X0013056Y0333075D01*
X0013002Y0332964D01*
X0012951Y0332852D01*
X0012903Y0332737D01*
X0012860Y0332622D01*
X0012820Y0332505D01*
X0012783Y0332386D01*
X0012751Y0332267D01*
X0012722Y0332147D01*
X0012697Y0332026D01*
X0012675Y0331904D01*
X0012658Y0331781D01*
X0012644Y0331659D01*
X0012635Y0331535D01*
X0012629Y0331412D01*
X0012627Y0331288D01*
X0012627Y0059162D01*
X0012629Y0059038D01*
X0012635Y0058915D01*
X0012644Y0058791D01*
X0012658Y0058669D01*
X0012675Y0058546D01*
X0012697Y0058424D01*
X0012722Y0058303D01*
X0012751Y0058183D01*
X0012783Y0058064D01*
X0012820Y0057945D01*
X0012860Y0057828D01*
X0012903Y0057713D01*
X0012951Y0057598D01*
X0013002Y0057486D01*
X0013056Y0057375D01*
X0013114Y0057265D01*
X0013175Y0057158D01*
X0013240Y0057052D01*
X0013308Y0056949D01*
X0013379Y0056848D01*
X0013453Y0056749D01*
X0013530Y0056652D01*
X0013611Y0056558D01*
X0013694Y0056467D01*
X0013780Y0056378D01*
X0013869Y0056292D01*
X0013960Y0056209D01*
X0014054Y0056128D01*
X0014151Y0056051D01*
X0014250Y0055977D01*
X0014351Y0055906D01*
X0014454Y0055838D01*
X0014560Y0055773D01*
X0014667Y0055712D01*
X0014777Y0055654D01*
X0014888Y0055600D01*
X0015000Y0055549D01*
X0015115Y0055501D01*
X0015230Y0055458D01*
X0015347Y0055418D01*
X0015466Y0055381D01*
X0015585Y0055349D01*
X0015705Y0055320D01*
X0015826Y0055295D01*
X0015948Y0055273D01*
X0016071Y0055256D01*
X0016193Y0055242D01*
X0016317Y0055233D01*
X0016440Y0055227D01*
X0016564Y0055225D01*
X0199831Y0212233D02*
X0213752Y0212233D01*
X0219657Y0212233D02*
X0233577Y0212233D01*
X0239483Y0212233D02*
X0253403Y0212233D01*
X0259308Y0212233D02*
X0273229Y0212233D01*
X0279134Y0212233D02*
X0293054Y0212233D01*
X0298960Y0212233D02*
X0312880Y0212233D01*
X0317942Y0212036D02*
X0317942Y0256328D01*
X0332902Y0256328D01*
X0332706Y0212233D02*
X0318785Y0212233D01*
X0332706Y0212233D02*
X0332706Y0211839D01*
X0322627Y0310343D02*
X0317627Y0310343D01*
X0312627Y0310343D01*
X0312627Y0313843D02*
X0317627Y0313843D01*
X0322627Y0313843D01*
X0295698Y0312859D02*
X0290698Y0312859D01*
X0285698Y0312859D01*
X0285698Y0309359D02*
X0290698Y0309359D01*
X0295698Y0309359D01*
X0199831Y0304331D02*
X0199831Y0316845D01*
X0199831Y0322751D02*
X0199831Y0335265D01*
X0200225Y0335265D01*
X0199831Y0298425D02*
X0199831Y0285911D01*
X0199831Y0280006D02*
X0199831Y0267492D01*
X0199831Y0261586D02*
X0199831Y0249072D01*
X0199831Y0243167D02*
X0199831Y0230653D01*
X0199831Y0224747D02*
X0199831Y0212233D01*
D11*
X0245103Y0257469D02*
X0268103Y0257469D01*
X0268103Y0297469D01*
X0260603Y0297469D01*
X0260601Y0297343D01*
X0260595Y0297218D01*
X0260585Y0297093D01*
X0260571Y0296968D01*
X0260554Y0296843D01*
X0260532Y0296719D01*
X0260507Y0296596D01*
X0260477Y0296474D01*
X0260444Y0296353D01*
X0260407Y0296233D01*
X0260367Y0296114D01*
X0260322Y0295997D01*
X0260274Y0295880D01*
X0260222Y0295766D01*
X0260167Y0295653D01*
X0260108Y0295542D01*
X0260046Y0295433D01*
X0259980Y0295326D01*
X0259911Y0295221D01*
X0259839Y0295118D01*
X0259764Y0295017D01*
X0259685Y0294919D01*
X0259603Y0294824D01*
X0259519Y0294731D01*
X0259431Y0294641D01*
X0259341Y0294553D01*
X0259248Y0294469D01*
X0259153Y0294387D01*
X0259055Y0294308D01*
X0258954Y0294233D01*
X0258851Y0294161D01*
X0258746Y0294092D01*
X0258639Y0294026D01*
X0258530Y0293964D01*
X0258419Y0293905D01*
X0258306Y0293850D01*
X0258192Y0293798D01*
X0258075Y0293750D01*
X0257958Y0293705D01*
X0257839Y0293665D01*
X0257719Y0293628D01*
X0257598Y0293595D01*
X0257476Y0293565D01*
X0257353Y0293540D01*
X0257229Y0293518D01*
X0257104Y0293501D01*
X0256979Y0293487D01*
X0256854Y0293477D01*
X0256729Y0293471D01*
X0256603Y0293469D01*
X0256477Y0293471D01*
X0256352Y0293477D01*
X0256227Y0293487D01*
X0256102Y0293501D01*
X0255977Y0293518D01*
X0255853Y0293540D01*
X0255730Y0293565D01*
X0255608Y0293595D01*
X0255487Y0293628D01*
X0255367Y0293665D01*
X0255248Y0293705D01*
X0255131Y0293750D01*
X0255014Y0293798D01*
X0254900Y0293850D01*
X0254787Y0293905D01*
X0254676Y0293964D01*
X0254567Y0294026D01*
X0254460Y0294092D01*
X0254355Y0294161D01*
X0254252Y0294233D01*
X0254151Y0294308D01*
X0254053Y0294387D01*
X0253958Y0294469D01*
X0253865Y0294553D01*
X0253775Y0294641D01*
X0253687Y0294731D01*
X0253603Y0294824D01*
X0253521Y0294919D01*
X0253442Y0295017D01*
X0253367Y0295118D01*
X0253295Y0295221D01*
X0253226Y0295326D01*
X0253160Y0295433D01*
X0253098Y0295542D01*
X0253039Y0295653D01*
X0252984Y0295766D01*
X0252932Y0295880D01*
X0252884Y0295997D01*
X0252839Y0296114D01*
X0252799Y0296233D01*
X0252762Y0296353D01*
X0252729Y0296474D01*
X0252699Y0296596D01*
X0252674Y0296719D01*
X0252652Y0296843D01*
X0252635Y0296968D01*
X0252621Y0297093D01*
X0252611Y0297218D01*
X0252605Y0297343D01*
X0252603Y0297469D01*
X0245103Y0297469D01*
X0245103Y0257469D01*
X0263076Y0268733D02*
X0263076Y0285733D01*
X0263078Y0285809D01*
X0263084Y0285885D01*
X0263093Y0285960D01*
X0263107Y0286035D01*
X0263124Y0286109D01*
X0263145Y0286182D01*
X0263169Y0286254D01*
X0263198Y0286325D01*
X0263229Y0286394D01*
X0263264Y0286461D01*
X0263303Y0286526D01*
X0263345Y0286590D01*
X0263390Y0286651D01*
X0263438Y0286710D01*
X0263489Y0286766D01*
X0263543Y0286820D01*
X0263599Y0286871D01*
X0263658Y0286919D01*
X0263719Y0286964D01*
X0263783Y0287006D01*
X0263848Y0287045D01*
X0263915Y0287080D01*
X0263984Y0287111D01*
X0264055Y0287140D01*
X0264127Y0287164D01*
X0264200Y0287185D01*
X0264274Y0287202D01*
X0264349Y0287216D01*
X0264424Y0287225D01*
X0264500Y0287231D01*
X0264576Y0287233D01*
X0276976Y0287233D01*
X0277052Y0287231D01*
X0277128Y0287225D01*
X0277203Y0287216D01*
X0277278Y0287202D01*
X0277352Y0287185D01*
X0277425Y0287164D01*
X0277497Y0287140D01*
X0277568Y0287111D01*
X0277637Y0287080D01*
X0277704Y0287045D01*
X0277769Y0287006D01*
X0277833Y0286964D01*
X0277894Y0286919D01*
X0277953Y0286871D01*
X0278009Y0286820D01*
X0278063Y0286766D01*
X0278114Y0286710D01*
X0278162Y0286651D01*
X0278207Y0286590D01*
X0278249Y0286526D01*
X0278288Y0286461D01*
X0278323Y0286394D01*
X0278354Y0286325D01*
X0278383Y0286254D01*
X0278407Y0286182D01*
X0278428Y0286109D01*
X0278445Y0286035D01*
X0278459Y0285960D01*
X0278468Y0285885D01*
X0278474Y0285809D01*
X0278476Y0285733D01*
X0278476Y0268733D01*
X0278474Y0268657D01*
X0278468Y0268581D01*
X0278459Y0268506D01*
X0278445Y0268431D01*
X0278428Y0268357D01*
X0278407Y0268284D01*
X0278383Y0268212D01*
X0278354Y0268141D01*
X0278323Y0268072D01*
X0278288Y0268005D01*
X0278249Y0267940D01*
X0278207Y0267876D01*
X0278162Y0267815D01*
X0278114Y0267756D01*
X0278063Y0267700D01*
X0278009Y0267646D01*
X0277953Y0267595D01*
X0277894Y0267547D01*
X0277833Y0267502D01*
X0277769Y0267460D01*
X0277704Y0267421D01*
X0277637Y0267386D01*
X0277568Y0267355D01*
X0277497Y0267326D01*
X0277425Y0267302D01*
X0277352Y0267281D01*
X0277278Y0267264D01*
X0277203Y0267250D01*
X0277128Y0267241D01*
X0277052Y0267235D01*
X0276976Y0267233D01*
X0264576Y0267233D01*
X0264500Y0267235D01*
X0264424Y0267241D01*
X0264349Y0267250D01*
X0264274Y0267264D01*
X0264200Y0267281D01*
X0264127Y0267302D01*
X0264055Y0267326D01*
X0263984Y0267355D01*
X0263915Y0267386D01*
X0263848Y0267421D01*
X0263783Y0267460D01*
X0263719Y0267502D01*
X0263658Y0267547D01*
X0263599Y0267595D01*
X0263543Y0267646D01*
X0263489Y0267700D01*
X0263438Y0267756D01*
X0263390Y0267815D01*
X0263345Y0267876D01*
X0263303Y0267940D01*
X0263264Y0268005D01*
X0263229Y0268072D01*
X0263198Y0268141D01*
X0263169Y0268212D01*
X0263145Y0268284D01*
X0263124Y0268357D01*
X0263107Y0268431D01*
X0263093Y0268506D01*
X0263084Y0268581D01*
X0263078Y0268657D01*
X0263076Y0268733D01*
X0268776Y0287233D02*
X0268778Y0287145D01*
X0268784Y0287056D01*
X0268794Y0286968D01*
X0268807Y0286881D01*
X0268825Y0286794D01*
X0268846Y0286708D01*
X0268871Y0286623D01*
X0268900Y0286540D01*
X0268933Y0286457D01*
X0268969Y0286377D01*
X0269008Y0286298D01*
X0269051Y0286220D01*
X0269098Y0286145D01*
X0269148Y0286072D01*
X0269201Y0286001D01*
X0269257Y0285932D01*
X0269316Y0285866D01*
X0269378Y0285803D01*
X0269442Y0285743D01*
X0269509Y0285685D01*
X0269579Y0285631D01*
X0269651Y0285579D01*
X0269725Y0285531D01*
X0269802Y0285486D01*
X0269880Y0285445D01*
X0269960Y0285407D01*
X0270041Y0285373D01*
X0270124Y0285342D01*
X0270209Y0285315D01*
X0270294Y0285292D01*
X0270380Y0285273D01*
X0270468Y0285257D01*
X0270555Y0285245D01*
X0270643Y0285237D01*
X0270732Y0285233D01*
X0270820Y0285233D01*
X0270909Y0285237D01*
X0270997Y0285245D01*
X0271084Y0285257D01*
X0271172Y0285273D01*
X0271258Y0285292D01*
X0271343Y0285315D01*
X0271428Y0285342D01*
X0271511Y0285373D01*
X0271592Y0285407D01*
X0271672Y0285445D01*
X0271750Y0285486D01*
X0271827Y0285531D01*
X0271901Y0285579D01*
X0271973Y0285631D01*
X0272043Y0285685D01*
X0272110Y0285743D01*
X0272174Y0285803D01*
X0272236Y0285866D01*
X0272295Y0285932D01*
X0272351Y0286001D01*
X0272404Y0286072D01*
X0272454Y0286145D01*
X0272501Y0286220D01*
X0272544Y0286298D01*
X0272583Y0286377D01*
X0272619Y0286457D01*
X0272652Y0286540D01*
X0272681Y0286623D01*
X0272706Y0286708D01*
X0272727Y0286794D01*
X0272745Y0286881D01*
X0272758Y0286968D01*
X0272768Y0287056D01*
X0272774Y0287145D01*
X0272776Y0287233D01*
X0280698Y0295859D02*
X0280698Y0362859D01*
X0280700Y0362946D01*
X0280706Y0363033D01*
X0280715Y0363120D01*
X0280728Y0363206D01*
X0280745Y0363292D01*
X0280766Y0363377D01*
X0280791Y0363460D01*
X0280819Y0363543D01*
X0280850Y0363624D01*
X0280885Y0363704D01*
X0280924Y0363782D01*
X0280966Y0363859D01*
X0281011Y0363934D01*
X0281060Y0364006D01*
X0281111Y0364077D01*
X0281166Y0364145D01*
X0281223Y0364210D01*
X0281284Y0364273D01*
X0281347Y0364334D01*
X0281412Y0364391D01*
X0281480Y0364446D01*
X0281551Y0364497D01*
X0281623Y0364546D01*
X0281698Y0364591D01*
X0281775Y0364633D01*
X0281853Y0364672D01*
X0281933Y0364707D01*
X0282014Y0364738D01*
X0282097Y0364766D01*
X0282180Y0364791D01*
X0282265Y0364812D01*
X0282351Y0364829D01*
X0282437Y0364842D01*
X0282524Y0364851D01*
X0282611Y0364857D01*
X0282698Y0364859D01*
X0298698Y0364859D01*
X0298785Y0364857D01*
X0298872Y0364851D01*
X0298959Y0364842D01*
X0299045Y0364829D01*
X0299131Y0364812D01*
X0299216Y0364791D01*
X0299299Y0364766D01*
X0299382Y0364738D01*
X0299463Y0364707D01*
X0299543Y0364672D01*
X0299621Y0364633D01*
X0299698Y0364591D01*
X0299773Y0364546D01*
X0299845Y0364497D01*
X0299916Y0364446D01*
X0299984Y0364391D01*
X0300049Y0364334D01*
X0300112Y0364273D01*
X0300173Y0364210D01*
X0300230Y0364145D01*
X0300285Y0364077D01*
X0300336Y0364006D01*
X0300385Y0363934D01*
X0300430Y0363859D01*
X0300472Y0363782D01*
X0300511Y0363704D01*
X0300546Y0363624D01*
X0300577Y0363543D01*
X0300605Y0363460D01*
X0300630Y0363377D01*
X0300651Y0363292D01*
X0300668Y0363206D01*
X0300681Y0363120D01*
X0300690Y0363033D01*
X0300696Y0362946D01*
X0300698Y0362859D01*
X0300698Y0295859D01*
X0300696Y0295772D01*
X0300690Y0295685D01*
X0300681Y0295598D01*
X0300668Y0295512D01*
X0300651Y0295426D01*
X0300630Y0295341D01*
X0300605Y0295258D01*
X0300577Y0295175D01*
X0300546Y0295094D01*
X0300511Y0295014D01*
X0300472Y0294936D01*
X0300430Y0294859D01*
X0300385Y0294784D01*
X0300336Y0294712D01*
X0300285Y0294641D01*
X0300230Y0294573D01*
X0300173Y0294508D01*
X0300112Y0294445D01*
X0300049Y0294384D01*
X0299984Y0294327D01*
X0299916Y0294272D01*
X0299845Y0294221D01*
X0299773Y0294172D01*
X0299698Y0294127D01*
X0299621Y0294085D01*
X0299543Y0294046D01*
X0299463Y0294011D01*
X0299382Y0293980D01*
X0299299Y0293952D01*
X0299216Y0293927D01*
X0299131Y0293906D01*
X0299045Y0293889D01*
X0298959Y0293876D01*
X0298872Y0293867D01*
X0298785Y0293861D01*
X0298698Y0293859D01*
X0282698Y0293859D01*
X0282611Y0293861D01*
X0282524Y0293867D01*
X0282437Y0293876D01*
X0282351Y0293889D01*
X0282265Y0293906D01*
X0282180Y0293927D01*
X0282097Y0293952D01*
X0282014Y0293980D01*
X0281933Y0294011D01*
X0281853Y0294046D01*
X0281775Y0294085D01*
X0281698Y0294127D01*
X0281623Y0294172D01*
X0281551Y0294221D01*
X0281480Y0294272D01*
X0281412Y0294327D01*
X0281347Y0294384D01*
X0281284Y0294445D01*
X0281223Y0294508D01*
X0281166Y0294573D01*
X0281111Y0294641D01*
X0281060Y0294712D01*
X0281011Y0294784D01*
X0280966Y0294859D01*
X0280924Y0294936D01*
X0280885Y0295014D01*
X0280850Y0295094D01*
X0280819Y0295175D01*
X0280791Y0295258D01*
X0280766Y0295341D01*
X0280745Y0295426D01*
X0280728Y0295512D01*
X0280715Y0295598D01*
X0280706Y0295685D01*
X0280700Y0295772D01*
X0280698Y0295859D01*
X0278580Y0300159D02*
X0275311Y0300159D01*
X0274493Y0300976D01*
X0274493Y0302611D01*
X0275311Y0303429D01*
X0275311Y0305223D02*
X0276128Y0305223D01*
X0276946Y0306041D01*
X0276946Y0307675D01*
X0277763Y0308493D01*
X0278580Y0308493D01*
X0279398Y0307675D01*
X0279398Y0306041D01*
X0278580Y0305223D01*
X0277763Y0305223D01*
X0276946Y0306041D01*
X0276946Y0307675D02*
X0276128Y0308493D01*
X0275311Y0308493D01*
X0274493Y0307675D01*
X0274493Y0306041D01*
X0275311Y0305223D01*
X0278580Y0303429D02*
X0279398Y0302611D01*
X0279398Y0300976D01*
X0278580Y0300159D01*
X0290698Y0305359D02*
X0290698Y0309359D01*
X0290698Y0312859D02*
X0290698Y0353359D01*
X0307627Y0363843D02*
X0307627Y0296843D01*
X0307629Y0296756D01*
X0307635Y0296669D01*
X0307644Y0296582D01*
X0307657Y0296496D01*
X0307674Y0296410D01*
X0307695Y0296325D01*
X0307720Y0296242D01*
X0307748Y0296159D01*
X0307779Y0296078D01*
X0307814Y0295998D01*
X0307853Y0295920D01*
X0307895Y0295843D01*
X0307940Y0295768D01*
X0307989Y0295696D01*
X0308040Y0295625D01*
X0308095Y0295557D01*
X0308152Y0295492D01*
X0308213Y0295429D01*
X0308276Y0295368D01*
X0308341Y0295311D01*
X0308409Y0295256D01*
X0308480Y0295205D01*
X0308552Y0295156D01*
X0308627Y0295111D01*
X0308704Y0295069D01*
X0308782Y0295030D01*
X0308862Y0294995D01*
X0308943Y0294964D01*
X0309026Y0294936D01*
X0309109Y0294911D01*
X0309194Y0294890D01*
X0309280Y0294873D01*
X0309366Y0294860D01*
X0309453Y0294851D01*
X0309540Y0294845D01*
X0309627Y0294843D01*
X0325627Y0294843D01*
X0325714Y0294845D01*
X0325801Y0294851D01*
X0325888Y0294860D01*
X0325974Y0294873D01*
X0326060Y0294890D01*
X0326145Y0294911D01*
X0326228Y0294936D01*
X0326311Y0294964D01*
X0326392Y0294995D01*
X0326472Y0295030D01*
X0326550Y0295069D01*
X0326627Y0295111D01*
X0326702Y0295156D01*
X0326774Y0295205D01*
X0326845Y0295256D01*
X0326913Y0295311D01*
X0326978Y0295368D01*
X0327041Y0295429D01*
X0327102Y0295492D01*
X0327159Y0295557D01*
X0327214Y0295625D01*
X0327265Y0295696D01*
X0327314Y0295768D01*
X0327359Y0295843D01*
X0327401Y0295920D01*
X0327440Y0295998D01*
X0327475Y0296078D01*
X0327506Y0296159D01*
X0327534Y0296242D01*
X0327559Y0296325D01*
X0327580Y0296410D01*
X0327597Y0296496D01*
X0327610Y0296582D01*
X0327619Y0296669D01*
X0327625Y0296756D01*
X0327627Y0296843D01*
X0327627Y0363843D01*
X0327625Y0363930D01*
X0327619Y0364017D01*
X0327610Y0364104D01*
X0327597Y0364190D01*
X0327580Y0364276D01*
X0327559Y0364361D01*
X0327534Y0364444D01*
X0327506Y0364527D01*
X0327475Y0364608D01*
X0327440Y0364688D01*
X0327401Y0364766D01*
X0327359Y0364843D01*
X0327314Y0364918D01*
X0327265Y0364990D01*
X0327214Y0365061D01*
X0327159Y0365129D01*
X0327102Y0365194D01*
X0327041Y0365257D01*
X0326978Y0365318D01*
X0326913Y0365375D01*
X0326845Y0365430D01*
X0326774Y0365481D01*
X0326702Y0365530D01*
X0326627Y0365575D01*
X0326550Y0365617D01*
X0326472Y0365656D01*
X0326392Y0365691D01*
X0326311Y0365722D01*
X0326228Y0365750D01*
X0326145Y0365775D01*
X0326060Y0365796D01*
X0325974Y0365813D01*
X0325888Y0365826D01*
X0325801Y0365835D01*
X0325714Y0365841D01*
X0325627Y0365843D01*
X0309627Y0365843D01*
X0309540Y0365841D01*
X0309453Y0365835D01*
X0309366Y0365826D01*
X0309280Y0365813D01*
X0309194Y0365796D01*
X0309109Y0365775D01*
X0309026Y0365750D01*
X0308943Y0365722D01*
X0308862Y0365691D01*
X0308782Y0365656D01*
X0308704Y0365617D01*
X0308627Y0365575D01*
X0308552Y0365530D01*
X0308480Y0365481D01*
X0308409Y0365430D01*
X0308341Y0365375D01*
X0308276Y0365318D01*
X0308213Y0365257D01*
X0308152Y0365194D01*
X0308095Y0365129D01*
X0308040Y0365061D01*
X0307989Y0364990D01*
X0307940Y0364918D01*
X0307895Y0364843D01*
X0307853Y0364766D01*
X0307814Y0364688D01*
X0307779Y0364608D01*
X0307748Y0364527D01*
X0307720Y0364444D01*
X0307695Y0364361D01*
X0307674Y0364276D01*
X0307657Y0364190D01*
X0307644Y0364104D01*
X0307635Y0364017D01*
X0307629Y0363930D01*
X0307627Y0363843D01*
X0317627Y0354343D02*
X0317627Y0313843D01*
X0317627Y0310343D02*
X0317627Y0306343D01*
X0306327Y0307025D02*
X0306327Y0308660D01*
X0305509Y0309477D01*
X0302240Y0309477D01*
X0301423Y0308660D01*
X0301423Y0307025D01*
X0302240Y0306208D01*
X0303057Y0306208D01*
X0303875Y0307025D01*
X0303875Y0309477D01*
X0306327Y0307025D02*
X0305509Y0306208D01*
X0305509Y0304413D02*
X0306327Y0303595D01*
X0306327Y0301961D01*
X0305509Y0301143D01*
X0302240Y0301143D01*
X0301423Y0301961D01*
X0301423Y0303595D01*
X0302240Y0304413D01*
X0325069Y0257355D02*
X0324001Y0256287D01*
X0324001Y0254152D01*
X0326137Y0254152D02*
X0326137Y0257355D01*
X0325069Y0257355D02*
X0328272Y0257355D01*
X0328272Y0254152D01*
X0327204Y0253085D01*
X0326137Y0254152D01*
X0326137Y0250909D02*
X0326137Y0246639D01*
X0327204Y0246639D02*
X0325069Y0246639D01*
X0324001Y0247707D01*
X0324001Y0249842D01*
X0325069Y0250909D01*
X0326137Y0250909D01*
X0328272Y0249842D02*
X0328272Y0247707D01*
X0327204Y0246639D01*
X0324001Y0244471D02*
X0324001Y0243403D01*
X0326137Y0241268D01*
X0328272Y0241268D02*
X0324001Y0241268D01*
X0324001Y0239093D02*
X0328272Y0239093D01*
X0325069Y0239093D02*
X0325069Y0234822D01*
X0324001Y0234822D02*
X0321866Y0236957D01*
X0324001Y0239093D01*
X0324001Y0234822D02*
X0328272Y0234822D01*
X0326137Y0226202D02*
X0321866Y0226202D01*
X0326137Y0226202D02*
X0328272Y0224066D01*
X0326137Y0221931D01*
X0321866Y0221931D01*
X0321866Y0219756D02*
X0328272Y0219756D01*
X0325069Y0219756D02*
X0325069Y0215486D01*
X0328272Y0215486D02*
X0321866Y0215486D01*
X0212013Y0090627D02*
X0212013Y0085017D01*
X0207312Y0076997D02*
X0204950Y0076997D01*
X0204950Y0072272D02*
X0207312Y0072272D01*
X0199855Y0085017D02*
X0199855Y0090627D01*
X0196485Y0089595D02*
X0196485Y0087233D01*
X0191761Y0087233D02*
X0191761Y0089595D01*
X0185510Y0085835D02*
X0183375Y0083700D01*
X0183375Y0084767D02*
X0183375Y0080497D01*
X0183375Y0084767D02*
X0182307Y0085835D01*
X0181240Y0085835D01*
X0180172Y0084767D01*
X0180172Y0083700D01*
X0177997Y0083700D02*
X0176929Y0082632D01*
X0173726Y0082632D01*
X0173726Y0080497D02*
X0173726Y0086902D01*
X0176929Y0086902D01*
X0177997Y0085835D01*
X0176929Y0084767D01*
X0177997Y0083700D01*
X0176929Y0084767D02*
X0175862Y0084767D01*
X0171551Y0084767D02*
X0167281Y0084767D01*
X0165112Y0085835D02*
X0164045Y0085835D01*
X0161910Y0083700D01*
X0161910Y0081565D02*
X0161910Y0085835D01*
X0159735Y0084767D02*
X0159735Y0083700D01*
X0155464Y0083700D01*
X0155464Y0084767D02*
X0155464Y0082632D01*
X0156532Y0081565D01*
X0158667Y0081565D01*
X0159735Y0084767D02*
X0158667Y0085835D01*
X0156532Y0085835D01*
X0155464Y0084767D01*
X0153302Y0085835D02*
X0151167Y0085835D01*
X0152235Y0086902D02*
X0152235Y0082632D01*
X0153302Y0081565D01*
X0148992Y0081565D02*
X0148992Y0084767D01*
X0147924Y0085835D01*
X0144722Y0085835D01*
X0144722Y0081565D01*
X0142547Y0081565D02*
X0142547Y0085835D01*
X0142547Y0081565D02*
X0139344Y0081565D01*
X0138276Y0082632D01*
X0138276Y0085835D01*
X0136101Y0084767D02*
X0135033Y0085835D01*
X0132898Y0085835D01*
X0131831Y0084767D01*
X0131831Y0082632D01*
X0132898Y0081565D01*
X0135033Y0081565D01*
X0136101Y0082632D01*
X0136101Y0084767D01*
X0129656Y0082632D02*
X0128588Y0081565D01*
X0126453Y0081565D01*
X0125385Y0082632D01*
X0125385Y0086902D01*
X0126453Y0087970D01*
X0128588Y0087970D01*
X0129656Y0086902D01*
X0135047Y0077470D02*
X0133979Y0076402D01*
X0133979Y0072132D01*
X0135047Y0071065D01*
X0137182Y0071065D01*
X0138250Y0072132D01*
X0138250Y0074267D01*
X0136114Y0074267D01*
X0138250Y0076402D02*
X0137182Y0077470D01*
X0135047Y0077470D01*
X0140425Y0074267D02*
X0140425Y0072132D01*
X0141492Y0071065D01*
X0143627Y0071065D01*
X0144695Y0073200D02*
X0140425Y0073200D01*
X0140425Y0074267D02*
X0141492Y0075335D01*
X0143627Y0075335D01*
X0144695Y0074267D01*
X0144695Y0073200D01*
X0146870Y0071065D02*
X0146870Y0075335D01*
X0150073Y0075335D01*
X0151141Y0074267D01*
X0151141Y0071065D01*
X0153316Y0072132D02*
X0153316Y0074267D01*
X0154383Y0075335D01*
X0156518Y0075335D01*
X0157586Y0074267D01*
X0157586Y0073200D01*
X0153316Y0073200D01*
X0153316Y0072132D02*
X0154383Y0071065D01*
X0156518Y0071065D01*
X0159761Y0071065D02*
X0159761Y0075335D01*
X0159761Y0073200D02*
X0161896Y0075335D01*
X0162964Y0075335D01*
X0166200Y0075335D02*
X0168335Y0075335D01*
X0169403Y0074267D01*
X0169403Y0071065D01*
X0166200Y0071065D01*
X0165132Y0072132D01*
X0166200Y0073200D01*
X0169403Y0073200D01*
X0171578Y0075335D02*
X0173713Y0075335D01*
X0172646Y0076402D02*
X0172646Y0072132D01*
X0173713Y0071065D01*
X0175875Y0072132D02*
X0176943Y0071065D01*
X0179078Y0071065D01*
X0180145Y0072132D01*
X0180145Y0074267D01*
X0179078Y0075335D01*
X0176943Y0075335D01*
X0175875Y0074267D01*
X0175875Y0072132D01*
X0182320Y0071065D02*
X0182320Y0075335D01*
X0182320Y0073200D02*
X0184456Y0075335D01*
X0185523Y0075335D01*
X0158660Y0063767D02*
X0154390Y0063767D01*
X0157593Y0066970D01*
X0157593Y0060565D01*
X0152215Y0060565D02*
X0147944Y0060565D01*
X0150080Y0060565D02*
X0150080Y0066970D01*
X0147944Y0064835D01*
X0145769Y0066970D02*
X0141499Y0060565D01*
X0139324Y0060565D02*
X0135053Y0060565D01*
X0139324Y0064835D01*
X0139324Y0065902D01*
X0138256Y0066970D01*
X0136121Y0066970D01*
X0135053Y0065902D01*
X0132878Y0065902D02*
X0128608Y0061632D01*
X0129676Y0060565D01*
X0131811Y0060565D01*
X0132878Y0061632D01*
X0132878Y0065902D01*
X0131811Y0066970D01*
X0129676Y0066970D01*
X0128608Y0065902D01*
X0128608Y0061632D01*
X0126433Y0066970D02*
X0122162Y0060565D01*
X0119987Y0061632D02*
X0118920Y0060565D01*
X0116785Y0060565D01*
X0115717Y0061632D01*
X0119987Y0065902D01*
X0119987Y0061632D01*
X0119987Y0065902D02*
X0118920Y0066970D01*
X0116785Y0066970D01*
X0115717Y0065902D01*
X0115717Y0061632D01*
X0113542Y0060565D02*
X0109272Y0060565D01*
X0113542Y0064835D01*
X0113542Y0065902D01*
X0112474Y0066970D01*
X0110339Y0066970D01*
X0109272Y0065902D01*
X0107096Y0065902D02*
X0107096Y0061632D01*
X0106029Y0060565D01*
X0103894Y0060565D01*
X0102826Y0061632D01*
X0107096Y0065902D01*
X0106029Y0066970D01*
X0103894Y0066970D01*
X0102826Y0065902D01*
X0102826Y0061632D01*
X0100651Y0060565D02*
X0096381Y0060565D01*
X0100651Y0064835D01*
X0100651Y0065902D01*
X0099583Y0066970D01*
X0097448Y0066970D01*
X0096381Y0065902D01*
X0097448Y0071065D02*
X0096381Y0072132D01*
X0096381Y0075335D01*
X0094205Y0077470D02*
X0094205Y0071065D01*
X0089935Y0077470D01*
X0089935Y0071065D01*
X0086692Y0066970D02*
X0087760Y0065902D01*
X0087760Y0061632D01*
X0086692Y0060565D01*
X0084557Y0060565D01*
X0083490Y0061632D01*
X0083490Y0065902D01*
X0084557Y0066970D01*
X0086692Y0066970D01*
X0081314Y0066970D02*
X0081314Y0061632D01*
X0080247Y0060565D01*
X0078112Y0060565D01*
X0077044Y0061632D01*
X0077044Y0066970D01*
X0074869Y0065902D02*
X0073801Y0066970D01*
X0071666Y0066970D01*
X0070599Y0065902D01*
X0070599Y0061632D01*
X0071666Y0060565D01*
X0073801Y0060565D01*
X0074869Y0061632D01*
X0074869Y0063767D01*
X0072734Y0063767D01*
X0068423Y0064835D02*
X0068423Y0059497D01*
X0067356Y0058429D01*
X0066288Y0058429D01*
X0065221Y0060565D02*
X0068423Y0060565D01*
X0065221Y0060565D02*
X0064153Y0061632D01*
X0064153Y0064835D01*
X0061978Y0063767D02*
X0061978Y0060565D01*
X0061978Y0063767D02*
X0060910Y0064835D01*
X0057708Y0064835D01*
X0057708Y0060565D01*
X0055532Y0061632D02*
X0054465Y0060565D01*
X0052330Y0060565D01*
X0051262Y0061632D01*
X0051262Y0063767D01*
X0052330Y0064835D01*
X0054465Y0064835D01*
X0055532Y0063767D01*
X0055532Y0061632D01*
X0049087Y0066970D02*
X0044817Y0066970D01*
X0046952Y0066970D02*
X0046952Y0060565D01*
X0049087Y0071065D02*
X0046952Y0073200D01*
X0048019Y0073200D02*
X0044817Y0073200D01*
X0044817Y0071065D02*
X0044817Y0077470D01*
X0048019Y0077470D01*
X0049087Y0076402D01*
X0049087Y0074267D01*
X0048019Y0073200D01*
X0051262Y0072132D02*
X0052330Y0073200D01*
X0055532Y0073200D01*
X0055532Y0074267D02*
X0055532Y0071065D01*
X0052330Y0071065D01*
X0051262Y0072132D01*
X0052330Y0075335D02*
X0054465Y0075335D01*
X0055532Y0074267D01*
X0057708Y0075335D02*
X0060910Y0075335D01*
X0061978Y0074267D01*
X0061978Y0071065D01*
X0064153Y0072132D02*
X0064153Y0074267D01*
X0065221Y0075335D01*
X0068423Y0075335D01*
X0068423Y0077470D02*
X0068423Y0071065D01*
X0065221Y0071065D01*
X0064153Y0072132D01*
X0070599Y0072132D02*
X0071666Y0071065D01*
X0073801Y0071065D01*
X0074869Y0072132D01*
X0074869Y0074267D01*
X0073801Y0075335D01*
X0071666Y0075335D01*
X0070599Y0074267D01*
X0070599Y0072132D01*
X0077044Y0071065D02*
X0077044Y0075335D01*
X0078112Y0075335D01*
X0079179Y0074267D01*
X0080247Y0075335D01*
X0081314Y0074267D01*
X0081314Y0071065D01*
X0079179Y0071065D02*
X0079179Y0074267D01*
X0078112Y0081565D02*
X0077044Y0082632D01*
X0081314Y0086902D01*
X0081314Y0082632D01*
X0080247Y0081565D01*
X0078112Y0081565D01*
X0077044Y0082632D02*
X0077044Y0086902D01*
X0078112Y0087970D01*
X0080247Y0087970D01*
X0081314Y0086902D01*
X0083490Y0086902D02*
X0083490Y0082632D01*
X0084557Y0081565D01*
X0086692Y0081565D01*
X0087760Y0082632D01*
X0087760Y0084767D01*
X0085625Y0084767D01*
X0087760Y0086902D02*
X0086692Y0087970D01*
X0084557Y0087970D01*
X0083490Y0086902D01*
X0089935Y0084767D02*
X0089935Y0082632D01*
X0091003Y0081565D01*
X0093138Y0081565D01*
X0094205Y0083700D02*
X0089935Y0083700D01*
X0089935Y0084767D02*
X0091003Y0085835D01*
X0093138Y0085835D01*
X0094205Y0084767D01*
X0094205Y0083700D01*
X0096381Y0085835D02*
X0097448Y0085835D01*
X0097448Y0081565D01*
X0096381Y0081565D02*
X0098516Y0081565D01*
X0100678Y0082632D02*
X0100678Y0084767D01*
X0101745Y0085835D01*
X0104948Y0085835D01*
X0104948Y0080497D01*
X0103880Y0079429D01*
X0102813Y0079429D01*
X0101745Y0081565D02*
X0104948Y0081565D01*
X0107123Y0082632D02*
X0107123Y0084767D01*
X0108191Y0085835D01*
X0110326Y0085835D01*
X0111393Y0084767D01*
X0111393Y0083700D01*
X0107123Y0083700D01*
X0107123Y0082632D02*
X0108191Y0081565D01*
X0110326Y0081565D01*
X0113569Y0081565D02*
X0113569Y0085835D01*
X0115704Y0085835D02*
X0116771Y0085835D01*
X0115704Y0085835D02*
X0113569Y0083700D01*
X0109272Y0077470D02*
X0109272Y0071065D01*
X0112474Y0071065D01*
X0113542Y0072132D01*
X0113542Y0074267D01*
X0112474Y0075335D01*
X0109272Y0075335D01*
X0107096Y0074267D02*
X0107096Y0071065D01*
X0104961Y0071065D02*
X0104961Y0074267D01*
X0106029Y0075335D01*
X0107096Y0074267D01*
X0104961Y0074267D02*
X0103894Y0075335D01*
X0102826Y0075335D01*
X0102826Y0071065D01*
X0100651Y0071065D02*
X0100651Y0075335D01*
X0100651Y0071065D02*
X0097448Y0071065D01*
X0101745Y0081565D02*
X0100678Y0082632D01*
X0097448Y0087970D02*
X0097448Y0089038D01*
X0115717Y0074267D02*
X0116785Y0075335D01*
X0118920Y0075335D01*
X0119987Y0074267D01*
X0119987Y0073200D01*
X0115717Y0073200D01*
X0115717Y0074267D02*
X0115717Y0072132D01*
X0116785Y0071065D01*
X0118920Y0071065D01*
X0122162Y0071065D02*
X0122162Y0075335D01*
X0122162Y0073200D02*
X0124298Y0075335D01*
X0125365Y0075335D01*
X0124895Y0124635D02*
X0124897Y0124772D01*
X0124903Y0124908D01*
X0124913Y0125045D01*
X0124927Y0125181D01*
X0124945Y0125316D01*
X0124966Y0125451D01*
X0124992Y0125585D01*
X0125022Y0125719D01*
X0125055Y0125851D01*
X0125092Y0125983D01*
X0125134Y0126113D01*
X0125178Y0126242D01*
X0125227Y0126370D01*
X0125279Y0126497D01*
X0125335Y0126621D01*
X0125395Y0126744D01*
X0125458Y0126866D01*
X0125525Y0126985D01*
X0125595Y0127102D01*
X0125668Y0127218D01*
X0125745Y0127331D01*
X0125825Y0127442D01*
X0125908Y0127550D01*
X0125995Y0127656D01*
X0126084Y0127760D01*
X0126176Y0127860D01*
X0126272Y0127958D01*
X0126370Y0128054D01*
X0126470Y0128146D01*
X0126574Y0128235D01*
X0126680Y0128322D01*
X0126788Y0128405D01*
X0126899Y0128485D01*
X0127012Y0128562D01*
X0127128Y0128635D01*
X0127245Y0128705D01*
X0127364Y0128772D01*
X0127486Y0128835D01*
X0127609Y0128895D01*
X0127733Y0128951D01*
X0127860Y0129003D01*
X0127988Y0129052D01*
X0128117Y0129096D01*
X0128247Y0129138D01*
X0128379Y0129175D01*
X0128511Y0129208D01*
X0128645Y0129238D01*
X0128779Y0129264D01*
X0128914Y0129285D01*
X0129049Y0129303D01*
X0129185Y0129317D01*
X0129322Y0129327D01*
X0129458Y0129333D01*
X0129595Y0129335D01*
X0129732Y0129333D01*
X0129868Y0129327D01*
X0130005Y0129317D01*
X0130141Y0129303D01*
X0130276Y0129285D01*
X0130411Y0129264D01*
X0130545Y0129238D01*
X0130679Y0129208D01*
X0130811Y0129175D01*
X0130943Y0129138D01*
X0131073Y0129096D01*
X0131202Y0129052D01*
X0131330Y0129003D01*
X0131457Y0128951D01*
X0131581Y0128895D01*
X0131704Y0128835D01*
X0131826Y0128772D01*
X0131945Y0128705D01*
X0132062Y0128635D01*
X0132178Y0128562D01*
X0132291Y0128485D01*
X0132402Y0128405D01*
X0132510Y0128322D01*
X0132616Y0128235D01*
X0132720Y0128146D01*
X0132820Y0128054D01*
X0132918Y0127958D01*
X0133014Y0127860D01*
X0133106Y0127760D01*
X0133195Y0127656D01*
X0133282Y0127550D01*
X0133365Y0127442D01*
X0133445Y0127331D01*
X0133522Y0127218D01*
X0133595Y0127102D01*
X0133665Y0126985D01*
X0133732Y0126866D01*
X0133795Y0126744D01*
X0133855Y0126621D01*
X0133911Y0126497D01*
X0133963Y0126370D01*
X0134012Y0126242D01*
X0134056Y0126113D01*
X0134098Y0125983D01*
X0134135Y0125851D01*
X0134168Y0125719D01*
X0134198Y0125585D01*
X0134224Y0125451D01*
X0134245Y0125316D01*
X0134263Y0125181D01*
X0134277Y0125045D01*
X0134287Y0124908D01*
X0134293Y0124772D01*
X0134295Y0124635D01*
X0134293Y0124498D01*
X0134287Y0124362D01*
X0134277Y0124225D01*
X0134263Y0124089D01*
X0134245Y0123954D01*
X0134224Y0123819D01*
X0134198Y0123685D01*
X0134168Y0123551D01*
X0134135Y0123419D01*
X0134098Y0123287D01*
X0134056Y0123157D01*
X0134012Y0123028D01*
X0133963Y0122900D01*
X0133911Y0122773D01*
X0133855Y0122649D01*
X0133795Y0122526D01*
X0133732Y0122404D01*
X0133665Y0122285D01*
X0133595Y0122168D01*
X0133522Y0122052D01*
X0133445Y0121939D01*
X0133365Y0121828D01*
X0133282Y0121720D01*
X0133195Y0121614D01*
X0133106Y0121510D01*
X0133014Y0121410D01*
X0132918Y0121312D01*
X0132820Y0121216D01*
X0132720Y0121124D01*
X0132616Y0121035D01*
X0132510Y0120948D01*
X0132402Y0120865D01*
X0132291Y0120785D01*
X0132178Y0120708D01*
X0132062Y0120635D01*
X0131945Y0120565D01*
X0131826Y0120498D01*
X0131704Y0120435D01*
X0131581Y0120375D01*
X0131457Y0120319D01*
X0131330Y0120267D01*
X0131202Y0120218D01*
X0131073Y0120174D01*
X0130943Y0120132D01*
X0130811Y0120095D01*
X0130679Y0120062D01*
X0130545Y0120032D01*
X0130411Y0120006D01*
X0130276Y0119985D01*
X0130141Y0119967D01*
X0130005Y0119953D01*
X0129868Y0119943D01*
X0129732Y0119937D01*
X0129595Y0119935D01*
X0129458Y0119937D01*
X0129322Y0119943D01*
X0129185Y0119953D01*
X0129049Y0119967D01*
X0128914Y0119985D01*
X0128779Y0120006D01*
X0128645Y0120032D01*
X0128511Y0120062D01*
X0128379Y0120095D01*
X0128247Y0120132D01*
X0128117Y0120174D01*
X0127988Y0120218D01*
X0127860Y0120267D01*
X0127733Y0120319D01*
X0127609Y0120375D01*
X0127486Y0120435D01*
X0127364Y0120498D01*
X0127245Y0120565D01*
X0127128Y0120635D01*
X0127012Y0120708D01*
X0126899Y0120785D01*
X0126788Y0120865D01*
X0126680Y0120948D01*
X0126574Y0121035D01*
X0126470Y0121124D01*
X0126370Y0121216D01*
X0126272Y0121312D01*
X0126176Y0121410D01*
X0126084Y0121510D01*
X0125995Y0121614D01*
X0125908Y0121720D01*
X0125825Y0121828D01*
X0125745Y0121939D01*
X0125668Y0122052D01*
X0125595Y0122168D01*
X0125525Y0122285D01*
X0125458Y0122404D01*
X0125395Y0122526D01*
X0125335Y0122649D01*
X0125279Y0122773D01*
X0125227Y0122900D01*
X0125178Y0123028D01*
X0125134Y0123157D01*
X0125092Y0123287D01*
X0125055Y0123419D01*
X0125022Y0123551D01*
X0124992Y0123685D01*
X0124966Y0123819D01*
X0124945Y0123954D01*
X0124927Y0124089D01*
X0124913Y0124225D01*
X0124903Y0124362D01*
X0124897Y0124498D01*
X0124895Y0124635D01*
X0105995Y0124635D02*
X0106002Y0125214D01*
X0106023Y0125793D01*
X0106059Y0126371D01*
X0106109Y0126948D01*
X0106172Y0127524D01*
X0106250Y0128098D01*
X0106342Y0128670D01*
X0106448Y0129239D01*
X0106568Y0129806D01*
X0106702Y0130369D01*
X0106850Y0130929D01*
X0107011Y0131486D01*
X0107186Y0132038D01*
X0107375Y0132586D01*
X0107576Y0133129D01*
X0107791Y0133666D01*
X0108020Y0134199D01*
X0108261Y0134725D01*
X0108515Y0135246D01*
X0108782Y0135760D01*
X0109061Y0136267D01*
X0109353Y0136768D01*
X0109656Y0137261D01*
X0109972Y0137746D01*
X0110300Y0138224D01*
X0110639Y0138694D01*
X0110990Y0139154D01*
X0111352Y0139607D01*
X0111725Y0140050D01*
X0112109Y0140484D01*
X0112503Y0140908D01*
X0112907Y0141323D01*
X0113322Y0141727D01*
X0113746Y0142121D01*
X0114180Y0142505D01*
X0114623Y0142878D01*
X0115076Y0143240D01*
X0115536Y0143591D01*
X0116006Y0143930D01*
X0116484Y0144258D01*
X0116969Y0144574D01*
X0117462Y0144877D01*
X0117963Y0145169D01*
X0118470Y0145448D01*
X0118984Y0145715D01*
X0119505Y0145969D01*
X0120031Y0146210D01*
X0120564Y0146439D01*
X0121101Y0146654D01*
X0121644Y0146855D01*
X0122192Y0147044D01*
X0122744Y0147219D01*
X0123301Y0147380D01*
X0123861Y0147528D01*
X0124424Y0147662D01*
X0124991Y0147782D01*
X0125560Y0147888D01*
X0126132Y0147980D01*
X0126706Y0148058D01*
X0127282Y0148121D01*
X0127859Y0148171D01*
X0128437Y0148207D01*
X0129016Y0148228D01*
X0129595Y0148235D01*
X0130174Y0148228D01*
X0130753Y0148207D01*
X0131331Y0148171D01*
X0131908Y0148121D01*
X0132484Y0148058D01*
X0133058Y0147980D01*
X0133630Y0147888D01*
X0134199Y0147782D01*
X0134766Y0147662D01*
X0135329Y0147528D01*
X0135889Y0147380D01*
X0136446Y0147219D01*
X0136998Y0147044D01*
X0137546Y0146855D01*
X0138089Y0146654D01*
X0138626Y0146439D01*
X0139159Y0146210D01*
X0139685Y0145969D01*
X0140206Y0145715D01*
X0140720Y0145448D01*
X0141227Y0145169D01*
X0141728Y0144877D01*
X0142221Y0144574D01*
X0142706Y0144258D01*
X0143184Y0143930D01*
X0143654Y0143591D01*
X0144114Y0143240D01*
X0144567Y0142878D01*
X0145010Y0142505D01*
X0145444Y0142121D01*
X0145868Y0141727D01*
X0146283Y0141323D01*
X0146687Y0140908D01*
X0147081Y0140484D01*
X0147465Y0140050D01*
X0147838Y0139607D01*
X0148200Y0139154D01*
X0148551Y0138694D01*
X0148890Y0138224D01*
X0149218Y0137746D01*
X0149534Y0137261D01*
X0149837Y0136768D01*
X0150129Y0136267D01*
X0150408Y0135760D01*
X0150675Y0135246D01*
X0150929Y0134725D01*
X0151170Y0134199D01*
X0151399Y0133666D01*
X0151614Y0133129D01*
X0151815Y0132586D01*
X0152004Y0132038D01*
X0152179Y0131486D01*
X0152340Y0130929D01*
X0152488Y0130369D01*
X0152622Y0129806D01*
X0152742Y0129239D01*
X0152848Y0128670D01*
X0152940Y0128098D01*
X0153018Y0127524D01*
X0153081Y0126948D01*
X0153131Y0126371D01*
X0153167Y0125793D01*
X0153188Y0125214D01*
X0153195Y0124635D01*
X0153188Y0124056D01*
X0153167Y0123477D01*
X0153131Y0122899D01*
X0153081Y0122322D01*
X0153018Y0121746D01*
X0152940Y0121172D01*
X0152848Y0120600D01*
X0152742Y0120031D01*
X0152622Y0119464D01*
X0152488Y0118901D01*
X0152340Y0118341D01*
X0152179Y0117784D01*
X0152004Y0117232D01*
X0151815Y0116684D01*
X0151614Y0116141D01*
X0151399Y0115604D01*
X0151170Y0115071D01*
X0150929Y0114545D01*
X0150675Y0114024D01*
X0150408Y0113510D01*
X0150129Y0113003D01*
X0149837Y0112502D01*
X0149534Y0112009D01*
X0149218Y0111524D01*
X0148890Y0111046D01*
X0148551Y0110576D01*
X0148200Y0110116D01*
X0147838Y0109663D01*
X0147465Y0109220D01*
X0147081Y0108786D01*
X0146687Y0108362D01*
X0146283Y0107947D01*
X0145868Y0107543D01*
X0145444Y0107149D01*
X0145010Y0106765D01*
X0144567Y0106392D01*
X0144114Y0106030D01*
X0143654Y0105679D01*
X0143184Y0105340D01*
X0142706Y0105012D01*
X0142221Y0104696D01*
X0141728Y0104393D01*
X0141227Y0104101D01*
X0140720Y0103822D01*
X0140206Y0103555D01*
X0139685Y0103301D01*
X0139159Y0103060D01*
X0138626Y0102831D01*
X0138089Y0102616D01*
X0137546Y0102415D01*
X0136998Y0102226D01*
X0136446Y0102051D01*
X0135889Y0101890D01*
X0135329Y0101742D01*
X0134766Y0101608D01*
X0134199Y0101488D01*
X0133630Y0101382D01*
X0133058Y0101290D01*
X0132484Y0101212D01*
X0131908Y0101149D01*
X0131331Y0101099D01*
X0130753Y0101063D01*
X0130174Y0101042D01*
X0129595Y0101035D01*
X0129016Y0101042D01*
X0128437Y0101063D01*
X0127859Y0101099D01*
X0127282Y0101149D01*
X0126706Y0101212D01*
X0126132Y0101290D01*
X0125560Y0101382D01*
X0124991Y0101488D01*
X0124424Y0101608D01*
X0123861Y0101742D01*
X0123301Y0101890D01*
X0122744Y0102051D01*
X0122192Y0102226D01*
X0121644Y0102415D01*
X0121101Y0102616D01*
X0120564Y0102831D01*
X0120031Y0103060D01*
X0119505Y0103301D01*
X0118984Y0103555D01*
X0118470Y0103822D01*
X0117963Y0104101D01*
X0117462Y0104393D01*
X0116969Y0104696D01*
X0116484Y0105012D01*
X0116006Y0105340D01*
X0115536Y0105679D01*
X0115076Y0106030D01*
X0114623Y0106392D01*
X0114180Y0106765D01*
X0113746Y0107149D01*
X0113322Y0107543D01*
X0112907Y0107947D01*
X0112503Y0108362D01*
X0112109Y0108786D01*
X0111725Y0109220D01*
X0111352Y0109663D01*
X0110990Y0110116D01*
X0110639Y0110576D01*
X0110300Y0111046D01*
X0109972Y0111524D01*
X0109656Y0112009D01*
X0109353Y0112502D01*
X0109061Y0113003D01*
X0108782Y0113510D01*
X0108515Y0114024D01*
X0108261Y0114545D01*
X0108020Y0115071D01*
X0107791Y0115604D01*
X0107576Y0116141D01*
X0107375Y0116684D01*
X0107186Y0117232D01*
X0107011Y0117784D01*
X0106850Y0118341D01*
X0106702Y0118901D01*
X0106568Y0119464D01*
X0106448Y0120031D01*
X0106342Y0120600D01*
X0106250Y0121172D01*
X0106172Y0121746D01*
X0106109Y0122322D01*
X0106059Y0122899D01*
X0106023Y0123477D01*
X0106002Y0124056D01*
X0105995Y0124635D01*
X0100225Y0126406D02*
X0097863Y0126406D01*
X0097863Y0131131D02*
X0100225Y0131131D01*
X0101170Y0140698D02*
X0103532Y0140698D01*
X0103532Y0145422D02*
X0101170Y0145422D01*
X0087233Y0145422D02*
X0084871Y0145422D01*
X0084871Y0140698D02*
X0087233Y0140698D01*
X0054280Y0171462D02*
X0054280Y0177868D01*
X0052145Y0177868D02*
X0056415Y0177868D01*
X0049970Y0176800D02*
X0048902Y0177868D01*
X0046767Y0177868D01*
X0045700Y0176800D01*
X0045700Y0175733D01*
X0046767Y0174665D01*
X0048902Y0174665D01*
X0049970Y0173597D01*
X0049970Y0172530D01*
X0048902Y0171462D01*
X0046767Y0171462D01*
X0045700Y0172530D01*
X0043524Y0171462D02*
X0039254Y0171462D01*
X0039254Y0177868D01*
X0043524Y0177868D01*
X0041389Y0174665D02*
X0039254Y0174665D01*
X0037079Y0177868D02*
X0032809Y0177868D01*
X0034944Y0177868D02*
X0034944Y0171462D01*
X0036011Y0167368D02*
X0032809Y0167368D01*
X0032809Y0160962D01*
X0032809Y0163097D02*
X0036011Y0163097D01*
X0037079Y0164165D01*
X0037079Y0166300D01*
X0036011Y0167368D01*
X0039254Y0167368D02*
X0043524Y0160962D01*
X0043524Y0156868D02*
X0039254Y0150462D01*
X0039254Y0146368D02*
X0043524Y0139962D01*
X0043524Y0146368D01*
X0045700Y0146368D02*
X0048902Y0146368D01*
X0049970Y0145300D01*
X0049970Y0141030D01*
X0048902Y0139962D01*
X0045700Y0139962D01*
X0045700Y0146368D01*
X0043524Y0150462D02*
X0039254Y0156868D01*
X0037079Y0156868D02*
X0032809Y0156868D01*
X0034944Y0156868D02*
X0034944Y0150462D01*
X0036011Y0146368D02*
X0033876Y0146368D01*
X0032809Y0145300D01*
X0032809Y0141030D01*
X0033876Y0139962D01*
X0036011Y0139962D01*
X0037079Y0141030D01*
X0037079Y0143165D01*
X0034944Y0143165D01*
X0037079Y0145300D02*
X0036011Y0146368D01*
X0039254Y0146368D02*
X0039254Y0139962D01*
X0039254Y0135868D02*
X0042457Y0135868D01*
X0043524Y0134800D01*
X0043524Y0130530D01*
X0042457Y0129462D01*
X0039254Y0129462D01*
X0039254Y0135868D01*
X0037079Y0135868D02*
X0037079Y0131597D01*
X0034944Y0129462D01*
X0032809Y0131597D01*
X0032809Y0135868D01*
X0030501Y0137017D02*
X0030501Y0132017D01*
X0028001Y0129517D01*
X0023001Y0129517D01*
X0020501Y0132017D01*
X0020501Y0137017D01*
X0023001Y0139517D01*
X0020501Y0142017D01*
X0020501Y0147017D01*
X0023001Y0149517D01*
X0028001Y0149517D01*
X0030501Y0147017D01*
X0030501Y0142017D01*
X0028001Y0139517D01*
X0030501Y0137017D01*
X0028001Y0139517D02*
X0023001Y0139517D01*
X0023001Y0149517D02*
X0020501Y0152017D01*
X0020501Y0157017D01*
X0023001Y0159517D01*
X0020501Y0162017D01*
X0020501Y0167017D01*
X0023001Y0169517D01*
X0020501Y0172017D01*
X0020501Y0177017D01*
X0023001Y0179517D01*
X0020501Y0182017D01*
X0020501Y0187017D01*
X0023001Y0189517D01*
X0028001Y0189517D01*
X0030501Y0187017D01*
X0030501Y0182017D01*
X0028001Y0179517D01*
X0030501Y0177017D01*
X0030501Y0172017D01*
X0028001Y0169517D01*
X0030501Y0167017D01*
X0030501Y0162017D01*
X0028001Y0159517D01*
X0030501Y0157017D01*
X0030501Y0152017D01*
X0028001Y0149517D01*
X0028001Y0159517D02*
X0023001Y0159517D01*
X0023001Y0169517D02*
X0028001Y0169517D01*
X0034944Y0163097D02*
X0037079Y0160962D01*
X0039254Y0160962D02*
X0043524Y0167368D01*
X0042457Y0181962D02*
X0040322Y0181962D01*
X0039254Y0183030D01*
X0040322Y0185165D02*
X0042457Y0185165D01*
X0043524Y0184097D01*
X0043524Y0183030D01*
X0042457Y0181962D01*
X0040322Y0185165D02*
X0039254Y0186233D01*
X0039254Y0187300D01*
X0040322Y0188368D01*
X0042457Y0188368D01*
X0043524Y0187300D01*
X0045700Y0188368D02*
X0049970Y0188368D01*
X0047835Y0188368D02*
X0047835Y0181962D01*
X0037079Y0181962D02*
X0034944Y0184097D01*
X0036011Y0184097D02*
X0032809Y0184097D01*
X0032809Y0181962D02*
X0032809Y0188368D01*
X0036011Y0188368D01*
X0037079Y0187300D01*
X0037079Y0185165D01*
X0036011Y0184097D01*
X0028001Y0179517D02*
X0023001Y0179517D01*
X0045700Y0135868D02*
X0048902Y0135868D01*
X0049970Y0134800D01*
X0049970Y0130530D01*
X0048902Y0129462D01*
X0045700Y0129462D01*
X0045700Y0135868D01*
X0044817Y0087970D02*
X0046952Y0085835D01*
X0049087Y0087970D01*
X0049087Y0081565D01*
X0051262Y0082632D02*
X0052330Y0081565D01*
X0054465Y0081565D01*
X0055532Y0082632D01*
X0055532Y0083700D01*
X0054465Y0084767D01*
X0052330Y0084767D01*
X0051262Y0085835D01*
X0051262Y0086902D01*
X0052330Y0087970D01*
X0054465Y0087970D01*
X0055532Y0086902D01*
X0057708Y0087970D02*
X0057708Y0081565D01*
X0057708Y0083700D02*
X0060910Y0083700D01*
X0061978Y0084767D01*
X0061978Y0086902D01*
X0060910Y0087970D01*
X0057708Y0087970D01*
X0064153Y0084767D02*
X0068423Y0084767D01*
X0070599Y0082632D02*
X0071666Y0081565D01*
X0073801Y0081565D01*
X0074869Y0082632D01*
X0074869Y0083700D01*
X0073801Y0084767D01*
X0072734Y0084767D01*
X0073801Y0084767D02*
X0074869Y0085835D01*
X0074869Y0086902D01*
X0073801Y0087970D01*
X0071666Y0087970D01*
X0070599Y0086902D01*
X0067356Y0087970D02*
X0067356Y0081565D01*
X0064153Y0084767D02*
X0067356Y0087970D01*
X0057708Y0075335D02*
X0057708Y0071065D01*
X0044817Y0081565D02*
X0044817Y0087970D01*
X0095855Y0175698D02*
X0098217Y0175698D01*
X0098217Y0180422D02*
X0095855Y0180422D01*
X0143095Y0134635D02*
X0146095Y0134635D01*
X0142095Y0134635D02*
X0142097Y0134734D01*
X0142103Y0134834D01*
X0142113Y0134933D01*
X0142127Y0135031D01*
X0142144Y0135129D01*
X0142166Y0135226D01*
X0142191Y0135322D01*
X0142220Y0135417D01*
X0142253Y0135511D01*
X0142290Y0135603D01*
X0142330Y0135694D01*
X0142374Y0135783D01*
X0142422Y0135871D01*
X0142473Y0135956D01*
X0142527Y0136039D01*
X0142584Y0136121D01*
X0142645Y0136199D01*
X0142709Y0136276D01*
X0142775Y0136349D01*
X0142845Y0136420D01*
X0142917Y0136488D01*
X0142992Y0136554D01*
X0143070Y0136616D01*
X0143150Y0136675D01*
X0143232Y0136731D01*
X0143316Y0136783D01*
X0143403Y0136832D01*
X0143491Y0136878D01*
X0143581Y0136920D01*
X0143673Y0136959D01*
X0143766Y0136994D01*
X0143860Y0137025D01*
X0143956Y0137052D01*
X0144053Y0137075D01*
X0144150Y0137095D01*
X0144248Y0137111D01*
X0144347Y0137123D01*
X0144446Y0137131D01*
X0144545Y0137135D01*
X0144645Y0137135D01*
X0144744Y0137131D01*
X0144843Y0137123D01*
X0144942Y0137111D01*
X0145040Y0137095D01*
X0145137Y0137075D01*
X0145234Y0137052D01*
X0145330Y0137025D01*
X0145424Y0136994D01*
X0145517Y0136959D01*
X0145609Y0136920D01*
X0145699Y0136878D01*
X0145787Y0136832D01*
X0145874Y0136783D01*
X0145958Y0136731D01*
X0146040Y0136675D01*
X0146120Y0136616D01*
X0146198Y0136554D01*
X0146273Y0136488D01*
X0146345Y0136420D01*
X0146415Y0136349D01*
X0146481Y0136276D01*
X0146545Y0136199D01*
X0146606Y0136121D01*
X0146663Y0136039D01*
X0146717Y0135956D01*
X0146768Y0135871D01*
X0146816Y0135783D01*
X0146860Y0135694D01*
X0146900Y0135603D01*
X0146937Y0135511D01*
X0146970Y0135417D01*
X0146999Y0135322D01*
X0147024Y0135226D01*
X0147046Y0135129D01*
X0147063Y0135031D01*
X0147077Y0134933D01*
X0147087Y0134834D01*
X0147093Y0134734D01*
X0147095Y0134635D01*
X0147093Y0134536D01*
X0147087Y0134436D01*
X0147077Y0134337D01*
X0147063Y0134239D01*
X0147046Y0134141D01*
X0147024Y0134044D01*
X0146999Y0133948D01*
X0146970Y0133853D01*
X0146937Y0133759D01*
X0146900Y0133667D01*
X0146860Y0133576D01*
X0146816Y0133487D01*
X0146768Y0133399D01*
X0146717Y0133314D01*
X0146663Y0133231D01*
X0146606Y0133149D01*
X0146545Y0133071D01*
X0146481Y0132994D01*
X0146415Y0132921D01*
X0146345Y0132850D01*
X0146273Y0132782D01*
X0146198Y0132716D01*
X0146120Y0132654D01*
X0146040Y0132595D01*
X0145958Y0132539D01*
X0145874Y0132487D01*
X0145787Y0132438D01*
X0145699Y0132392D01*
X0145609Y0132350D01*
X0145517Y0132311D01*
X0145424Y0132276D01*
X0145330Y0132245D01*
X0145234Y0132218D01*
X0145137Y0132195D01*
X0145040Y0132175D01*
X0144942Y0132159D01*
X0144843Y0132147D01*
X0144744Y0132139D01*
X0144645Y0132135D01*
X0144545Y0132135D01*
X0144446Y0132139D01*
X0144347Y0132147D01*
X0144248Y0132159D01*
X0144150Y0132175D01*
X0144053Y0132195D01*
X0143956Y0132218D01*
X0143860Y0132245D01*
X0143766Y0132276D01*
X0143673Y0132311D01*
X0143581Y0132350D01*
X0143491Y0132392D01*
X0143403Y0132438D01*
X0143316Y0132487D01*
X0143232Y0132539D01*
X0143150Y0132595D01*
X0143070Y0132654D01*
X0142992Y0132716D01*
X0142917Y0132782D01*
X0142845Y0132850D01*
X0142775Y0132921D01*
X0142709Y0132994D01*
X0142645Y0133071D01*
X0142584Y0133149D01*
X0142527Y0133231D01*
X0142473Y0133314D01*
X0142422Y0133399D01*
X0142374Y0133487D01*
X0142330Y0133576D01*
X0142290Y0133667D01*
X0142253Y0133759D01*
X0142220Y0133853D01*
X0142191Y0133948D01*
X0142166Y0134044D01*
X0142144Y0134141D01*
X0142127Y0134239D01*
X0142113Y0134337D01*
X0142103Y0134436D01*
X0142097Y0134536D01*
X0142095Y0134635D01*
X0144595Y0133135D02*
X0144595Y0136135D01*
X0046509Y0237036D02*
X0046514Y0237429D01*
X0046528Y0237821D01*
X0046552Y0238213D01*
X0046586Y0238604D01*
X0046629Y0238995D01*
X0046682Y0239384D01*
X0046745Y0239771D01*
X0046816Y0240157D01*
X0046898Y0240542D01*
X0046988Y0240924D01*
X0047089Y0241303D01*
X0047198Y0241681D01*
X0047317Y0242055D01*
X0047444Y0242426D01*
X0047581Y0242794D01*
X0047727Y0243159D01*
X0047882Y0243520D01*
X0048045Y0243877D01*
X0048217Y0244230D01*
X0048398Y0244578D01*
X0048588Y0244922D01*
X0048785Y0245262D01*
X0048991Y0245596D01*
X0049205Y0245925D01*
X0049428Y0246249D01*
X0049658Y0246567D01*
X0049895Y0246880D01*
X0050141Y0247186D01*
X0050394Y0247487D01*
X0050654Y0247781D01*
X0050921Y0248069D01*
X0051195Y0248350D01*
X0051476Y0248624D01*
X0051764Y0248891D01*
X0052058Y0249151D01*
X0052359Y0249404D01*
X0052665Y0249650D01*
X0052978Y0249887D01*
X0053296Y0250117D01*
X0053620Y0250340D01*
X0053949Y0250554D01*
X0054283Y0250760D01*
X0054623Y0250957D01*
X0054967Y0251147D01*
X0055315Y0251328D01*
X0055668Y0251500D01*
X0056025Y0251663D01*
X0056386Y0251818D01*
X0056751Y0251964D01*
X0057119Y0252101D01*
X0057490Y0252228D01*
X0057864Y0252347D01*
X0058242Y0252456D01*
X0058621Y0252557D01*
X0059003Y0252647D01*
X0059388Y0252729D01*
X0059774Y0252800D01*
X0060161Y0252863D01*
X0060550Y0252916D01*
X0060941Y0252959D01*
X0061332Y0252993D01*
X0061724Y0253017D01*
X0062116Y0253031D01*
X0062509Y0253036D01*
X0062902Y0253031D01*
X0063294Y0253017D01*
X0063686Y0252993D01*
X0064077Y0252959D01*
X0064468Y0252916D01*
X0064857Y0252863D01*
X0065244Y0252800D01*
X0065630Y0252729D01*
X0066015Y0252647D01*
X0066397Y0252557D01*
X0066776Y0252456D01*
X0067154Y0252347D01*
X0067528Y0252228D01*
X0067899Y0252101D01*
X0068267Y0251964D01*
X0068632Y0251818D01*
X0068993Y0251663D01*
X0069350Y0251500D01*
X0069703Y0251328D01*
X0070051Y0251147D01*
X0070395Y0250957D01*
X0070735Y0250760D01*
X0071069Y0250554D01*
X0071398Y0250340D01*
X0071722Y0250117D01*
X0072040Y0249887D01*
X0072353Y0249650D01*
X0072659Y0249404D01*
X0072960Y0249151D01*
X0073254Y0248891D01*
X0073542Y0248624D01*
X0073823Y0248350D01*
X0074097Y0248069D01*
X0074364Y0247781D01*
X0074624Y0247487D01*
X0074877Y0247186D01*
X0075123Y0246880D01*
X0075360Y0246567D01*
X0075590Y0246249D01*
X0075813Y0245925D01*
X0076027Y0245596D01*
X0076233Y0245262D01*
X0076430Y0244922D01*
X0076620Y0244578D01*
X0076801Y0244230D01*
X0076973Y0243877D01*
X0077136Y0243520D01*
X0077291Y0243159D01*
X0077437Y0242794D01*
X0077574Y0242426D01*
X0077701Y0242055D01*
X0077820Y0241681D01*
X0077929Y0241303D01*
X0078030Y0240924D01*
X0078120Y0240542D01*
X0078202Y0240157D01*
X0078273Y0239771D01*
X0078336Y0239384D01*
X0078389Y0238995D01*
X0078432Y0238604D01*
X0078466Y0238213D01*
X0078490Y0237821D01*
X0078504Y0237429D01*
X0078509Y0237036D01*
X0078504Y0236643D01*
X0078490Y0236251D01*
X0078466Y0235859D01*
X0078432Y0235468D01*
X0078389Y0235077D01*
X0078336Y0234688D01*
X0078273Y0234301D01*
X0078202Y0233915D01*
X0078120Y0233530D01*
X0078030Y0233148D01*
X0077929Y0232769D01*
X0077820Y0232391D01*
X0077701Y0232017D01*
X0077574Y0231646D01*
X0077437Y0231278D01*
X0077291Y0230913D01*
X0077136Y0230552D01*
X0076973Y0230195D01*
X0076801Y0229842D01*
X0076620Y0229494D01*
X0076430Y0229150D01*
X0076233Y0228810D01*
X0076027Y0228476D01*
X0075813Y0228147D01*
X0075590Y0227823D01*
X0075360Y0227505D01*
X0075123Y0227192D01*
X0074877Y0226886D01*
X0074624Y0226585D01*
X0074364Y0226291D01*
X0074097Y0226003D01*
X0073823Y0225722D01*
X0073542Y0225448D01*
X0073254Y0225181D01*
X0072960Y0224921D01*
X0072659Y0224668D01*
X0072353Y0224422D01*
X0072040Y0224185D01*
X0071722Y0223955D01*
X0071398Y0223732D01*
X0071069Y0223518D01*
X0070735Y0223312D01*
X0070395Y0223115D01*
X0070051Y0222925D01*
X0069703Y0222744D01*
X0069350Y0222572D01*
X0068993Y0222409D01*
X0068632Y0222254D01*
X0068267Y0222108D01*
X0067899Y0221971D01*
X0067528Y0221844D01*
X0067154Y0221725D01*
X0066776Y0221616D01*
X0066397Y0221515D01*
X0066015Y0221425D01*
X0065630Y0221343D01*
X0065244Y0221272D01*
X0064857Y0221209D01*
X0064468Y0221156D01*
X0064077Y0221113D01*
X0063686Y0221079D01*
X0063294Y0221055D01*
X0062902Y0221041D01*
X0062509Y0221036D01*
X0062116Y0221041D01*
X0061724Y0221055D01*
X0061332Y0221079D01*
X0060941Y0221113D01*
X0060550Y0221156D01*
X0060161Y0221209D01*
X0059774Y0221272D01*
X0059388Y0221343D01*
X0059003Y0221425D01*
X0058621Y0221515D01*
X0058242Y0221616D01*
X0057864Y0221725D01*
X0057490Y0221844D01*
X0057119Y0221971D01*
X0056751Y0222108D01*
X0056386Y0222254D01*
X0056025Y0222409D01*
X0055668Y0222572D01*
X0055315Y0222744D01*
X0054967Y0222925D01*
X0054623Y0223115D01*
X0054283Y0223312D01*
X0053949Y0223518D01*
X0053620Y0223732D01*
X0053296Y0223955D01*
X0052978Y0224185D01*
X0052665Y0224422D01*
X0052359Y0224668D01*
X0052058Y0224921D01*
X0051764Y0225181D01*
X0051476Y0225448D01*
X0051195Y0225722D01*
X0050921Y0226003D01*
X0050654Y0226291D01*
X0050394Y0226585D01*
X0050141Y0226886D01*
X0049895Y0227192D01*
X0049658Y0227505D01*
X0049428Y0227823D01*
X0049205Y0228147D01*
X0048991Y0228476D01*
X0048785Y0228810D01*
X0048588Y0229150D01*
X0048398Y0229494D01*
X0048217Y0229842D01*
X0048045Y0230195D01*
X0047882Y0230552D01*
X0047727Y0230913D01*
X0047581Y0231278D01*
X0047444Y0231646D01*
X0047317Y0232017D01*
X0047198Y0232391D01*
X0047089Y0232769D01*
X0046988Y0233148D01*
X0046898Y0233530D01*
X0046816Y0233915D01*
X0046745Y0234301D01*
X0046682Y0234688D01*
X0046629Y0235077D01*
X0046586Y0235468D01*
X0046552Y0235859D01*
X0046528Y0236251D01*
X0046514Y0236643D01*
X0046509Y0237036D01*
X0050509Y0240036D02*
X0050509Y0243036D01*
X0049009Y0241536D02*
X0052009Y0241536D01*
X0045107Y0265737D02*
X0042745Y0265737D01*
X0042745Y0270461D02*
X0045107Y0270461D01*
X0043375Y0310225D02*
X0041013Y0310225D01*
X0041013Y0314950D02*
X0043375Y0314950D01*
X0106910Y0285465D02*
X0106910Y0279316D01*
X0118111Y0279316D02*
X0118111Y0285465D01*
X0157415Y0305250D02*
X0157415Y0311655D01*
X0157415Y0308452D02*
X0161685Y0308452D01*
X0163860Y0307385D02*
X0163860Y0311655D01*
X0161685Y0311655D02*
X0161685Y0305250D01*
X0163860Y0307385D02*
X0165996Y0305250D01*
X0168131Y0307385D01*
X0168131Y0311655D01*
X0170306Y0304182D02*
X0174576Y0304182D01*
X0176751Y0306317D02*
X0177819Y0305250D01*
X0179954Y0305250D01*
X0181022Y0306317D01*
X0181022Y0307385D01*
X0179954Y0308452D01*
X0177819Y0308452D01*
X0176751Y0309520D01*
X0176751Y0310588D01*
X0177819Y0311655D01*
X0179954Y0311655D01*
X0181022Y0310588D01*
X0183197Y0311655D02*
X0183197Y0305250D01*
X0185332Y0307385D01*
X0187467Y0305250D01*
X0187467Y0311655D01*
D12*
X0207902Y0301800D02*
X0207902Y0324635D01*
X0228375Y0324635D01*
X0228375Y0301800D01*
X0207902Y0301800D01*
X0240320Y0308296D02*
X0240320Y0309107D01*
X0240320Y0320894D01*
X0270261Y0320894D01*
X0270261Y0319107D01*
X0270261Y0308296D01*
X0240320Y0308296D01*
X0240320Y0309107D02*
X0240320Y0309333D01*
X0245353Y0303223D02*
X0246854Y0303223D01*
X0246104Y0303223D02*
X0246104Y0298719D01*
X0246854Y0298719D02*
X0245353Y0298719D01*
X0248422Y0299470D02*
X0248422Y0302472D01*
X0249173Y0303223D01*
X0250674Y0303223D01*
X0251425Y0302472D01*
X0253026Y0300971D02*
X0256029Y0300971D01*
X0255278Y0298719D02*
X0255278Y0303223D01*
X0253026Y0300971D01*
X0251425Y0299470D02*
X0250674Y0298719D01*
X0249173Y0298719D01*
X0248422Y0299470D01*
X0256593Y0312845D02*
X0258093Y0314595D01*
X0256593Y0316345D01*
X0256593Y0312845D01*
X0258093Y0312845D02*
X0258093Y0316345D01*
X0270261Y0319107D02*
X0270261Y0320083D01*
X0272507Y0328237D02*
X0274007Y0328237D01*
X0279007Y0329737D02*
X0279007Y0333237D01*
X0276007Y0333237D01*
X0270507Y0333237D02*
X0267507Y0333237D01*
X0267507Y0329737D01*
X0267346Y0293487D02*
X0266596Y0292736D01*
X0266596Y0289734D01*
X0267346Y0288983D01*
X0268848Y0288983D01*
X0269598Y0289734D01*
X0271200Y0289734D02*
X0271950Y0288983D01*
X0273452Y0288983D01*
X0274202Y0289734D01*
X0274202Y0290484D01*
X0273452Y0291235D01*
X0272701Y0291235D01*
X0273452Y0291235D02*
X0274202Y0291986D01*
X0274202Y0292736D01*
X0273452Y0293487D01*
X0271950Y0293487D01*
X0271200Y0292736D01*
X0269598Y0292736D02*
X0268848Y0293487D01*
X0267346Y0293487D01*
X0265028Y0293487D02*
X0263526Y0293487D01*
X0264277Y0293487D02*
X0264277Y0288983D01*
X0263526Y0288983D02*
X0265028Y0288983D01*
X0298609Y0282450D02*
X0298609Y0278950D01*
X0298609Y0282450D02*
X0301609Y0282450D01*
X0307109Y0282450D02*
X0310109Y0282450D01*
X0310109Y0278950D01*
X0305109Y0277450D02*
X0303609Y0277450D01*
X0303044Y0254162D02*
X0303044Y0253351D01*
X0303044Y0241564D01*
X0273103Y0241564D01*
X0273103Y0243351D01*
X0273103Y0254162D01*
X0303044Y0254162D01*
X0303044Y0253351D02*
X0303044Y0253125D01*
X0286770Y0249613D02*
X0286770Y0246113D01*
X0285270Y0247863D01*
X0286770Y0249613D01*
X0285270Y0249613D02*
X0285270Y0246113D01*
X0273103Y0243351D02*
X0273103Y0242375D01*
X0257747Y0230284D02*
X0257747Y0226784D01*
X0257747Y0230284D02*
X0254747Y0230284D01*
X0252747Y0225284D02*
X0251247Y0225284D01*
X0249247Y0230284D02*
X0246247Y0230284D01*
X0246247Y0226784D01*
X0248316Y0237835D02*
X0253316Y0237835D01*
X0253316Y0248835D01*
X0248316Y0248835D01*
X0248316Y0237835D01*
X0242339Y0247135D02*
X0242339Y0252135D01*
X0231339Y0252135D01*
X0231339Y0247135D01*
X0242339Y0247135D01*
X0220442Y0248442D02*
X0220442Y0237442D01*
X0215442Y0237442D01*
X0215442Y0248442D01*
X0220442Y0248442D01*
X0256564Y0210698D02*
X0256564Y0189438D01*
X0241997Y0189438D01*
X0241997Y0181564D01*
X0221524Y0181564D01*
X0213257Y0201249D01*
X0181513Y0201190D02*
X0181513Y0196190D01*
X0170513Y0196190D01*
X0170513Y0201190D01*
X0181513Y0201190D01*
X0182103Y0191111D02*
X0182103Y0186111D01*
X0171103Y0186111D01*
X0171103Y0191111D01*
X0182103Y0191111D01*
X0182300Y0180993D02*
X0171300Y0180993D01*
X0171300Y0175993D01*
X0182300Y0175993D01*
X0182300Y0180993D01*
X0167262Y0146888D02*
X0165761Y0145387D01*
X0164160Y0146138D02*
X0161157Y0143135D01*
X0161157Y0142385D01*
X0164160Y0142385D01*
X0165761Y0142385D02*
X0168764Y0142385D01*
X0167262Y0142385D02*
X0167262Y0146888D01*
X0164160Y0146888D02*
X0164160Y0146138D01*
X0164160Y0146888D02*
X0161157Y0146888D01*
X0159556Y0146888D02*
X0159556Y0146138D01*
X0156553Y0143135D01*
X0156553Y0142385D01*
X0159556Y0142385D01*
X0159556Y0146888D02*
X0156553Y0146888D01*
X0154952Y0146888D02*
X0154952Y0143135D01*
X0154201Y0142385D01*
X0152700Y0142385D01*
X0151949Y0143135D01*
X0151949Y0146888D01*
X0150348Y0146138D02*
X0150348Y0145387D01*
X0149597Y0144637D01*
X0147345Y0144637D01*
X0147345Y0146888D02*
X0147345Y0142385D01*
X0149597Y0142385D01*
X0150348Y0143135D01*
X0150348Y0143886D01*
X0149597Y0144637D01*
X0150348Y0146138D02*
X0149597Y0146888D01*
X0147345Y0146888D01*
X0141993Y0153887D02*
X0112052Y0153887D01*
X0112052Y0154698D01*
X0112052Y0166485D01*
X0141993Y0166485D01*
X0141993Y0164698D01*
X0141993Y0153887D01*
X0141993Y0164698D02*
X0141993Y0165674D01*
X0129826Y0161936D02*
X0129826Y0158436D01*
X0128326Y0158436D02*
X0129826Y0160186D01*
X0128326Y0161936D01*
X0128326Y0158436D01*
X0112052Y0154924D02*
X0112052Y0154698D01*
X0085265Y0132706D02*
X0085265Y0109083D01*
X0059280Y0109083D01*
X0059280Y0132706D01*
X0085265Y0132706D01*
X0068335Y0120894D02*
X0068337Y0121019D01*
X0068343Y0121144D01*
X0068353Y0121268D01*
X0068367Y0121392D01*
X0068384Y0121516D01*
X0068406Y0121639D01*
X0068432Y0121761D01*
X0068461Y0121883D01*
X0068494Y0122003D01*
X0068532Y0122122D01*
X0068572Y0122241D01*
X0068617Y0122357D01*
X0068665Y0122472D01*
X0068717Y0122586D01*
X0068773Y0122698D01*
X0068832Y0122808D01*
X0068894Y0122916D01*
X0068960Y0123023D01*
X0069029Y0123127D01*
X0069102Y0123228D01*
X0069177Y0123328D01*
X0069256Y0123425D01*
X0069338Y0123519D01*
X0069423Y0123611D01*
X0069510Y0123700D01*
X0069601Y0123786D01*
X0069694Y0123869D01*
X0069790Y0123950D01*
X0069888Y0124027D01*
X0069988Y0124101D01*
X0070091Y0124172D01*
X0070196Y0124239D01*
X0070304Y0124304D01*
X0070413Y0124364D01*
X0070524Y0124422D01*
X0070637Y0124475D01*
X0070751Y0124525D01*
X0070867Y0124572D01*
X0070984Y0124614D01*
X0071103Y0124653D01*
X0071223Y0124689D01*
X0071344Y0124720D01*
X0071466Y0124748D01*
X0071588Y0124771D01*
X0071712Y0124791D01*
X0071836Y0124807D01*
X0071960Y0124819D01*
X0072085Y0124827D01*
X0072210Y0124831D01*
X0072334Y0124831D01*
X0072459Y0124827D01*
X0072584Y0124819D01*
X0072708Y0124807D01*
X0072832Y0124791D01*
X0072956Y0124771D01*
X0073078Y0124748D01*
X0073200Y0124720D01*
X0073321Y0124689D01*
X0073441Y0124653D01*
X0073560Y0124614D01*
X0073677Y0124572D01*
X0073793Y0124525D01*
X0073907Y0124475D01*
X0074020Y0124422D01*
X0074131Y0124364D01*
X0074241Y0124304D01*
X0074348Y0124239D01*
X0074453Y0124172D01*
X0074556Y0124101D01*
X0074656Y0124027D01*
X0074754Y0123950D01*
X0074850Y0123869D01*
X0074943Y0123786D01*
X0075034Y0123700D01*
X0075121Y0123611D01*
X0075206Y0123519D01*
X0075288Y0123425D01*
X0075367Y0123328D01*
X0075442Y0123228D01*
X0075515Y0123127D01*
X0075584Y0123023D01*
X0075650Y0122916D01*
X0075712Y0122808D01*
X0075771Y0122698D01*
X0075827Y0122586D01*
X0075879Y0122472D01*
X0075927Y0122357D01*
X0075972Y0122241D01*
X0076012Y0122122D01*
X0076050Y0122003D01*
X0076083Y0121883D01*
X0076112Y0121761D01*
X0076138Y0121639D01*
X0076160Y0121516D01*
X0076177Y0121392D01*
X0076191Y0121268D01*
X0076201Y0121144D01*
X0076207Y0121019D01*
X0076209Y0120894D01*
X0076207Y0120769D01*
X0076201Y0120644D01*
X0076191Y0120520D01*
X0076177Y0120396D01*
X0076160Y0120272D01*
X0076138Y0120149D01*
X0076112Y0120027D01*
X0076083Y0119905D01*
X0076050Y0119785D01*
X0076012Y0119666D01*
X0075972Y0119547D01*
X0075927Y0119431D01*
X0075879Y0119316D01*
X0075827Y0119202D01*
X0075771Y0119090D01*
X0075712Y0118980D01*
X0075650Y0118872D01*
X0075584Y0118765D01*
X0075515Y0118661D01*
X0075442Y0118560D01*
X0075367Y0118460D01*
X0075288Y0118363D01*
X0075206Y0118269D01*
X0075121Y0118177D01*
X0075034Y0118088D01*
X0074943Y0118002D01*
X0074850Y0117919D01*
X0074754Y0117838D01*
X0074656Y0117761D01*
X0074556Y0117687D01*
X0074453Y0117616D01*
X0074348Y0117549D01*
X0074240Y0117484D01*
X0074131Y0117424D01*
X0074020Y0117366D01*
X0073907Y0117313D01*
X0073793Y0117263D01*
X0073677Y0117216D01*
X0073560Y0117174D01*
X0073441Y0117135D01*
X0073321Y0117099D01*
X0073200Y0117068D01*
X0073078Y0117040D01*
X0072956Y0117017D01*
X0072832Y0116997D01*
X0072708Y0116981D01*
X0072584Y0116969D01*
X0072459Y0116961D01*
X0072334Y0116957D01*
X0072210Y0116957D01*
X0072085Y0116961D01*
X0071960Y0116969D01*
X0071836Y0116981D01*
X0071712Y0116997D01*
X0071588Y0117017D01*
X0071466Y0117040D01*
X0071344Y0117068D01*
X0071223Y0117099D01*
X0071103Y0117135D01*
X0070984Y0117174D01*
X0070867Y0117216D01*
X0070751Y0117263D01*
X0070637Y0117313D01*
X0070524Y0117366D01*
X0070413Y0117424D01*
X0070303Y0117484D01*
X0070196Y0117549D01*
X0070091Y0117616D01*
X0069988Y0117687D01*
X0069888Y0117761D01*
X0069790Y0117838D01*
X0069694Y0117919D01*
X0069601Y0118002D01*
X0069510Y0118088D01*
X0069423Y0118177D01*
X0069338Y0118269D01*
X0069256Y0118363D01*
X0069177Y0118460D01*
X0069102Y0118560D01*
X0069029Y0118661D01*
X0068960Y0118765D01*
X0068894Y0118872D01*
X0068832Y0118980D01*
X0068773Y0119090D01*
X0068717Y0119202D01*
X0068665Y0119316D01*
X0068617Y0119431D01*
X0068572Y0119547D01*
X0068532Y0119666D01*
X0068494Y0119785D01*
X0068461Y0119905D01*
X0068432Y0120027D01*
X0068406Y0120149D01*
X0068384Y0120272D01*
X0068367Y0120396D01*
X0068353Y0120520D01*
X0068343Y0120644D01*
X0068337Y0120769D01*
X0068335Y0120894D01*
X0066353Y0120894D02*
X0066355Y0121048D01*
X0066361Y0121201D01*
X0066371Y0121355D01*
X0066385Y0121508D01*
X0066403Y0121660D01*
X0066425Y0121812D01*
X0066450Y0121964D01*
X0066480Y0122115D01*
X0066514Y0122265D01*
X0066551Y0122414D01*
X0066593Y0122562D01*
X0066638Y0122708D01*
X0066687Y0122854D01*
X0066740Y0122998D01*
X0066796Y0123141D01*
X0066856Y0123283D01*
X0066920Y0123423D01*
X0066988Y0123561D01*
X0067059Y0123697D01*
X0067133Y0123831D01*
X0067211Y0123964D01*
X0067293Y0124094D01*
X0067377Y0124222D01*
X0067465Y0124348D01*
X0067557Y0124472D01*
X0067651Y0124593D01*
X0067749Y0124712D01*
X0067849Y0124828D01*
X0067953Y0124941D01*
X0068060Y0125052D01*
X0068169Y0125160D01*
X0068281Y0125265D01*
X0068396Y0125367D01*
X0068513Y0125466D01*
X0068633Y0125562D01*
X0068756Y0125655D01*
X0068880Y0125745D01*
X0069008Y0125831D01*
X0069137Y0125915D01*
X0069268Y0125994D01*
X0069402Y0126070D01*
X0069537Y0126143D01*
X0069674Y0126212D01*
X0069813Y0126278D01*
X0069954Y0126340D01*
X0070096Y0126398D01*
X0070240Y0126453D01*
X0070385Y0126504D01*
X0070531Y0126551D01*
X0070678Y0126594D01*
X0070827Y0126634D01*
X0070976Y0126669D01*
X0071127Y0126701D01*
X0071278Y0126729D01*
X0071430Y0126753D01*
X0071582Y0126773D01*
X0071735Y0126789D01*
X0071888Y0126801D01*
X0072042Y0126809D01*
X0072195Y0126813D01*
X0072349Y0126813D01*
X0072502Y0126809D01*
X0072656Y0126801D01*
X0072809Y0126789D01*
X0072962Y0126773D01*
X0073114Y0126753D01*
X0073266Y0126729D01*
X0073417Y0126701D01*
X0073568Y0126669D01*
X0073717Y0126634D01*
X0073866Y0126594D01*
X0074013Y0126551D01*
X0074159Y0126504D01*
X0074304Y0126453D01*
X0074448Y0126398D01*
X0074590Y0126340D01*
X0074731Y0126278D01*
X0074870Y0126212D01*
X0075007Y0126143D01*
X0075142Y0126070D01*
X0075276Y0125994D01*
X0075407Y0125915D01*
X0075536Y0125831D01*
X0075664Y0125745D01*
X0075788Y0125655D01*
X0075911Y0125562D01*
X0076031Y0125466D01*
X0076148Y0125367D01*
X0076263Y0125265D01*
X0076375Y0125160D01*
X0076484Y0125052D01*
X0076591Y0124941D01*
X0076695Y0124828D01*
X0076795Y0124712D01*
X0076893Y0124593D01*
X0076987Y0124472D01*
X0077079Y0124348D01*
X0077167Y0124222D01*
X0077251Y0124094D01*
X0077333Y0123964D01*
X0077411Y0123831D01*
X0077485Y0123697D01*
X0077556Y0123561D01*
X0077624Y0123423D01*
X0077688Y0123283D01*
X0077748Y0123141D01*
X0077804Y0122998D01*
X0077857Y0122854D01*
X0077906Y0122708D01*
X0077951Y0122562D01*
X0077993Y0122414D01*
X0078030Y0122265D01*
X0078064Y0122115D01*
X0078094Y0121964D01*
X0078119Y0121812D01*
X0078141Y0121660D01*
X0078159Y0121508D01*
X0078173Y0121355D01*
X0078183Y0121201D01*
X0078189Y0121048D01*
X0078191Y0120894D01*
X0078189Y0120740D01*
X0078183Y0120587D01*
X0078173Y0120433D01*
X0078159Y0120280D01*
X0078141Y0120128D01*
X0078119Y0119976D01*
X0078094Y0119824D01*
X0078064Y0119673D01*
X0078030Y0119523D01*
X0077993Y0119374D01*
X0077951Y0119226D01*
X0077906Y0119080D01*
X0077857Y0118934D01*
X0077804Y0118790D01*
X0077748Y0118647D01*
X0077688Y0118505D01*
X0077624Y0118365D01*
X0077556Y0118227D01*
X0077485Y0118091D01*
X0077411Y0117957D01*
X0077333Y0117824D01*
X0077251Y0117694D01*
X0077167Y0117566D01*
X0077079Y0117440D01*
X0076987Y0117316D01*
X0076893Y0117195D01*
X0076795Y0117076D01*
X0076695Y0116960D01*
X0076591Y0116847D01*
X0076484Y0116736D01*
X0076375Y0116628D01*
X0076263Y0116523D01*
X0076148Y0116421D01*
X0076031Y0116322D01*
X0075911Y0116226D01*
X0075788Y0116133D01*
X0075664Y0116043D01*
X0075536Y0115957D01*
X0075407Y0115873D01*
X0075276Y0115794D01*
X0075142Y0115718D01*
X0075007Y0115645D01*
X0074870Y0115576D01*
X0074731Y0115510D01*
X0074590Y0115448D01*
X0074448Y0115390D01*
X0074304Y0115335D01*
X0074159Y0115284D01*
X0074013Y0115237D01*
X0073866Y0115194D01*
X0073717Y0115154D01*
X0073568Y0115119D01*
X0073417Y0115087D01*
X0073266Y0115059D01*
X0073114Y0115035D01*
X0072962Y0115015D01*
X0072809Y0114999D01*
X0072656Y0114987D01*
X0072502Y0114979D01*
X0072349Y0114975D01*
X0072195Y0114975D01*
X0072042Y0114979D01*
X0071888Y0114987D01*
X0071735Y0114999D01*
X0071582Y0115015D01*
X0071430Y0115035D01*
X0071278Y0115059D01*
X0071127Y0115087D01*
X0070976Y0115119D01*
X0070827Y0115154D01*
X0070678Y0115194D01*
X0070531Y0115237D01*
X0070385Y0115284D01*
X0070240Y0115335D01*
X0070096Y0115390D01*
X0069954Y0115448D01*
X0069813Y0115510D01*
X0069674Y0115576D01*
X0069537Y0115645D01*
X0069402Y0115718D01*
X0069268Y0115794D01*
X0069137Y0115873D01*
X0069008Y0115957D01*
X0068880Y0116043D01*
X0068756Y0116133D01*
X0068633Y0116226D01*
X0068513Y0116322D01*
X0068396Y0116421D01*
X0068281Y0116523D01*
X0068169Y0116628D01*
X0068060Y0116736D01*
X0067953Y0116847D01*
X0067849Y0116960D01*
X0067749Y0117076D01*
X0067651Y0117195D01*
X0067557Y0117316D01*
X0067465Y0117440D01*
X0067377Y0117566D01*
X0067293Y0117694D01*
X0067211Y0117824D01*
X0067133Y0117957D01*
X0067059Y0118091D01*
X0066988Y0118227D01*
X0066920Y0118365D01*
X0066856Y0118505D01*
X0066796Y0118647D01*
X0066740Y0118790D01*
X0066687Y0118934D01*
X0066638Y0119080D01*
X0066593Y0119226D01*
X0066551Y0119374D01*
X0066514Y0119523D01*
X0066480Y0119673D01*
X0066450Y0119824D01*
X0066425Y0119976D01*
X0066403Y0120128D01*
X0066385Y0120280D01*
X0066371Y0120433D01*
X0066361Y0120587D01*
X0066355Y0120740D01*
X0066353Y0120894D01*
X0046780Y0117143D02*
X0046780Y0106143D01*
X0041780Y0106143D01*
X0041780Y0117143D01*
X0046780Y0117143D01*
X0018051Y0130217D02*
X0017300Y0129467D01*
X0018051Y0130217D02*
X0018051Y0130968D01*
X0017300Y0131718D01*
X0013547Y0131718D01*
X0013547Y0130968D02*
X0013547Y0132469D01*
X0013547Y0134070D02*
X0013547Y0136322D01*
X0014298Y0137073D01*
X0015799Y0137073D01*
X0016550Y0136322D01*
X0016550Y0134070D01*
X0018051Y0134070D02*
X0013547Y0134070D01*
X0015048Y0138674D02*
X0013547Y0140176D01*
X0018051Y0140176D01*
X0018051Y0141677D02*
X0018051Y0138674D01*
X0056387Y0157744D02*
X0084536Y0157744D01*
X0084536Y0175068D01*
X0056387Y0175068D01*
X0056387Y0157744D01*
X0057764Y0159122D02*
X0057766Y0159149D01*
X0057772Y0159176D01*
X0057781Y0159202D01*
X0057794Y0159226D01*
X0057810Y0159249D01*
X0057829Y0159268D01*
X0057851Y0159285D01*
X0057875Y0159299D01*
X0057900Y0159309D01*
X0057927Y0159316D01*
X0057954Y0159319D01*
X0057982Y0159318D01*
X0058009Y0159313D01*
X0058035Y0159305D01*
X0058059Y0159293D01*
X0058082Y0159277D01*
X0058103Y0159259D01*
X0058120Y0159238D01*
X0058135Y0159214D01*
X0058146Y0159189D01*
X0058154Y0159163D01*
X0058158Y0159136D01*
X0058158Y0159108D01*
X0058154Y0159081D01*
X0058146Y0159055D01*
X0058135Y0159030D01*
X0058120Y0159006D01*
X0058103Y0158985D01*
X0058082Y0158967D01*
X0058060Y0158951D01*
X0058035Y0158939D01*
X0058009Y0158931D01*
X0057982Y0158926D01*
X0057954Y0158925D01*
X0057927Y0158928D01*
X0057900Y0158935D01*
X0057875Y0158945D01*
X0057851Y0158959D01*
X0057829Y0158976D01*
X0057810Y0158995D01*
X0057794Y0159018D01*
X0057781Y0159042D01*
X0057772Y0159068D01*
X0057766Y0159095D01*
X0057764Y0159122D01*
X0056013Y0185304D02*
X0056013Y0192391D01*
X0069398Y0192391D01*
X0069398Y0185304D01*
X0056013Y0185304D01*
X0055560Y0194843D02*
X0055560Y0205843D01*
X0060560Y0205843D01*
X0060560Y0194843D01*
X0055560Y0194843D01*
X0064615Y0194961D02*
X0064615Y0205961D01*
X0069615Y0205961D01*
X0069615Y0194961D01*
X0064615Y0194961D01*
X0072292Y0208544D02*
X0072292Y0219544D01*
X0077292Y0219544D01*
X0077292Y0208544D01*
X0072292Y0208544D01*
X0076509Y0248286D02*
X0078011Y0248286D01*
X0078761Y0249037D01*
X0080363Y0248286D02*
X0083365Y0248286D01*
X0081864Y0248286D02*
X0081864Y0252790D01*
X0080363Y0251289D01*
X0078761Y0252039D02*
X0078011Y0252790D01*
X0076509Y0252790D01*
X0075759Y0252039D01*
X0075759Y0249037D01*
X0076509Y0248286D01*
X0093261Y0253272D02*
X0093261Y0261272D01*
X0073414Y0276209D02*
X0054123Y0276209D01*
X0054123Y0291564D01*
X0073414Y0291564D01*
X0073414Y0276209D01*
X0106721Y0300816D02*
X0135068Y0300816D01*
X0135068Y0314595D01*
X0106721Y0314595D01*
X0106721Y0300816D01*
X0080767Y0313271D02*
X0080767Y0317021D01*
X0076034Y0318213D02*
X0075717Y0317896D01*
X0075083Y0317896D01*
X0074767Y0318213D01*
X0074767Y0318847D02*
X0075400Y0319164D01*
X0075717Y0319164D01*
X0076034Y0318847D01*
X0076034Y0318213D01*
X0074767Y0318847D02*
X0074767Y0319798D01*
X0076034Y0319798D01*
X0073824Y0319481D02*
X0073507Y0319798D01*
X0072557Y0319798D01*
X0072557Y0317896D01*
X0073507Y0317896D01*
X0073824Y0318213D01*
X0073824Y0319481D01*
X0065058Y0316825D02*
X0065058Y0313075D01*
X0060326Y0318017D02*
X0060326Y0318333D01*
X0060009Y0318650D01*
X0059058Y0318650D01*
X0059058Y0318017D01*
X0059375Y0317700D01*
X0060009Y0317700D01*
X0060326Y0318017D01*
X0059692Y0319284D02*
X0059058Y0318650D01*
X0059692Y0319284D02*
X0060326Y0319601D01*
X0058116Y0319284D02*
X0057799Y0319601D01*
X0056848Y0319601D01*
X0056848Y0317700D01*
X0057799Y0317700D01*
X0058116Y0318017D01*
X0058116Y0319284D01*
X0127749Y0262060D02*
X0127749Y0254060D01*
X0163509Y0324873D02*
X0163826Y0324873D01*
X0164143Y0325190D01*
X0164143Y0326774D01*
X0164459Y0326774D02*
X0163826Y0326774D01*
X0165402Y0326141D02*
X0166035Y0326774D01*
X0166035Y0324873D01*
X0165402Y0324873D02*
X0166669Y0324873D01*
X0163509Y0324873D02*
X0163192Y0325190D01*
X0277672Y0220536D02*
X0277672Y0219268D01*
X0278306Y0218634D01*
X0278940Y0219268D01*
X0278940Y0220536D01*
X0279882Y0220536D02*
X0280833Y0220536D01*
X0281150Y0220219D01*
X0281150Y0219585D01*
X0280833Y0219268D01*
X0279882Y0219268D01*
X0279882Y0218634D02*
X0279882Y0220536D01*
X0280516Y0219268D02*
X0281150Y0218634D01*
X0282092Y0218634D02*
X0283360Y0218634D01*
X0282726Y0218634D02*
X0282726Y0220536D01*
X0282092Y0219902D01*
X0256564Y0210698D02*
X0317587Y0210698D01*
X0317587Y0105580D01*
X0256564Y0105580D01*
X0256564Y0126446D01*
X0241997Y0126446D01*
X0241997Y0134320D01*
X0221524Y0134320D01*
X0213257Y0114635D01*
X0213180Y0093472D02*
X0213180Y0090470D01*
X0215432Y0090470D01*
X0214681Y0091971D01*
X0214681Y0092722D01*
X0215432Y0093472D01*
X0216933Y0093472D01*
X0217684Y0092722D01*
X0217684Y0091220D01*
X0216933Y0090470D01*
X0216933Y0088868D02*
X0217684Y0088118D01*
X0217684Y0086616D01*
X0216933Y0085866D01*
X0213931Y0085866D01*
X0213180Y0086616D01*
X0213180Y0088118D01*
X0213931Y0088868D01*
X0213180Y0084298D02*
X0213180Y0082796D01*
X0213180Y0083547D02*
X0217684Y0083547D01*
X0217684Y0082796D02*
X0217684Y0084298D01*
X0225146Y0076977D02*
X0225146Y0091977D01*
X0225331Y0092128D01*
X0225521Y0092274D01*
X0225713Y0092416D01*
X0225909Y0092553D01*
X0226109Y0092684D01*
X0226311Y0092811D01*
X0226517Y0092934D01*
X0226726Y0093050D01*
X0226937Y0093162D01*
X0227151Y0093269D01*
X0227368Y0093370D01*
X0227587Y0093466D01*
X0227808Y0093557D01*
X0228031Y0093642D01*
X0228257Y0093722D01*
X0228484Y0093796D01*
X0228713Y0093864D01*
X0228944Y0093927D01*
X0229176Y0093984D01*
X0229410Y0094036D01*
X0229644Y0094082D01*
X0229880Y0094122D01*
X0230117Y0094156D01*
X0230354Y0094184D01*
X0230592Y0094207D01*
X0230831Y0094224D01*
X0231070Y0094235D01*
X0231309Y0094240D01*
X0231548Y0094239D01*
X0231787Y0094232D01*
X0232025Y0094220D01*
X0232264Y0094201D01*
X0232502Y0094177D01*
X0232739Y0094147D01*
X0232975Y0094111D01*
X0233211Y0094070D01*
X0233445Y0094023D01*
X0233678Y0093969D01*
X0233910Y0093911D01*
X0234140Y0093846D01*
X0234369Y0093776D01*
X0234596Y0093701D01*
X0234821Y0093620D01*
X0235044Y0093533D01*
X0235264Y0093441D01*
X0235483Y0093343D01*
X0235699Y0093241D01*
X0235912Y0093133D01*
X0236123Y0093020D01*
X0236330Y0092901D01*
X0236535Y0092778D01*
X0236737Y0092649D01*
X0236936Y0092516D01*
X0237131Y0092378D01*
X0237323Y0092235D01*
X0237511Y0092088D01*
X0237695Y0091936D01*
X0237876Y0091779D01*
X0238053Y0091618D01*
X0238226Y0091453D01*
X0238395Y0091284D01*
X0238559Y0091110D01*
X0238720Y0090933D01*
X0238876Y0090752D01*
X0239027Y0090567D01*
X0239174Y0090378D01*
X0239316Y0090186D01*
X0239453Y0089990D01*
X0239586Y0089791D01*
X0239714Y0089589D01*
X0239836Y0089384D01*
X0239954Y0089176D01*
X0240067Y0088965D01*
X0240174Y0088751D01*
X0240276Y0088535D01*
X0240373Y0088316D01*
X0240464Y0088095D01*
X0240550Y0087872D01*
X0240630Y0087647D01*
X0240705Y0087420D01*
X0240774Y0087191D01*
X0240838Y0086960D01*
X0240896Y0086728D01*
X0240948Y0086495D01*
X0240995Y0086260D01*
X0241036Y0086025D01*
X0241071Y0085788D01*
X0241100Y0085551D01*
X0241123Y0085313D01*
X0241141Y0085074D01*
X0241152Y0084836D01*
X0241158Y0084597D01*
X0241158Y0084357D01*
X0241152Y0084118D01*
X0241141Y0083880D01*
X0241123Y0083641D01*
X0241100Y0083403D01*
X0241071Y0083166D01*
X0241036Y0082929D01*
X0240995Y0082694D01*
X0240948Y0082459D01*
X0240896Y0082226D01*
X0240838Y0081994D01*
X0240774Y0081763D01*
X0240705Y0081534D01*
X0240630Y0081307D01*
X0240550Y0081082D01*
X0240464Y0080859D01*
X0240373Y0080638D01*
X0240276Y0080419D01*
X0240174Y0080203D01*
X0240067Y0079989D01*
X0239954Y0079778D01*
X0239836Y0079570D01*
X0239714Y0079365D01*
X0239586Y0079163D01*
X0239453Y0078964D01*
X0239316Y0078768D01*
X0239174Y0078576D01*
X0239027Y0078387D01*
X0238876Y0078202D01*
X0238720Y0078021D01*
X0238559Y0077844D01*
X0238395Y0077670D01*
X0238226Y0077501D01*
X0238053Y0077336D01*
X0237876Y0077175D01*
X0237695Y0077018D01*
X0237511Y0076866D01*
X0237323Y0076719D01*
X0237131Y0076576D01*
X0236936Y0076438D01*
X0236737Y0076305D01*
X0236535Y0076176D01*
X0236330Y0076053D01*
X0236123Y0075934D01*
X0235912Y0075821D01*
X0235699Y0075713D01*
X0235483Y0075611D01*
X0235264Y0075513D01*
X0235044Y0075421D01*
X0234821Y0075334D01*
X0234596Y0075253D01*
X0234369Y0075178D01*
X0234140Y0075108D01*
X0233910Y0075043D01*
X0233678Y0074985D01*
X0233445Y0074931D01*
X0233211Y0074884D01*
X0232975Y0074843D01*
X0232739Y0074807D01*
X0232502Y0074777D01*
X0232264Y0074753D01*
X0232025Y0074734D01*
X0231787Y0074722D01*
X0231548Y0074715D01*
X0231309Y0074714D01*
X0231070Y0074719D01*
X0230831Y0074730D01*
X0230592Y0074747D01*
X0230354Y0074770D01*
X0230117Y0074798D01*
X0229880Y0074832D01*
X0229644Y0074872D01*
X0229410Y0074918D01*
X0229176Y0074970D01*
X0228944Y0075027D01*
X0228713Y0075090D01*
X0228484Y0075158D01*
X0228257Y0075232D01*
X0228031Y0075312D01*
X0227808Y0075397D01*
X0227587Y0075488D01*
X0227368Y0075584D01*
X0227151Y0075685D01*
X0226937Y0075792D01*
X0226726Y0075904D01*
X0226517Y0076020D01*
X0226311Y0076143D01*
X0226109Y0076270D01*
X0225909Y0076401D01*
X0225713Y0076538D01*
X0225521Y0076680D01*
X0225331Y0076826D01*
X0225146Y0076977D01*
X0183284Y0114143D02*
X0183284Y0119143D01*
X0172284Y0119143D01*
X0172284Y0114143D01*
X0183284Y0114143D01*
X0183363Y0123080D02*
X0172363Y0123080D01*
X0172363Y0128080D01*
X0183363Y0128080D01*
X0183363Y0123080D01*
X0256564Y0126446D02*
X0256564Y0189438D01*
X0338611Y0059713D02*
X0350422Y0059713D01*
X0350422Y0028217D01*
X0358099Y0028217D01*
X0358296Y0028217D01*
X0366170Y0028217D01*
X0366170Y0059713D01*
X0377981Y0059713D01*
X0377981Y0335304D01*
X0366170Y0335304D01*
X0366170Y0366800D01*
X0350422Y0366800D01*
X0350422Y0335304D01*
X0338611Y0335304D01*
X0338611Y0059713D01*
X0350422Y0059713D02*
X0358296Y0059713D01*
X0366170Y0059713D01*
X0366170Y0335304D02*
X0350422Y0335304D01*
D13*
X0301316Y0290752D02*
X0301316Y0287650D01*
X0300282Y0287650D02*
X0302350Y0287650D01*
X0300282Y0289718D02*
X0301316Y0290752D01*
X0299127Y0290235D02*
X0299127Y0288167D01*
X0298610Y0287650D01*
X0297576Y0287650D01*
X0297059Y0288167D01*
X0297059Y0290235D01*
X0297576Y0290752D01*
X0298610Y0290752D01*
X0299127Y0290235D01*
X0298093Y0288684D02*
X0299127Y0287650D01*
X0271248Y0338437D02*
X0269179Y0338437D01*
X0271248Y0340505D01*
X0271248Y0341023D01*
X0270731Y0341540D01*
X0269697Y0341540D01*
X0269179Y0341023D01*
X0268025Y0341023D02*
X0268025Y0338954D01*
X0267508Y0338437D01*
X0266474Y0338437D01*
X0265957Y0338954D01*
X0265957Y0341023D01*
X0266474Y0341540D01*
X0267508Y0341540D01*
X0268025Y0341023D01*
X0266991Y0339471D02*
X0268025Y0338437D01*
X0247116Y0247049D02*
X0247116Y0244981D01*
X0245047Y0247049D01*
X0244530Y0247049D01*
X0244013Y0246532D01*
X0244013Y0245498D01*
X0244530Y0244981D01*
X0244013Y0242792D02*
X0247116Y0242792D01*
X0247116Y0241758D02*
X0247116Y0243827D01*
X0245047Y0241758D02*
X0244013Y0242792D01*
X0244530Y0240604D02*
X0244013Y0240087D01*
X0244013Y0239053D01*
X0244530Y0238535D01*
X0246599Y0238535D01*
X0247116Y0239053D01*
X0247116Y0240087D01*
X0246599Y0240604D01*
X0246248Y0238587D02*
X0246765Y0238070D01*
X0246765Y0236001D01*
X0246248Y0235484D01*
X0245214Y0235484D01*
X0244697Y0236001D01*
X0244697Y0238070D01*
X0245214Y0238587D01*
X0246248Y0238587D01*
X0247920Y0238070D02*
X0248437Y0238587D01*
X0249471Y0238587D01*
X0249988Y0238070D01*
X0249988Y0237553D01*
X0249471Y0237036D01*
X0249988Y0236518D01*
X0249988Y0236001D01*
X0249471Y0235484D01*
X0248437Y0235484D01*
X0247920Y0236001D01*
X0246765Y0235484D02*
X0245731Y0236518D01*
X0248954Y0237036D02*
X0249471Y0237036D01*
X0240885Y0242835D02*
X0238817Y0242835D01*
X0239851Y0242835D02*
X0239851Y0245937D01*
X0238817Y0244903D01*
X0237662Y0242835D02*
X0235594Y0242835D01*
X0236628Y0242835D02*
X0236628Y0245937D01*
X0235594Y0244903D01*
X0234440Y0245420D02*
X0233922Y0245937D01*
X0232888Y0245937D01*
X0232371Y0245420D01*
X0232371Y0243352D01*
X0232888Y0242835D01*
X0233922Y0242835D01*
X0234440Y0243352D01*
X0224742Y0243765D02*
X0224742Y0241696D01*
X0224742Y0242730D02*
X0221639Y0242730D01*
X0222673Y0241696D01*
X0222156Y0240542D02*
X0221639Y0240025D01*
X0221639Y0238991D01*
X0222156Y0238473D01*
X0224225Y0238473D01*
X0224742Y0238991D01*
X0224742Y0240025D01*
X0224225Y0240542D01*
X0224225Y0244919D02*
X0222156Y0246987D01*
X0224225Y0246987D01*
X0224742Y0246470D01*
X0224742Y0245436D01*
X0224225Y0244919D01*
X0222156Y0244919D01*
X0221639Y0245436D01*
X0221639Y0246470D01*
X0222156Y0246987D01*
X0176504Y0205492D02*
X0175470Y0204975D01*
X0174435Y0203941D01*
X0175987Y0203941D01*
X0176504Y0203424D01*
X0176504Y0202907D01*
X0175987Y0202390D01*
X0174952Y0202390D01*
X0174435Y0202907D01*
X0174435Y0203941D01*
X0173281Y0202907D02*
X0172764Y0202390D01*
X0171730Y0202390D01*
X0171213Y0202907D01*
X0171213Y0204975D01*
X0171730Y0205492D01*
X0172764Y0205492D01*
X0173281Y0204975D01*
X0173354Y0195414D02*
X0172320Y0195414D01*
X0171803Y0194897D01*
X0171803Y0192828D01*
X0172320Y0192311D01*
X0173354Y0192311D01*
X0173872Y0192828D01*
X0175026Y0192828D02*
X0175543Y0192311D01*
X0176577Y0192311D01*
X0177094Y0192828D01*
X0177094Y0193345D01*
X0176577Y0193862D01*
X0176060Y0193862D01*
X0176577Y0193862D02*
X0177094Y0194379D01*
X0177094Y0194897D01*
X0176577Y0195414D01*
X0175543Y0195414D01*
X0175026Y0194897D01*
X0173872Y0194897D02*
X0173354Y0195414D01*
X0178249Y0193862D02*
X0179800Y0193862D01*
X0180317Y0193345D01*
X0180317Y0192828D01*
X0179800Y0192311D01*
X0178766Y0192311D01*
X0178249Y0192828D01*
X0178249Y0193862D01*
X0179283Y0194897D01*
X0180317Y0195414D01*
X0180846Y0174796D02*
X0180846Y0174278D01*
X0178777Y0172210D01*
X0178777Y0171693D01*
X0177623Y0172210D02*
X0177106Y0171693D01*
X0176072Y0171693D01*
X0175555Y0172210D01*
X0175555Y0174278D01*
X0176072Y0174796D01*
X0177106Y0174796D01*
X0177623Y0174278D01*
X0178777Y0174796D02*
X0180846Y0174796D01*
X0181498Y0123445D02*
X0179430Y0123445D01*
X0178275Y0122928D02*
X0178275Y0122411D01*
X0177758Y0121894D01*
X0178275Y0121377D01*
X0178275Y0120860D01*
X0177758Y0120343D01*
X0176724Y0120343D01*
X0176207Y0120860D01*
X0176617Y0121365D02*
X0176617Y0119297D01*
X0177135Y0118780D01*
X0178169Y0118780D01*
X0178686Y0119297D01*
X0179840Y0119297D02*
X0180357Y0118780D01*
X0181392Y0118780D01*
X0181909Y0119297D01*
X0181909Y0120331D01*
X0181392Y0120848D01*
X0180874Y0120848D01*
X0179840Y0120331D01*
X0179840Y0121882D01*
X0181909Y0121882D01*
X0181498Y0122928D02*
X0179430Y0120860D01*
X0179430Y0120343D01*
X0178686Y0121365D02*
X0178169Y0121882D01*
X0177135Y0121882D01*
X0176617Y0121365D01*
X0177241Y0121894D02*
X0177758Y0121894D01*
X0178275Y0122928D02*
X0177758Y0123445D01*
X0176724Y0123445D01*
X0176207Y0122928D01*
X0175053Y0122928D02*
X0174536Y0123445D01*
X0173501Y0123445D01*
X0172984Y0122928D01*
X0172984Y0120860D01*
X0173501Y0120343D01*
X0174536Y0120343D01*
X0175053Y0120860D01*
X0181498Y0122928D02*
X0181498Y0123445D01*
X0242344Y0090506D02*
X0242344Y0089472D01*
X0242861Y0088954D01*
X0242344Y0087800D02*
X0244929Y0087800D01*
X0245446Y0087283D01*
X0245446Y0086249D01*
X0244929Y0085732D01*
X0242344Y0085732D01*
X0245446Y0088954D02*
X0243378Y0091023D01*
X0242861Y0091023D01*
X0242344Y0090506D01*
X0245446Y0091023D02*
X0245446Y0088954D01*
X0356524Y0175774D02*
X0356524Y0177308D01*
X0356524Y0176541D02*
X0360360Y0176541D01*
X0361128Y0175774D01*
X0361128Y0175006D01*
X0360360Y0174239D01*
X0360360Y0178843D02*
X0361128Y0179610D01*
X0361128Y0181145D01*
X0360360Y0181912D01*
X0359593Y0181912D01*
X0358826Y0181145D01*
X0358826Y0180378D01*
X0358826Y0181145D02*
X0358058Y0181912D01*
X0357291Y0181912D01*
X0356524Y0181145D01*
X0356524Y0179610D01*
X0357291Y0178843D01*
X0357291Y0183447D02*
X0356524Y0184214D01*
X0356524Y0185749D01*
X0357291Y0186516D01*
X0358058Y0186516D01*
X0361128Y0183447D01*
X0361128Y0186516D01*
X0361128Y0188051D02*
X0361128Y0191120D01*
X0361128Y0189585D02*
X0356524Y0189585D01*
X0358058Y0188051D01*
X0357291Y0192655D02*
X0361895Y0192655D01*
X0360360Y0192655D02*
X0360360Y0194957D01*
X0359593Y0195724D01*
X0358826Y0194957D01*
X0358058Y0195724D01*
X0357291Y0194957D01*
X0357291Y0192655D01*
X0358826Y0194189D02*
X0358826Y0194957D01*
X0358826Y0197259D02*
X0358058Y0198026D01*
X0358058Y0198793D01*
X0358826Y0199561D01*
X0361895Y0199561D01*
X0359593Y0199561D02*
X0358058Y0201095D01*
X0358826Y0197259D02*
X0359593Y0197259D01*
X0122151Y0186978D02*
X0122151Y0183909D01*
X0121384Y0183142D01*
X0119082Y0183142D01*
X0119082Y0187746D01*
X0121384Y0187746D01*
X0122151Y0186978D01*
X0117547Y0187746D02*
X0114478Y0187746D01*
X0114478Y0183142D01*
X0117547Y0183142D01*
X0116013Y0185444D02*
X0114478Y0185444D01*
X0112943Y0183142D02*
X0109874Y0183142D01*
X0109874Y0187746D01*
X0101918Y0173002D02*
X0100383Y0173002D01*
X0099616Y0172234D01*
X0098081Y0173002D02*
X0095012Y0173002D01*
X0096546Y0173002D02*
X0096546Y0168398D01*
X0099616Y0168398D02*
X0102685Y0171467D01*
X0102685Y0172234D01*
X0101918Y0173002D01*
X0102685Y0168398D02*
X0099616Y0168398D01*
X0069889Y0169166D02*
X0066819Y0169166D01*
X0069889Y0172235D01*
X0069889Y0173002D01*
X0069121Y0173770D01*
X0067587Y0173770D01*
X0066819Y0173002D01*
X0065285Y0173002D02*
X0064517Y0173770D01*
X0062983Y0173770D01*
X0062215Y0173002D01*
X0062215Y0169933D01*
X0062983Y0169166D01*
X0064517Y0169166D01*
X0065285Y0169933D01*
X0060681Y0169166D02*
X0059146Y0169166D01*
X0059913Y0169166D02*
X0059913Y0173770D01*
X0059146Y0173770D02*
X0060681Y0173770D01*
X0062274Y0195875D02*
X0064343Y0195875D01*
X0064860Y0196392D01*
X0064860Y0197426D01*
X0064343Y0197943D01*
X0064860Y0199098D02*
X0062791Y0201166D01*
X0062274Y0201166D01*
X0061757Y0200649D01*
X0061757Y0199615D01*
X0062274Y0199098D01*
X0062274Y0197943D02*
X0061757Y0197426D01*
X0061757Y0196392D01*
X0062274Y0195875D01*
X0064860Y0199098D02*
X0064860Y0201166D01*
X0064860Y0202321D02*
X0064860Y0204389D01*
X0064860Y0203355D02*
X0061757Y0203355D01*
X0062791Y0202321D01*
X0070812Y0202956D02*
X0070812Y0203990D01*
X0071329Y0204507D01*
X0073398Y0202439D01*
X0073915Y0202956D01*
X0073915Y0203990D01*
X0073398Y0204507D01*
X0071329Y0204507D01*
X0070812Y0202956D02*
X0071329Y0202439D01*
X0073398Y0202439D01*
X0073915Y0201284D02*
X0073915Y0199216D01*
X0071847Y0201284D01*
X0071329Y0201284D01*
X0070812Y0200767D01*
X0070812Y0199733D01*
X0071329Y0199216D01*
X0071329Y0198062D02*
X0070812Y0197544D01*
X0070812Y0196510D01*
X0071329Y0195993D01*
X0073398Y0195993D01*
X0073915Y0196510D01*
X0073915Y0197544D01*
X0073398Y0198062D01*
X0079007Y0209576D02*
X0081075Y0209576D01*
X0081592Y0210093D01*
X0081592Y0211127D01*
X0081075Y0211644D01*
X0081592Y0212799D02*
X0079524Y0214867D01*
X0079007Y0214867D01*
X0078489Y0214350D01*
X0078489Y0213316D01*
X0079007Y0212799D01*
X0079007Y0211644D02*
X0078489Y0211127D01*
X0078489Y0210093D01*
X0079007Y0209576D01*
X0081592Y0212799D02*
X0081592Y0214867D01*
X0081592Y0216021D02*
X0079524Y0218090D01*
X0079007Y0218090D01*
X0078489Y0217573D01*
X0078489Y0216538D01*
X0079007Y0216021D01*
X0081592Y0216021D02*
X0081592Y0218090D01*
X0080126Y0271744D02*
X0080126Y0274813D01*
X0080126Y0273279D02*
X0084730Y0273279D01*
X0084730Y0276348D02*
X0084730Y0279417D01*
X0084730Y0277883D02*
X0080126Y0277883D01*
X0081661Y0276348D01*
X0067636Y0295787D02*
X0068237Y0296388D01*
X0068237Y0296988D01*
X0067636Y0297589D01*
X0065835Y0297589D01*
X0065835Y0296388D01*
X0066435Y0295787D01*
X0067636Y0295787D01*
X0065835Y0297589D02*
X0067036Y0298790D01*
X0068237Y0299390D01*
X0064554Y0298790D02*
X0063953Y0299390D01*
X0062752Y0299390D01*
X0062152Y0298790D01*
X0062152Y0298189D01*
X0062752Y0297589D01*
X0063953Y0297589D01*
X0064554Y0296988D01*
X0064554Y0296388D01*
X0063953Y0295787D01*
X0062752Y0295787D01*
X0062152Y0296388D01*
X0060871Y0296388D02*
X0060871Y0299390D01*
X0058469Y0299390D02*
X0058469Y0296388D01*
X0059069Y0295787D01*
X0060270Y0295787D01*
X0060871Y0296388D01*
X0063353Y0295187D02*
X0063353Y0299991D01*
X0102592Y0300923D02*
X0103109Y0300406D01*
X0103626Y0300406D01*
X0104143Y0300923D01*
X0104143Y0301957D01*
X0104660Y0302474D01*
X0105177Y0302474D01*
X0105694Y0301957D01*
X0105694Y0300923D01*
X0105177Y0300406D01*
X0102592Y0300923D02*
X0102592Y0301957D01*
X0103109Y0302474D01*
X0102592Y0303628D02*
X0105694Y0303628D01*
X0104660Y0304662D01*
X0105694Y0305697D01*
X0102592Y0305697D01*
X0103626Y0306851D02*
X0102592Y0307885D01*
X0105694Y0307885D01*
X0105694Y0306851D02*
X0105694Y0308919D01*
X0112043Y0276093D02*
X0112043Y0271289D01*
X0111443Y0271890D02*
X0112644Y0271890D01*
X0113244Y0272490D01*
X0113244Y0273091D01*
X0112644Y0273691D01*
X0111443Y0273691D01*
X0110842Y0274292D01*
X0110842Y0274892D01*
X0111443Y0275493D01*
X0112644Y0275493D01*
X0113244Y0274892D01*
X0114526Y0275493D02*
X0116928Y0275493D01*
X0116928Y0274892D01*
X0114526Y0272490D01*
X0114526Y0271890D01*
X0111443Y0271890D02*
X0110842Y0272490D01*
X0109561Y0272490D02*
X0109561Y0275493D01*
X0107159Y0275493D02*
X0107159Y0272490D01*
X0107760Y0271890D01*
X0108961Y0271890D01*
X0109561Y0272490D01*
X0067567Y0139478D02*
X0066033Y0139478D01*
X0065265Y0138711D01*
X0063731Y0138711D02*
X0062963Y0139478D01*
X0061429Y0139478D01*
X0060661Y0138711D01*
X0060661Y0137943D01*
X0061429Y0137176D01*
X0062963Y0137176D01*
X0063731Y0136409D01*
X0063731Y0135641D01*
X0062963Y0134874D01*
X0061429Y0134874D01*
X0060661Y0135641D01*
X0065265Y0134874D02*
X0068335Y0137943D01*
X0068335Y0138711D01*
X0067567Y0139478D01*
X0068335Y0134874D02*
X0065265Y0134874D01*
X0051080Y0115171D02*
X0047978Y0115171D01*
X0049529Y0113620D01*
X0049529Y0115688D01*
X0048495Y0112465D02*
X0047978Y0111948D01*
X0047978Y0110914D01*
X0048495Y0110397D01*
X0050563Y0110397D01*
X0051080Y0110914D01*
X0051080Y0111948D01*
X0050563Y0112465D01*
D14*
X0028277Y0282666D02*
X0028279Y0282747D01*
X0028285Y0282829D01*
X0028295Y0282910D01*
X0028309Y0282990D01*
X0028326Y0283069D01*
X0028348Y0283148D01*
X0028373Y0283225D01*
X0028402Y0283302D01*
X0028435Y0283376D01*
X0028472Y0283449D01*
X0028511Y0283520D01*
X0028555Y0283589D01*
X0028601Y0283656D01*
X0028651Y0283720D01*
X0028704Y0283782D01*
X0028760Y0283842D01*
X0028818Y0283898D01*
X0028880Y0283952D01*
X0028944Y0284003D01*
X0029010Y0284050D01*
X0029078Y0284094D01*
X0029149Y0284135D01*
X0029221Y0284172D01*
X0029296Y0284206D01*
X0029371Y0284236D01*
X0029449Y0284262D01*
X0029527Y0284285D01*
X0029606Y0284303D01*
X0029686Y0284318D01*
X0029767Y0284329D01*
X0029848Y0284336D01*
X0029930Y0284339D01*
X0030011Y0284338D01*
X0030092Y0284333D01*
X0030173Y0284324D01*
X0030254Y0284311D01*
X0030334Y0284294D01*
X0030412Y0284274D01*
X0030490Y0284249D01*
X0030567Y0284221D01*
X0030642Y0284189D01*
X0030715Y0284154D01*
X0030786Y0284115D01*
X0030856Y0284072D01*
X0030923Y0284027D01*
X0030989Y0283978D01*
X0031051Y0283926D01*
X0031111Y0283870D01*
X0031168Y0283812D01*
X0031223Y0283752D01*
X0031274Y0283688D01*
X0031322Y0283623D01*
X0031367Y0283555D01*
X0031409Y0283485D01*
X0031447Y0283413D01*
X0031482Y0283339D01*
X0031513Y0283264D01*
X0031540Y0283187D01*
X0031563Y0283109D01*
X0031583Y0283030D01*
X0031599Y0282950D01*
X0031611Y0282869D01*
X0031619Y0282788D01*
X0031623Y0282707D01*
X0031623Y0282625D01*
X0031619Y0282544D01*
X0031611Y0282463D01*
X0031599Y0282382D01*
X0031583Y0282302D01*
X0031563Y0282223D01*
X0031540Y0282145D01*
X0031513Y0282068D01*
X0031482Y0281993D01*
X0031447Y0281919D01*
X0031409Y0281847D01*
X0031367Y0281777D01*
X0031322Y0281709D01*
X0031274Y0281644D01*
X0031223Y0281580D01*
X0031168Y0281520D01*
X0031111Y0281462D01*
X0031051Y0281406D01*
X0030989Y0281354D01*
X0030923Y0281305D01*
X0030856Y0281260D01*
X0030787Y0281217D01*
X0030715Y0281178D01*
X0030642Y0281143D01*
X0030567Y0281111D01*
X0030490Y0281083D01*
X0030412Y0281058D01*
X0030334Y0281038D01*
X0030254Y0281021D01*
X0030173Y0281008D01*
X0030092Y0280999D01*
X0030011Y0280994D01*
X0029930Y0280993D01*
X0029848Y0280996D01*
X0029767Y0281003D01*
X0029686Y0281014D01*
X0029606Y0281029D01*
X0029527Y0281047D01*
X0029449Y0281070D01*
X0029371Y0281096D01*
X0029296Y0281126D01*
X0029221Y0281160D01*
X0029149Y0281197D01*
X0029078Y0281238D01*
X0029010Y0281282D01*
X0028944Y0281329D01*
X0028880Y0281380D01*
X0028818Y0281434D01*
X0028760Y0281490D01*
X0028704Y0281550D01*
X0028651Y0281612D01*
X0028601Y0281676D01*
X0028555Y0281743D01*
X0028511Y0281812D01*
X0028472Y0281883D01*
X0028435Y0281956D01*
X0028402Y0282030D01*
X0028373Y0282107D01*
X0028348Y0282184D01*
X0028326Y0282263D01*
X0028309Y0282342D01*
X0028295Y0282422D01*
X0028285Y0282503D01*
X0028279Y0282585D01*
X0028277Y0282666D01*
X0028768Y0296446D02*
X0031128Y0296446D01*
X0028277Y0297627D02*
X0028279Y0297708D01*
X0028285Y0297790D01*
X0028295Y0297871D01*
X0028309Y0297951D01*
X0028326Y0298030D01*
X0028348Y0298109D01*
X0028373Y0298186D01*
X0028402Y0298263D01*
X0028435Y0298337D01*
X0028472Y0298410D01*
X0028511Y0298481D01*
X0028555Y0298550D01*
X0028601Y0298617D01*
X0028651Y0298681D01*
X0028704Y0298743D01*
X0028760Y0298803D01*
X0028818Y0298859D01*
X0028880Y0298913D01*
X0028944Y0298964D01*
X0029010Y0299011D01*
X0029078Y0299055D01*
X0029149Y0299096D01*
X0029221Y0299133D01*
X0029296Y0299167D01*
X0029371Y0299197D01*
X0029449Y0299223D01*
X0029527Y0299246D01*
X0029606Y0299264D01*
X0029686Y0299279D01*
X0029767Y0299290D01*
X0029848Y0299297D01*
X0029930Y0299300D01*
X0030011Y0299299D01*
X0030092Y0299294D01*
X0030173Y0299285D01*
X0030254Y0299272D01*
X0030334Y0299255D01*
X0030412Y0299235D01*
X0030490Y0299210D01*
X0030567Y0299182D01*
X0030642Y0299150D01*
X0030715Y0299115D01*
X0030786Y0299076D01*
X0030856Y0299033D01*
X0030923Y0298988D01*
X0030989Y0298939D01*
X0031051Y0298887D01*
X0031111Y0298831D01*
X0031168Y0298773D01*
X0031223Y0298713D01*
X0031274Y0298649D01*
X0031322Y0298584D01*
X0031367Y0298516D01*
X0031409Y0298446D01*
X0031447Y0298374D01*
X0031482Y0298300D01*
X0031513Y0298225D01*
X0031540Y0298148D01*
X0031563Y0298070D01*
X0031583Y0297991D01*
X0031599Y0297911D01*
X0031611Y0297830D01*
X0031619Y0297749D01*
X0031623Y0297668D01*
X0031623Y0297586D01*
X0031619Y0297505D01*
X0031611Y0297424D01*
X0031599Y0297343D01*
X0031583Y0297263D01*
X0031563Y0297184D01*
X0031540Y0297106D01*
X0031513Y0297029D01*
X0031482Y0296954D01*
X0031447Y0296880D01*
X0031409Y0296808D01*
X0031367Y0296738D01*
X0031322Y0296670D01*
X0031274Y0296605D01*
X0031223Y0296541D01*
X0031168Y0296481D01*
X0031111Y0296423D01*
X0031051Y0296367D01*
X0030989Y0296315D01*
X0030923Y0296266D01*
X0030856Y0296221D01*
X0030787Y0296178D01*
X0030715Y0296139D01*
X0030642Y0296104D01*
X0030567Y0296072D01*
X0030490Y0296044D01*
X0030412Y0296019D01*
X0030334Y0295999D01*
X0030254Y0295982D01*
X0030173Y0295969D01*
X0030092Y0295960D01*
X0030011Y0295955D01*
X0029930Y0295954D01*
X0029848Y0295957D01*
X0029767Y0295964D01*
X0029686Y0295975D01*
X0029606Y0295990D01*
X0029527Y0296008D01*
X0029449Y0296031D01*
X0029371Y0296057D01*
X0029296Y0296087D01*
X0029221Y0296121D01*
X0029149Y0296158D01*
X0029078Y0296199D01*
X0029010Y0296243D01*
X0028944Y0296290D01*
X0028880Y0296341D01*
X0028818Y0296395D01*
X0028760Y0296451D01*
X0028704Y0296511D01*
X0028651Y0296573D01*
X0028601Y0296637D01*
X0028555Y0296704D01*
X0028511Y0296773D01*
X0028472Y0296844D01*
X0028435Y0296917D01*
X0028402Y0296991D01*
X0028373Y0297068D01*
X0028348Y0297145D01*
X0028326Y0297224D01*
X0028309Y0297303D01*
X0028295Y0297383D01*
X0028285Y0297464D01*
X0028279Y0297546D01*
X0028277Y0297627D01*
X0113294Y0307706D02*
X0113296Y0307786D01*
X0113302Y0307865D01*
X0113312Y0307944D01*
X0113326Y0308023D01*
X0113343Y0308101D01*
X0113365Y0308178D01*
X0113390Y0308253D01*
X0113420Y0308327D01*
X0113452Y0308400D01*
X0113489Y0308471D01*
X0113529Y0308540D01*
X0113572Y0308607D01*
X0113619Y0308672D01*
X0113668Y0308734D01*
X0113721Y0308794D01*
X0113777Y0308851D01*
X0113835Y0308906D01*
X0113896Y0308957D01*
X0113960Y0309005D01*
X0114026Y0309050D01*
X0114094Y0309092D01*
X0114164Y0309130D01*
X0114236Y0309164D01*
X0114309Y0309195D01*
X0114384Y0309223D01*
X0114461Y0309246D01*
X0114538Y0309266D01*
X0114616Y0309282D01*
X0114695Y0309294D01*
X0114774Y0309302D01*
X0114854Y0309306D01*
X0114934Y0309306D01*
X0115014Y0309302D01*
X0115093Y0309294D01*
X0115172Y0309282D01*
X0115250Y0309266D01*
X0115327Y0309246D01*
X0115404Y0309223D01*
X0115479Y0309195D01*
X0115552Y0309164D01*
X0115624Y0309130D01*
X0115694Y0309092D01*
X0115762Y0309050D01*
X0115828Y0309005D01*
X0115892Y0308957D01*
X0115953Y0308906D01*
X0116011Y0308851D01*
X0116067Y0308794D01*
X0116120Y0308734D01*
X0116169Y0308672D01*
X0116216Y0308607D01*
X0116259Y0308540D01*
X0116299Y0308471D01*
X0116336Y0308400D01*
X0116368Y0308327D01*
X0116398Y0308253D01*
X0116423Y0308178D01*
X0116445Y0308101D01*
X0116462Y0308023D01*
X0116476Y0307944D01*
X0116486Y0307865D01*
X0116492Y0307786D01*
X0116494Y0307706D01*
X0116492Y0307626D01*
X0116486Y0307547D01*
X0116476Y0307468D01*
X0116462Y0307389D01*
X0116445Y0307311D01*
X0116423Y0307234D01*
X0116398Y0307159D01*
X0116368Y0307085D01*
X0116336Y0307012D01*
X0116299Y0306941D01*
X0116259Y0306872D01*
X0116216Y0306805D01*
X0116169Y0306740D01*
X0116120Y0306678D01*
X0116067Y0306618D01*
X0116011Y0306561D01*
X0115953Y0306506D01*
X0115892Y0306455D01*
X0115828Y0306407D01*
X0115762Y0306362D01*
X0115694Y0306320D01*
X0115624Y0306282D01*
X0115552Y0306248D01*
X0115479Y0306217D01*
X0115404Y0306189D01*
X0115327Y0306166D01*
X0115250Y0306146D01*
X0115172Y0306130D01*
X0115093Y0306118D01*
X0115014Y0306110D01*
X0114934Y0306106D01*
X0114854Y0306106D01*
X0114774Y0306110D01*
X0114695Y0306118D01*
X0114616Y0306130D01*
X0114538Y0306146D01*
X0114461Y0306166D01*
X0114384Y0306189D01*
X0114309Y0306217D01*
X0114236Y0306248D01*
X0114164Y0306282D01*
X0114094Y0306320D01*
X0114026Y0306362D01*
X0113960Y0306407D01*
X0113896Y0306455D01*
X0113835Y0306506D01*
X0113777Y0306561D01*
X0113721Y0306618D01*
X0113668Y0306678D01*
X0113619Y0306740D01*
X0113572Y0306805D01*
X0113529Y0306872D01*
X0113489Y0306941D01*
X0113452Y0307012D01*
X0113420Y0307085D01*
X0113390Y0307159D01*
X0113365Y0307234D01*
X0113343Y0307311D01*
X0113326Y0307389D01*
X0113312Y0307468D01*
X0113302Y0307547D01*
X0113296Y0307626D01*
X0113294Y0307706D01*
X0125294Y0307706D02*
X0125296Y0307786D01*
X0125302Y0307865D01*
X0125312Y0307944D01*
X0125326Y0308023D01*
X0125343Y0308101D01*
X0125365Y0308178D01*
X0125390Y0308253D01*
X0125420Y0308327D01*
X0125452Y0308400D01*
X0125489Y0308471D01*
X0125529Y0308540D01*
X0125572Y0308607D01*
X0125619Y0308672D01*
X0125668Y0308734D01*
X0125721Y0308794D01*
X0125777Y0308851D01*
X0125835Y0308906D01*
X0125896Y0308957D01*
X0125960Y0309005D01*
X0126026Y0309050D01*
X0126094Y0309092D01*
X0126164Y0309130D01*
X0126236Y0309164D01*
X0126309Y0309195D01*
X0126384Y0309223D01*
X0126461Y0309246D01*
X0126538Y0309266D01*
X0126616Y0309282D01*
X0126695Y0309294D01*
X0126774Y0309302D01*
X0126854Y0309306D01*
X0126934Y0309306D01*
X0127014Y0309302D01*
X0127093Y0309294D01*
X0127172Y0309282D01*
X0127250Y0309266D01*
X0127327Y0309246D01*
X0127404Y0309223D01*
X0127479Y0309195D01*
X0127552Y0309164D01*
X0127624Y0309130D01*
X0127694Y0309092D01*
X0127762Y0309050D01*
X0127828Y0309005D01*
X0127892Y0308957D01*
X0127953Y0308906D01*
X0128011Y0308851D01*
X0128067Y0308794D01*
X0128120Y0308734D01*
X0128169Y0308672D01*
X0128216Y0308607D01*
X0128259Y0308540D01*
X0128299Y0308471D01*
X0128336Y0308400D01*
X0128368Y0308327D01*
X0128398Y0308253D01*
X0128423Y0308178D01*
X0128445Y0308101D01*
X0128462Y0308023D01*
X0128476Y0307944D01*
X0128486Y0307865D01*
X0128492Y0307786D01*
X0128494Y0307706D01*
X0128492Y0307626D01*
X0128486Y0307547D01*
X0128476Y0307468D01*
X0128462Y0307389D01*
X0128445Y0307311D01*
X0128423Y0307234D01*
X0128398Y0307159D01*
X0128368Y0307085D01*
X0128336Y0307012D01*
X0128299Y0306941D01*
X0128259Y0306872D01*
X0128216Y0306805D01*
X0128169Y0306740D01*
X0128120Y0306678D01*
X0128067Y0306618D01*
X0128011Y0306561D01*
X0127953Y0306506D01*
X0127892Y0306455D01*
X0127828Y0306407D01*
X0127762Y0306362D01*
X0127694Y0306320D01*
X0127624Y0306282D01*
X0127552Y0306248D01*
X0127479Y0306217D01*
X0127404Y0306189D01*
X0127327Y0306166D01*
X0127250Y0306146D01*
X0127172Y0306130D01*
X0127093Y0306118D01*
X0127014Y0306110D01*
X0126934Y0306106D01*
X0126854Y0306106D01*
X0126774Y0306110D01*
X0126695Y0306118D01*
X0126616Y0306130D01*
X0126538Y0306146D01*
X0126461Y0306166D01*
X0126384Y0306189D01*
X0126309Y0306217D01*
X0126236Y0306248D01*
X0126164Y0306282D01*
X0126094Y0306320D01*
X0126026Y0306362D01*
X0125960Y0306407D01*
X0125896Y0306455D01*
X0125835Y0306506D01*
X0125777Y0306561D01*
X0125721Y0306618D01*
X0125668Y0306678D01*
X0125619Y0306740D01*
X0125572Y0306805D01*
X0125529Y0306872D01*
X0125489Y0306941D01*
X0125452Y0307012D01*
X0125420Y0307085D01*
X0125390Y0307159D01*
X0125365Y0307234D01*
X0125343Y0307311D01*
X0125326Y0307389D01*
X0125312Y0307468D01*
X0125302Y0307547D01*
X0125296Y0307626D01*
X0125294Y0307706D01*
D15*
X0117036Y0284359D03*
X0055698Y0277587D03*
D16*
X0079950Y0261997D02*
X0079950Y0252548D01*
X0087824Y0252548D01*
X0095698Y0252548D02*
X0101997Y0252548D01*
X0103572Y0254123D01*
X0103572Y0260422D01*
X0101997Y0261997D01*
X0095698Y0261997D01*
X0087824Y0261997D02*
X0079950Y0261997D01*
X0085816Y0274595D02*
X0096839Y0274595D01*
X0096839Y0291524D01*
X0085816Y0291524D01*
X0085816Y0274595D01*
X0114438Y0262784D02*
X0114438Y0253335D01*
X0122312Y0253335D01*
X0130186Y0253335D02*
X0136485Y0253335D01*
X0138060Y0254910D01*
X0138060Y0261209D01*
X0136485Y0262784D01*
X0130186Y0262784D01*
X0122312Y0262784D02*
X0114438Y0262784D01*
X0122889Y0233930D02*
X0097089Y0233930D01*
X0097089Y0220930D01*
X0122889Y0220930D01*
X0122889Y0233930D01*
X0095383Y0206446D02*
X0083257Y0206446D01*
X0079320Y0201446D02*
X0079320Y0191564D01*
X0083257Y0186446D02*
X0095383Y0186446D01*
X0099320Y0191564D02*
X0099320Y0201328D01*
X0084320Y0196446D02*
X0084322Y0196587D01*
X0084328Y0196728D01*
X0084338Y0196868D01*
X0084352Y0197008D01*
X0084370Y0197148D01*
X0084391Y0197287D01*
X0084417Y0197426D01*
X0084446Y0197564D01*
X0084480Y0197700D01*
X0084517Y0197836D01*
X0084558Y0197971D01*
X0084603Y0198105D01*
X0084652Y0198237D01*
X0084704Y0198368D01*
X0084760Y0198497D01*
X0084820Y0198624D01*
X0084883Y0198750D01*
X0084949Y0198874D01*
X0085020Y0198997D01*
X0085093Y0199117D01*
X0085170Y0199235D01*
X0085250Y0199351D01*
X0085334Y0199464D01*
X0085420Y0199575D01*
X0085510Y0199684D01*
X0085603Y0199790D01*
X0085698Y0199893D01*
X0085797Y0199994D01*
X0085898Y0200092D01*
X0086002Y0200187D01*
X0086109Y0200279D01*
X0086218Y0200368D01*
X0086330Y0200453D01*
X0086444Y0200536D01*
X0086560Y0200616D01*
X0086679Y0200692D01*
X0086800Y0200764D01*
X0086922Y0200834D01*
X0087047Y0200899D01*
X0087173Y0200962D01*
X0087301Y0201020D01*
X0087431Y0201075D01*
X0087562Y0201127D01*
X0087695Y0201174D01*
X0087829Y0201218D01*
X0087964Y0201259D01*
X0088100Y0201295D01*
X0088237Y0201327D01*
X0088375Y0201356D01*
X0088513Y0201381D01*
X0088653Y0201401D01*
X0088793Y0201418D01*
X0088933Y0201431D01*
X0089074Y0201440D01*
X0089214Y0201445D01*
X0089355Y0201446D01*
X0089496Y0201443D01*
X0089637Y0201436D01*
X0089777Y0201425D01*
X0089917Y0201410D01*
X0090057Y0201391D01*
X0090196Y0201369D01*
X0090334Y0201342D01*
X0090472Y0201312D01*
X0090608Y0201277D01*
X0090744Y0201239D01*
X0090878Y0201197D01*
X0091012Y0201151D01*
X0091144Y0201102D01*
X0091274Y0201048D01*
X0091403Y0200991D01*
X0091530Y0200931D01*
X0091656Y0200867D01*
X0091779Y0200799D01*
X0091901Y0200728D01*
X0092021Y0200654D01*
X0092138Y0200576D01*
X0092253Y0200495D01*
X0092366Y0200411D01*
X0092477Y0200324D01*
X0092585Y0200233D01*
X0092690Y0200140D01*
X0092793Y0200043D01*
X0092893Y0199944D01*
X0092990Y0199842D01*
X0093084Y0199737D01*
X0093175Y0199630D01*
X0093263Y0199520D01*
X0093348Y0199408D01*
X0093430Y0199293D01*
X0093509Y0199176D01*
X0093584Y0199057D01*
X0093656Y0198936D01*
X0093724Y0198813D01*
X0093789Y0198688D01*
X0093851Y0198561D01*
X0093908Y0198432D01*
X0093963Y0198302D01*
X0094013Y0198171D01*
X0094060Y0198038D01*
X0094103Y0197904D01*
X0094142Y0197768D01*
X0094177Y0197632D01*
X0094209Y0197495D01*
X0094236Y0197357D01*
X0094260Y0197218D01*
X0094280Y0197078D01*
X0094296Y0196938D01*
X0094308Y0196798D01*
X0094316Y0196657D01*
X0094320Y0196516D01*
X0094320Y0196376D01*
X0094316Y0196235D01*
X0094308Y0196094D01*
X0094296Y0195954D01*
X0094280Y0195814D01*
X0094260Y0195674D01*
X0094236Y0195535D01*
X0094209Y0195397D01*
X0094177Y0195260D01*
X0094142Y0195124D01*
X0094103Y0194988D01*
X0094060Y0194854D01*
X0094013Y0194721D01*
X0093963Y0194590D01*
X0093908Y0194460D01*
X0093851Y0194331D01*
X0093789Y0194204D01*
X0093724Y0194079D01*
X0093656Y0193956D01*
X0093584Y0193835D01*
X0093509Y0193716D01*
X0093430Y0193599D01*
X0093348Y0193484D01*
X0093263Y0193372D01*
X0093175Y0193262D01*
X0093084Y0193155D01*
X0092990Y0193050D01*
X0092893Y0192948D01*
X0092793Y0192849D01*
X0092690Y0192752D01*
X0092585Y0192659D01*
X0092477Y0192568D01*
X0092366Y0192481D01*
X0092253Y0192397D01*
X0092138Y0192316D01*
X0092021Y0192238D01*
X0091901Y0192164D01*
X0091779Y0192093D01*
X0091656Y0192025D01*
X0091530Y0191961D01*
X0091403Y0191901D01*
X0091274Y0191844D01*
X0091144Y0191790D01*
X0091012Y0191741D01*
X0090878Y0191695D01*
X0090744Y0191653D01*
X0090608Y0191615D01*
X0090472Y0191580D01*
X0090334Y0191550D01*
X0090196Y0191523D01*
X0090057Y0191501D01*
X0089917Y0191482D01*
X0089777Y0191467D01*
X0089637Y0191456D01*
X0089496Y0191449D01*
X0089355Y0191446D01*
X0089214Y0191447D01*
X0089074Y0191452D01*
X0088933Y0191461D01*
X0088793Y0191474D01*
X0088653Y0191491D01*
X0088513Y0191511D01*
X0088375Y0191536D01*
X0088237Y0191565D01*
X0088100Y0191597D01*
X0087964Y0191633D01*
X0087829Y0191674D01*
X0087695Y0191718D01*
X0087562Y0191765D01*
X0087431Y0191817D01*
X0087301Y0191872D01*
X0087173Y0191930D01*
X0087047Y0191993D01*
X0086922Y0192058D01*
X0086800Y0192128D01*
X0086679Y0192200D01*
X0086560Y0192276D01*
X0086444Y0192356D01*
X0086330Y0192439D01*
X0086218Y0192524D01*
X0086109Y0192613D01*
X0086002Y0192705D01*
X0085898Y0192800D01*
X0085797Y0192898D01*
X0085698Y0192999D01*
X0085603Y0193102D01*
X0085510Y0193208D01*
X0085420Y0193317D01*
X0085334Y0193428D01*
X0085250Y0193541D01*
X0085170Y0193657D01*
X0085093Y0193775D01*
X0085020Y0193895D01*
X0084949Y0194018D01*
X0084883Y0194142D01*
X0084820Y0194268D01*
X0084760Y0194395D01*
X0084704Y0194524D01*
X0084652Y0194655D01*
X0084603Y0194787D01*
X0084558Y0194921D01*
X0084517Y0195056D01*
X0084480Y0195192D01*
X0084446Y0195328D01*
X0084417Y0195466D01*
X0084391Y0195605D01*
X0084370Y0195744D01*
X0084352Y0195884D01*
X0084338Y0196024D01*
X0084328Y0196164D01*
X0084322Y0196305D01*
X0084320Y0196446D01*
X0165442Y0314123D02*
X0170442Y0314123D01*
X0172942Y0316623D01*
X0175442Y0314123D01*
X0180442Y0314123D01*
X0182942Y0316623D01*
X0182942Y0321623D01*
X0180442Y0324123D01*
X0175442Y0324123D01*
X0172942Y0321623D01*
X0170442Y0324123D01*
X0165442Y0324123D01*
X0162942Y0321623D01*
X0162942Y0316623D01*
X0165442Y0314123D01*
X0274438Y0234083D02*
X0274438Y0231721D01*
X0274438Y0234083D02*
X0287036Y0234083D01*
X0287036Y0221485D02*
X0274438Y0221485D01*
X0274438Y0223847D01*
X0286009Y0196611D02*
X0293683Y0196611D01*
X0295217Y0195076D01*
X0295217Y0193542D01*
X0292148Y0192007D02*
X0290613Y0190472D01*
X0286009Y0190472D01*
X0287544Y0187403D02*
X0292148Y0187403D01*
X0292148Y0182799D01*
X0290613Y0181264D01*
X0289079Y0182799D01*
X0289079Y0187403D01*
X0287544Y0187403D02*
X0286009Y0185868D01*
X0286009Y0182799D01*
X0282940Y0176661D02*
X0292148Y0176661D01*
X0292148Y0178195D02*
X0292148Y0175126D01*
X0290613Y0172057D02*
X0292148Y0170522D01*
X0292148Y0165918D01*
X0295217Y0165918D02*
X0286009Y0165918D01*
X0286009Y0170522D01*
X0287544Y0172057D01*
X0290613Y0172057D01*
X0282940Y0175126D02*
X0282940Y0176661D01*
X0286009Y0162849D02*
X0286009Y0158245D01*
X0287544Y0156710D01*
X0289079Y0158245D01*
X0289079Y0161314D01*
X0290613Y0162849D01*
X0292148Y0161314D01*
X0292148Y0156710D01*
X0292148Y0153641D02*
X0292148Y0150572D01*
X0292148Y0152106D02*
X0286009Y0152106D01*
X0286009Y0150572D01*
X0282940Y0152106D02*
X0281406Y0152106D01*
X0284475Y0147502D02*
X0282940Y0145968D01*
X0282940Y0141364D01*
X0292148Y0141364D01*
X0292148Y0145968D01*
X0290613Y0147502D01*
X0284475Y0147502D01*
X0284475Y0129087D02*
X0281406Y0129087D01*
X0284475Y0129087D02*
X0286009Y0127552D01*
X0284475Y0126017D02*
X0286009Y0124483D01*
X0284475Y0126017D02*
X0281406Y0126017D01*
X0282940Y0121413D02*
X0284475Y0118344D01*
X0287544Y0115275D01*
X0287544Y0119879D01*
X0289079Y0121413D01*
X0290613Y0121413D01*
X0292148Y0119879D01*
X0292148Y0116809D01*
X0290613Y0115275D01*
X0287544Y0115275D01*
X0287544Y0112206D02*
X0287544Y0107602D01*
X0286009Y0106067D01*
X0284475Y0106067D01*
X0282940Y0107602D01*
X0282940Y0110671D01*
X0284475Y0112206D01*
X0290613Y0112206D01*
X0292148Y0110671D01*
X0292148Y0107602D01*
X0290613Y0106067D01*
X0290613Y0102998D02*
X0292148Y0102998D01*
X0292148Y0101463D01*
X0290613Y0101463D01*
X0290613Y0102998D01*
X0290613Y0098394D02*
X0284475Y0098394D01*
X0290613Y0092255D01*
X0292148Y0093790D01*
X0292148Y0096859D01*
X0290613Y0098394D01*
X0290613Y0092255D02*
X0284475Y0092255D01*
X0282940Y0093790D01*
X0282940Y0096859D01*
X0284475Y0098394D01*
X0292148Y0192007D02*
X0292148Y0196611D01*
D17*
X0088769Y0276662D03*
D18*
X0085508Y0264261D02*
X0085758Y0264011D01*
X0085758Y0263760D01*
X0085508Y0263510D01*
X0085007Y0263510D01*
X0084757Y0263760D01*
X0084757Y0264011D01*
X0085007Y0264261D01*
X0085508Y0264261D01*
X0085508Y0263510D02*
X0085758Y0263260D01*
X0085758Y0263010D01*
X0085508Y0262759D01*
X0085007Y0262759D01*
X0084757Y0263010D01*
X0084757Y0263260D01*
X0085007Y0263510D01*
X0084285Y0263260D02*
X0084285Y0263010D01*
X0084035Y0262759D01*
X0083534Y0262759D01*
X0083284Y0263010D01*
X0082811Y0263010D02*
X0082561Y0262759D01*
X0082061Y0262759D01*
X0081811Y0263010D01*
X0081811Y0264011D01*
X0082061Y0264261D01*
X0082561Y0264261D01*
X0082811Y0264011D01*
X0083284Y0264011D02*
X0083534Y0264261D01*
X0084035Y0264261D01*
X0084285Y0264011D01*
X0084285Y0263760D01*
X0084035Y0263510D01*
X0084285Y0263260D01*
X0084035Y0263510D02*
X0083784Y0263510D01*
X0065980Y0256218D02*
X0065730Y0256468D01*
X0065229Y0256468D01*
X0064979Y0256218D01*
X0064507Y0256468D02*
X0064006Y0256218D01*
X0063506Y0255717D01*
X0064256Y0255717D01*
X0064507Y0255467D01*
X0064507Y0255217D01*
X0064256Y0254967D01*
X0063756Y0254967D01*
X0063506Y0255217D01*
X0063506Y0255717D01*
X0063033Y0255717D02*
X0062783Y0255467D01*
X0062033Y0255467D01*
X0062533Y0255467D02*
X0063033Y0254967D01*
X0063033Y0255717D02*
X0063033Y0256218D01*
X0062783Y0256468D01*
X0062033Y0256468D01*
X0062033Y0254967D01*
X0064979Y0254967D02*
X0065980Y0255967D01*
X0065980Y0256218D01*
X0065980Y0254967D02*
X0064979Y0254967D01*
X0046504Y0263549D02*
X0046504Y0263800D01*
X0046253Y0264050D01*
X0045503Y0264050D01*
X0045503Y0263549D01*
X0045753Y0263299D01*
X0046253Y0263299D01*
X0046504Y0263549D01*
X0046003Y0264550D02*
X0046504Y0264800D01*
X0046003Y0264550D02*
X0045503Y0264050D01*
X0045030Y0264050D02*
X0044780Y0263800D01*
X0044029Y0263800D01*
X0044029Y0263299D02*
X0044029Y0264800D01*
X0044780Y0264800D01*
X0045030Y0264550D01*
X0045030Y0264050D01*
X0044530Y0263800D02*
X0045030Y0263299D01*
X0043770Y0307787D02*
X0043770Y0308038D01*
X0044771Y0309038D01*
X0044771Y0309289D01*
X0043770Y0309289D01*
X0043298Y0309038D02*
X0043298Y0308538D01*
X0043048Y0308288D01*
X0042297Y0308288D01*
X0042297Y0307787D02*
X0042297Y0309289D01*
X0043048Y0309289D01*
X0043298Y0309038D01*
X0042798Y0308288D02*
X0043298Y0307787D01*
X0056106Y0307842D02*
X0056106Y0309343D01*
X0056857Y0309343D01*
X0057107Y0309093D01*
X0057107Y0308593D01*
X0056857Y0308343D01*
X0056106Y0308343D01*
X0056606Y0308343D02*
X0057107Y0307842D01*
X0057579Y0308092D02*
X0057829Y0307842D01*
X0058330Y0307842D01*
X0058580Y0308092D01*
X0058580Y0308343D01*
X0058330Y0308593D01*
X0057579Y0308593D01*
X0057579Y0308092D01*
X0057579Y0308593D02*
X0058080Y0309093D01*
X0058580Y0309343D01*
X0059052Y0309093D02*
X0059303Y0309343D01*
X0059803Y0309343D01*
X0060053Y0309093D01*
X0060053Y0308843D01*
X0059803Y0308593D01*
X0060053Y0308343D01*
X0060053Y0308092D01*
X0059803Y0307842D01*
X0059303Y0307842D01*
X0059052Y0308092D01*
X0059553Y0308593D02*
X0059803Y0308593D01*
X0072444Y0308343D02*
X0073195Y0308343D01*
X0073445Y0308593D01*
X0073445Y0309093D01*
X0073195Y0309343D01*
X0072444Y0309343D01*
X0072444Y0307842D01*
X0072945Y0308343D02*
X0073445Y0307842D01*
X0073918Y0308092D02*
X0074168Y0307842D01*
X0074668Y0307842D01*
X0074919Y0308092D01*
X0074919Y0308343D01*
X0074668Y0308593D01*
X0073918Y0308593D01*
X0073918Y0308092D01*
X0073918Y0308593D02*
X0074418Y0309093D01*
X0074919Y0309343D01*
X0075391Y0308593D02*
X0076142Y0309343D01*
X0076142Y0307842D01*
X0076392Y0308593D02*
X0075391Y0308593D01*
X0116549Y0265048D02*
X0116299Y0264798D01*
X0116299Y0263797D01*
X0116549Y0263547D01*
X0117049Y0263547D01*
X0117300Y0263797D01*
X0117772Y0263797D02*
X0118022Y0263547D01*
X0118523Y0263547D01*
X0118773Y0263797D01*
X0118773Y0264047D01*
X0118523Y0264297D01*
X0118272Y0264297D01*
X0118523Y0264297D02*
X0118773Y0264548D01*
X0118773Y0264798D01*
X0118523Y0265048D01*
X0118022Y0265048D01*
X0117772Y0264798D01*
X0117300Y0264798D02*
X0117049Y0265048D01*
X0116549Y0265048D01*
X0119245Y0264798D02*
X0119245Y0264548D01*
X0119496Y0264297D01*
X0120246Y0264297D01*
X0120246Y0263797D02*
X0120246Y0264798D01*
X0119996Y0265048D01*
X0119496Y0265048D01*
X0119245Y0264798D01*
X0119245Y0263797D02*
X0119496Y0263547D01*
X0119996Y0263547D01*
X0120246Y0263797D01*
X0130122Y0275952D02*
X0130122Y0277454D01*
X0130872Y0277454D01*
X0131123Y0277203D01*
X0131123Y0276703D01*
X0130872Y0276453D01*
X0130122Y0276453D01*
X0130622Y0276453D02*
X0131123Y0275952D01*
X0131595Y0276203D02*
X0131845Y0275952D01*
X0132346Y0275952D01*
X0132596Y0276203D01*
X0132596Y0276453D01*
X0132346Y0276703D01*
X0131595Y0276703D01*
X0131595Y0276203D01*
X0131595Y0276703D02*
X0132095Y0277203D01*
X0132596Y0277454D01*
X0133068Y0277454D02*
X0133068Y0276703D01*
X0133569Y0276953D01*
X0133819Y0276953D01*
X0134069Y0276703D01*
X0134069Y0276203D01*
X0133819Y0275952D01*
X0133318Y0275952D01*
X0133068Y0276203D01*
X0133068Y0277454D02*
X0134069Y0277454D01*
X0133425Y0287567D02*
X0133675Y0287817D01*
X0133675Y0288067D01*
X0133425Y0288317D01*
X0132674Y0288317D01*
X0132674Y0287817D01*
X0132925Y0287567D01*
X0133425Y0287567D01*
X0132674Y0288317D02*
X0133175Y0288818D01*
X0133675Y0289068D01*
X0132202Y0289068D02*
X0131702Y0288818D01*
X0131201Y0288317D01*
X0131952Y0288317D01*
X0132202Y0288067D01*
X0132202Y0287817D01*
X0131952Y0287567D01*
X0131451Y0287567D01*
X0131201Y0287817D01*
X0131201Y0288317D01*
X0130729Y0288317D02*
X0130479Y0288067D01*
X0129728Y0288067D01*
X0130228Y0288067D02*
X0130729Y0287567D01*
X0130729Y0288317D02*
X0130729Y0288818D01*
X0130479Y0289068D01*
X0129728Y0289068D01*
X0129728Y0287567D01*
X0109745Y0246731D02*
X0109745Y0245230D01*
X0110245Y0245230D02*
X0109244Y0245230D01*
X0108772Y0245480D02*
X0108522Y0245230D01*
X0108021Y0245230D01*
X0107771Y0245480D01*
X0107771Y0246481D01*
X0108021Y0246731D01*
X0108522Y0246731D01*
X0108772Y0246481D01*
X0109244Y0246231D02*
X0109745Y0246731D01*
X0107289Y0246731D02*
X0106789Y0246731D01*
X0107039Y0246731D02*
X0107039Y0245230D01*
X0106789Y0245230D02*
X0107289Y0245230D01*
X0091352Y0245297D02*
X0091102Y0245047D01*
X0090602Y0245047D01*
X0090352Y0245297D01*
X0091352Y0246298D01*
X0091352Y0245297D01*
X0090352Y0245297D02*
X0090352Y0246298D01*
X0090602Y0246548D01*
X0091102Y0246548D01*
X0091352Y0246298D01*
X0089879Y0245797D02*
X0088878Y0245797D01*
X0089629Y0246548D01*
X0089629Y0245047D01*
X0088406Y0245297D02*
X0088156Y0245047D01*
X0087655Y0245047D01*
X0087405Y0245297D01*
X0087405Y0246298D01*
X0087655Y0246548D01*
X0088156Y0246548D01*
X0088406Y0246298D01*
X0090650Y0226019D02*
X0090400Y0225769D01*
X0090400Y0225269D01*
X0090650Y0225018D01*
X0090650Y0224546D02*
X0090400Y0224296D01*
X0090400Y0223795D01*
X0090650Y0223545D01*
X0091651Y0223545D01*
X0091901Y0223795D01*
X0091901Y0224296D01*
X0091651Y0224546D01*
X0091901Y0225018D02*
X0090900Y0226019D01*
X0090650Y0226019D01*
X0091901Y0226019D02*
X0091901Y0225018D01*
X0087843Y0204997D02*
X0087843Y0203496D01*
X0087343Y0203496D02*
X0088344Y0203496D01*
X0087343Y0204497D02*
X0087843Y0204997D01*
X0086871Y0204747D02*
X0086620Y0204997D01*
X0086120Y0204997D01*
X0085870Y0204747D01*
X0085870Y0204497D01*
X0086120Y0204246D01*
X0086620Y0204246D01*
X0086871Y0203996D01*
X0086871Y0203746D01*
X0086620Y0203496D01*
X0086120Y0203496D01*
X0085870Y0203746D01*
X0064208Y0210085D02*
X0063207Y0210085D01*
X0064208Y0211085D01*
X0064208Y0211336D01*
X0063958Y0211586D01*
X0063458Y0211586D01*
X0063207Y0211336D01*
X0062735Y0211336D02*
X0062735Y0210835D01*
X0062485Y0210585D01*
X0061734Y0210585D01*
X0061734Y0210085D02*
X0061734Y0211586D01*
X0062485Y0211586D01*
X0062735Y0211336D01*
X0062235Y0210585D02*
X0062735Y0210085D01*
X0097140Y0174761D02*
X0097890Y0174761D01*
X0098141Y0174511D01*
X0098141Y0174010D01*
X0097890Y0173760D01*
X0097140Y0173760D01*
X0097640Y0173760D02*
X0098141Y0173260D01*
X0098613Y0173260D02*
X0099614Y0173260D01*
X0099113Y0173260D02*
X0099113Y0174761D01*
X0098613Y0174261D01*
X0097140Y0174761D02*
X0097140Y0173260D01*
X0099401Y0147861D02*
X0100152Y0147861D01*
X0100402Y0147611D01*
X0100402Y0147110D01*
X0100152Y0146860D01*
X0099401Y0146860D01*
X0099401Y0146360D02*
X0099401Y0147861D01*
X0099902Y0146860D02*
X0100402Y0146360D01*
X0100874Y0146610D02*
X0101125Y0146360D01*
X0101625Y0146360D01*
X0101875Y0146610D01*
X0101875Y0147110D01*
X0101625Y0147361D01*
X0101375Y0147361D01*
X0100874Y0147110D01*
X0100874Y0147861D01*
X0101875Y0147861D01*
X0088379Y0139761D02*
X0087629Y0139010D01*
X0088630Y0139010D01*
X0088379Y0138260D02*
X0088379Y0139761D01*
X0087156Y0139511D02*
X0087156Y0139010D01*
X0086906Y0138760D01*
X0086155Y0138760D01*
X0086155Y0138260D02*
X0086155Y0139761D01*
X0086906Y0139761D01*
X0087156Y0139511D01*
X0086656Y0138760D02*
X0087156Y0138260D01*
X0097674Y0125470D02*
X0098425Y0125470D01*
X0098675Y0125220D01*
X0098675Y0124719D01*
X0098425Y0124469D01*
X0097674Y0124469D01*
X0097674Y0123969D02*
X0097674Y0125470D01*
X0098175Y0124469D02*
X0098675Y0123969D01*
X0099148Y0123969D02*
X0100148Y0124969D01*
X0100148Y0125220D01*
X0099898Y0125470D01*
X0099398Y0125470D01*
X0099148Y0125220D01*
X0099148Y0123969D02*
X0100148Y0123969D01*
X0100621Y0123969D02*
X0101622Y0123969D01*
X0101121Y0123969D02*
X0101121Y0125470D01*
X0100621Y0124969D01*
X0134179Y0151136D02*
X0134179Y0152637D01*
X0134930Y0152637D01*
X0135180Y0152387D01*
X0135180Y0151386D01*
X0134930Y0151136D01*
X0134179Y0151136D01*
X0135652Y0151136D02*
X0136653Y0151136D01*
X0136153Y0151136D02*
X0136153Y0152637D01*
X0135652Y0152137D01*
X0173429Y0170165D02*
X0173429Y0171666D01*
X0174179Y0171666D01*
X0174430Y0171416D01*
X0174430Y0170916D01*
X0174179Y0170665D01*
X0173429Y0170665D01*
X0173929Y0170665D02*
X0174430Y0170165D01*
X0174902Y0170415D02*
X0175152Y0170165D01*
X0175653Y0170165D01*
X0175903Y0170415D01*
X0175903Y0170665D01*
X0175653Y0170916D01*
X0175402Y0170916D01*
X0175653Y0170916D02*
X0175903Y0171166D01*
X0175903Y0171416D01*
X0175653Y0171666D01*
X0175152Y0171666D01*
X0174902Y0171416D01*
X0176375Y0171416D02*
X0176375Y0171166D01*
X0176625Y0170916D01*
X0177126Y0170916D01*
X0177376Y0170665D01*
X0177376Y0170415D01*
X0177126Y0170165D01*
X0176625Y0170165D01*
X0176375Y0170415D01*
X0176375Y0170665D01*
X0176625Y0170916D01*
X0177126Y0170916D02*
X0177376Y0171166D01*
X0177376Y0171416D01*
X0177126Y0171666D01*
X0176625Y0171666D01*
X0176375Y0171416D01*
X0176088Y0152846D02*
X0176838Y0152846D01*
X0177089Y0152596D01*
X0177089Y0152095D01*
X0176838Y0151845D01*
X0176088Y0151845D01*
X0176588Y0151845D02*
X0177089Y0151344D01*
X0177561Y0152095D02*
X0178312Y0152846D01*
X0178312Y0151344D01*
X0179034Y0151595D02*
X0180035Y0152596D01*
X0180035Y0151595D01*
X0179785Y0151344D01*
X0179284Y0151344D01*
X0179034Y0151595D01*
X0179034Y0152596D01*
X0179284Y0152846D01*
X0179785Y0152846D01*
X0180035Y0152596D01*
X0178562Y0152095D02*
X0177561Y0152095D01*
X0176088Y0151344D02*
X0176088Y0152846D01*
X0176481Y0143003D02*
X0177232Y0143003D01*
X0177482Y0142753D01*
X0177482Y0142253D01*
X0177232Y0142002D01*
X0176481Y0142002D01*
X0176481Y0141502D02*
X0176481Y0143003D01*
X0176982Y0142002D02*
X0177482Y0141502D01*
X0177955Y0142253D02*
X0178956Y0142253D01*
X0179428Y0142503D02*
X0179928Y0143003D01*
X0179928Y0141502D01*
X0179428Y0141502D02*
X0180429Y0141502D01*
X0178705Y0141502D02*
X0178705Y0143003D01*
X0177955Y0142253D01*
X0178323Y0132570D02*
X0178823Y0132570D01*
X0179074Y0132320D01*
X0179074Y0132070D01*
X0178823Y0131820D01*
X0179074Y0131569D01*
X0179074Y0131319D01*
X0178823Y0131069D01*
X0178323Y0131069D01*
X0178073Y0131319D01*
X0177600Y0131069D02*
X0177100Y0131569D01*
X0177350Y0131569D02*
X0176600Y0131569D01*
X0176600Y0131069D02*
X0176600Y0132570D01*
X0177350Y0132570D01*
X0177600Y0132320D01*
X0177600Y0131820D01*
X0177350Y0131569D01*
X0178073Y0132320D02*
X0178323Y0132570D01*
X0178573Y0131820D02*
X0178823Y0131820D01*
X0179546Y0132070D02*
X0179796Y0131820D01*
X0180547Y0131820D01*
X0180547Y0132320D02*
X0180297Y0132570D01*
X0179796Y0132570D01*
X0179546Y0132320D01*
X0179546Y0132070D01*
X0179546Y0131319D02*
X0179796Y0131069D01*
X0180297Y0131069D01*
X0180547Y0131319D01*
X0180547Y0132320D01*
X0189572Y0089412D02*
X0190573Y0088411D01*
X0190823Y0088661D01*
X0190823Y0089161D01*
X0190573Y0089412D01*
X0189572Y0089412D01*
X0189322Y0089161D01*
X0189322Y0088661D01*
X0189572Y0088411D01*
X0190573Y0088411D01*
X0190823Y0087938D02*
X0190823Y0086937D01*
X0189822Y0087938D01*
X0189572Y0087938D01*
X0189322Y0087688D01*
X0189322Y0087188D01*
X0189572Y0086937D01*
X0189572Y0086465D02*
X0190072Y0086465D01*
X0190322Y0086215D01*
X0190322Y0085464D01*
X0190322Y0085965D02*
X0190823Y0086465D01*
X0190823Y0085464D02*
X0189322Y0085464D01*
X0189322Y0086215D01*
X0189572Y0086465D01*
X0204761Y0071336D02*
X0205512Y0071336D01*
X0205762Y0071086D01*
X0205762Y0070585D01*
X0205512Y0070335D01*
X0204761Y0070335D01*
X0205261Y0070335D02*
X0205762Y0069835D01*
X0206234Y0069835D02*
X0207235Y0069835D01*
X0206735Y0069835D02*
X0206735Y0071336D01*
X0206234Y0070835D01*
X0207707Y0070835D02*
X0207958Y0070585D01*
X0208708Y0070585D01*
X0208708Y0070085D02*
X0208708Y0071086D01*
X0208458Y0071336D01*
X0207958Y0071336D01*
X0207707Y0071086D01*
X0207707Y0070835D01*
X0207707Y0070085D02*
X0207958Y0069835D01*
X0208458Y0069835D01*
X0208708Y0070085D01*
X0204761Y0069835D02*
X0204761Y0071336D01*
X0217859Y0222447D02*
X0217859Y0223948D01*
X0218610Y0223948D01*
X0218860Y0223698D01*
X0218860Y0223197D01*
X0218610Y0222947D01*
X0217859Y0222947D01*
X0218360Y0222947D02*
X0218860Y0222447D01*
X0219333Y0222447D02*
X0220333Y0222447D01*
X0219833Y0222447D02*
X0219833Y0223948D01*
X0219333Y0223448D01*
X0220806Y0223698D02*
X0221056Y0223948D01*
X0221557Y0223948D01*
X0221807Y0223698D01*
X0220806Y0222697D01*
X0221056Y0222447D01*
X0221557Y0222447D01*
X0221807Y0222697D01*
X0221807Y0223698D01*
X0220806Y0223698D02*
X0220806Y0222697D01*
X0235438Y0223350D02*
X0235438Y0224101D01*
X0235688Y0224351D01*
X0236188Y0224351D01*
X0236439Y0224101D01*
X0236439Y0223350D01*
X0236939Y0223350D02*
X0235438Y0223350D01*
X0236439Y0223850D02*
X0236939Y0224351D01*
X0236939Y0224823D02*
X0236939Y0225824D01*
X0236939Y0225324D02*
X0235438Y0225324D01*
X0235938Y0224823D01*
X0236188Y0226297D02*
X0236188Y0227297D01*
X0235438Y0227047D02*
X0236188Y0226297D01*
X0235438Y0227047D02*
X0236939Y0227047D01*
X0258980Y0243826D02*
X0258980Y0245328D01*
X0259731Y0245328D01*
X0259981Y0245077D01*
X0259981Y0244577D01*
X0259731Y0244327D01*
X0258980Y0244327D01*
X0259480Y0244327D02*
X0259981Y0243826D01*
X0260453Y0243826D02*
X0261454Y0243826D01*
X0260954Y0243826D02*
X0260954Y0245328D01*
X0260453Y0244827D01*
X0261926Y0244827D02*
X0261926Y0245077D01*
X0262177Y0245328D01*
X0262677Y0245328D01*
X0262927Y0245077D01*
X0262927Y0244827D01*
X0262677Y0244577D01*
X0262177Y0244577D01*
X0261926Y0244827D01*
X0262177Y0244577D02*
X0261926Y0244327D01*
X0261926Y0244077D01*
X0262177Y0243826D01*
X0262677Y0243826D01*
X0262927Y0244077D01*
X0262927Y0244327D01*
X0262677Y0244577D01*
X0269022Y0230271D02*
X0269022Y0229270D01*
X0269773Y0229270D01*
X0269522Y0229771D01*
X0269522Y0230021D01*
X0269773Y0230271D01*
X0270273Y0230271D01*
X0270523Y0230021D01*
X0270523Y0229521D01*
X0270273Y0229270D01*
X0270523Y0228798D02*
X0270523Y0227797D01*
X0270523Y0227325D02*
X0270023Y0226824D01*
X0270023Y0227075D02*
X0270023Y0226324D01*
X0270523Y0226324D02*
X0269022Y0226324D01*
X0269022Y0227075D01*
X0269272Y0227325D01*
X0269773Y0227325D01*
X0270023Y0227075D01*
X0269522Y0227797D02*
X0269022Y0228298D01*
X0270523Y0228298D01*
X0292327Y0229069D02*
X0292578Y0228569D01*
X0293078Y0228068D01*
X0293078Y0228819D01*
X0293328Y0229069D01*
X0293579Y0229069D01*
X0293829Y0228819D01*
X0293829Y0228318D01*
X0293579Y0228068D01*
X0293078Y0228068D01*
X0293829Y0227596D02*
X0293829Y0226595D01*
X0293829Y0226123D02*
X0293328Y0225622D01*
X0293328Y0225872D02*
X0293328Y0225122D01*
X0293829Y0225122D02*
X0292327Y0225122D01*
X0292327Y0225872D01*
X0292578Y0226123D01*
X0293078Y0226123D01*
X0293328Y0225872D01*
X0292828Y0226595D02*
X0292327Y0227095D01*
X0293829Y0227095D01*
X0306501Y0244413D02*
X0306501Y0245164D01*
X0306751Y0245414D01*
X0307251Y0245414D01*
X0307502Y0245164D01*
X0307502Y0244413D01*
X0308002Y0244413D02*
X0306501Y0244413D01*
X0307502Y0244913D02*
X0308002Y0245414D01*
X0307752Y0245886D02*
X0308002Y0246136D01*
X0308002Y0246637D01*
X0307752Y0246887D01*
X0306751Y0246887D01*
X0306501Y0246637D01*
X0306501Y0246136D01*
X0306751Y0245886D01*
X0307001Y0245886D01*
X0307251Y0246136D01*
X0307251Y0246887D01*
X0280545Y0255413D02*
X0279544Y0255413D01*
X0280545Y0256414D01*
X0280545Y0256664D01*
X0280294Y0256914D01*
X0279794Y0256914D01*
X0279544Y0256664D01*
X0279071Y0256664D02*
X0278821Y0256914D01*
X0278070Y0256914D01*
X0278070Y0255413D01*
X0278821Y0255413D01*
X0279071Y0255663D01*
X0279071Y0256664D01*
X0266492Y0298431D02*
X0265491Y0298431D01*
X0266492Y0299432D01*
X0266492Y0299682D01*
X0266242Y0299932D01*
X0265741Y0299932D01*
X0265491Y0299682D01*
X0264518Y0299932D02*
X0264518Y0298431D01*
X0264018Y0298431D02*
X0265019Y0298431D01*
X0264018Y0299432D02*
X0264518Y0299932D01*
X0263545Y0299682D02*
X0263545Y0299182D01*
X0263295Y0298932D01*
X0262544Y0298932D01*
X0263045Y0298932D02*
X0263545Y0298431D01*
X0262544Y0298431D02*
X0262544Y0299932D01*
X0263295Y0299932D01*
X0263545Y0299682D01*
X0263197Y0305545D02*
X0263448Y0305795D01*
X0263448Y0306796D01*
X0263197Y0307047D01*
X0262447Y0307047D01*
X0262447Y0305545D01*
X0263197Y0305545D01*
X0263920Y0305795D02*
X0264170Y0305545D01*
X0264671Y0305545D01*
X0264921Y0305795D01*
X0264921Y0306046D01*
X0264671Y0306296D01*
X0264420Y0306296D01*
X0264671Y0306296D02*
X0264921Y0306546D01*
X0264921Y0306796D01*
X0264671Y0307047D01*
X0264170Y0307047D01*
X0263920Y0306796D01*
X0248382Y0300076D02*
X0248382Y0299826D01*
X0248131Y0299575D01*
X0248382Y0299325D01*
X0248382Y0299075D01*
X0248131Y0298825D01*
X0247631Y0298825D01*
X0247381Y0299075D01*
X0246908Y0298825D02*
X0245907Y0298825D01*
X0245435Y0298825D02*
X0244935Y0299325D01*
X0245185Y0299325D02*
X0244434Y0299325D01*
X0244434Y0298825D02*
X0244434Y0300326D01*
X0245185Y0300326D01*
X0245435Y0300076D01*
X0245435Y0299575D01*
X0245185Y0299325D01*
X0245907Y0299826D02*
X0246408Y0300326D01*
X0246408Y0298825D01*
X0247381Y0300076D02*
X0247631Y0300326D01*
X0248131Y0300326D01*
X0248382Y0300076D01*
X0248131Y0299575D02*
X0247881Y0299575D01*
X0216864Y0289889D02*
X0215863Y0289889D01*
X0215391Y0289889D02*
X0214390Y0289889D01*
X0213918Y0289889D02*
X0213417Y0290390D01*
X0213668Y0290390D02*
X0212917Y0290390D01*
X0212917Y0289889D02*
X0212917Y0291391D01*
X0213668Y0291391D01*
X0213918Y0291140D01*
X0213918Y0290640D01*
X0213668Y0290390D01*
X0214390Y0290890D02*
X0214891Y0291391D01*
X0214891Y0289889D01*
X0215863Y0290890D02*
X0216364Y0291391D01*
X0216364Y0289889D01*
X0215141Y0277414D02*
X0215391Y0277164D01*
X0215391Y0276914D01*
X0215141Y0276664D01*
X0214640Y0276664D01*
X0214390Y0276914D01*
X0214390Y0277164D01*
X0214640Y0277414D01*
X0215141Y0277414D01*
X0215141Y0276664D02*
X0215391Y0276413D01*
X0215391Y0276163D01*
X0215141Y0275913D01*
X0214640Y0275913D01*
X0214390Y0276163D01*
X0214390Y0276413D01*
X0214640Y0276664D01*
X0213918Y0276664D02*
X0213668Y0276413D01*
X0212917Y0276413D01*
X0212917Y0275913D02*
X0212917Y0277414D01*
X0213668Y0277414D01*
X0213918Y0277164D01*
X0213918Y0276664D01*
X0213417Y0276413D02*
X0213918Y0275913D01*
X0213471Y0264816D02*
X0213721Y0264566D01*
X0213721Y0264065D01*
X0213471Y0263815D01*
X0212720Y0263815D01*
X0212720Y0263315D02*
X0212720Y0264816D01*
X0213471Y0264816D01*
X0214193Y0264315D02*
X0214694Y0264816D01*
X0214694Y0263315D01*
X0215194Y0263315D02*
X0214193Y0263315D01*
X0213721Y0263315D02*
X0213220Y0263815D01*
X0215667Y0263565D02*
X0215667Y0263315D01*
X0215667Y0263565D02*
X0216667Y0264566D01*
X0216667Y0264816D01*
X0215667Y0264816D01*
X0137964Y0224982D02*
X0137964Y0224481D01*
X0137714Y0224231D01*
X0137714Y0223759D02*
X0137964Y0223508D01*
X0137964Y0223008D01*
X0137714Y0222758D01*
X0136713Y0222758D01*
X0136463Y0223008D01*
X0136463Y0223508D01*
X0136713Y0223759D01*
X0136713Y0224231D02*
X0136463Y0224481D01*
X0136463Y0224982D01*
X0136713Y0225232D01*
X0136963Y0225232D01*
X0137214Y0224982D01*
X0137464Y0225232D01*
X0137714Y0225232D01*
X0137964Y0224982D01*
X0137214Y0224982D02*
X0137214Y0224731D01*
X0040364Y0129905D02*
X0040364Y0129404D01*
X0040114Y0129154D01*
X0040364Y0128682D02*
X0039864Y0128181D01*
X0039864Y0128431D02*
X0039864Y0127681D01*
X0040364Y0127681D02*
X0038863Y0127681D01*
X0038863Y0128431D01*
X0039113Y0128682D01*
X0039614Y0128682D01*
X0039864Y0128431D01*
X0039113Y0129154D02*
X0038863Y0129404D01*
X0038863Y0129905D01*
X0039113Y0130155D01*
X0039363Y0130155D01*
X0039614Y0129905D01*
X0039864Y0130155D01*
X0040114Y0130155D01*
X0040364Y0129905D01*
X0039614Y0129905D02*
X0039614Y0129654D01*
X0029409Y0113438D02*
X0029660Y0113188D01*
X0029660Y0112937D01*
X0029409Y0112687D01*
X0029660Y0112437D01*
X0029660Y0112187D01*
X0029409Y0111937D01*
X0028909Y0111937D01*
X0028659Y0112187D01*
X0028186Y0111937D02*
X0027185Y0111937D01*
X0027686Y0111937D02*
X0027686Y0113438D01*
X0027185Y0112937D01*
X0026713Y0113188D02*
X0026463Y0113438D01*
X0025962Y0113438D01*
X0025712Y0113188D01*
X0025712Y0112187D01*
X0025962Y0111937D01*
X0026463Y0111937D01*
X0026713Y0112187D01*
X0028659Y0113188D02*
X0028909Y0113438D01*
X0029409Y0113438D01*
X0029409Y0112687D02*
X0029159Y0112687D01*
X0018812Y0313696D02*
X0017811Y0313696D01*
X0018312Y0313696D02*
X0018312Y0315198D01*
X0017811Y0314697D01*
X0017339Y0315198D02*
X0017339Y0313947D01*
X0017089Y0313696D01*
X0016588Y0313696D01*
X0016338Y0313947D01*
X0016338Y0315198D01*
D19*
X0059556Y0304792D03*
X0075894Y0304792D03*
X0062902Y0259517D03*
X0133572Y0272902D03*
X0133178Y0284517D03*
D20*
X0090855Y0242117D02*
X0090855Y0241877D01*
X0087471Y0222942D02*
X0087231Y0222942D01*
X0133294Y0222154D02*
X0133534Y0222154D01*
X0029162Y0109007D02*
X0029162Y0108767D01*
D21*
X0194753Y0114635D02*
X0213257Y0114635D01*
X0213454Y0114635D01*
X0210999Y0116209D02*
X0211001Y0116268D01*
X0211007Y0116326D01*
X0211017Y0116384D01*
X0211030Y0116441D01*
X0211048Y0116498D01*
X0211069Y0116553D01*
X0211094Y0116606D01*
X0211122Y0116657D01*
X0211153Y0116707D01*
X0211188Y0116754D01*
X0211226Y0116799D01*
X0211267Y0116842D01*
X0211311Y0116881D01*
X0211357Y0116917D01*
X0211405Y0116951D01*
X0211456Y0116981D01*
X0211509Y0117007D01*
X0211563Y0117030D01*
X0211618Y0117049D01*
X0211675Y0117065D01*
X0211733Y0117077D01*
X0211791Y0117085D01*
X0211850Y0117089D01*
X0211908Y0117089D01*
X0211967Y0117085D01*
X0212025Y0117077D01*
X0212083Y0117065D01*
X0212140Y0117049D01*
X0212195Y0117030D01*
X0212249Y0117007D01*
X0212302Y0116981D01*
X0212353Y0116951D01*
X0212401Y0116917D01*
X0212447Y0116881D01*
X0212491Y0116842D01*
X0212532Y0116799D01*
X0212570Y0116754D01*
X0212605Y0116707D01*
X0212636Y0116657D01*
X0212664Y0116606D01*
X0212689Y0116553D01*
X0212710Y0116498D01*
X0212728Y0116441D01*
X0212741Y0116384D01*
X0212751Y0116326D01*
X0212757Y0116268D01*
X0212759Y0116209D01*
X0212757Y0116150D01*
X0212751Y0116092D01*
X0212741Y0116034D01*
X0212728Y0115977D01*
X0212710Y0115920D01*
X0212689Y0115865D01*
X0212664Y0115812D01*
X0212636Y0115761D01*
X0212605Y0115711D01*
X0212570Y0115664D01*
X0212532Y0115619D01*
X0212491Y0115576D01*
X0212447Y0115537D01*
X0212401Y0115501D01*
X0212353Y0115467D01*
X0212302Y0115437D01*
X0212249Y0115411D01*
X0212195Y0115388D01*
X0212140Y0115369D01*
X0212083Y0115353D01*
X0212025Y0115341D01*
X0211967Y0115333D01*
X0211908Y0115329D01*
X0211850Y0115329D01*
X0211791Y0115333D01*
X0211733Y0115341D01*
X0211675Y0115353D01*
X0211618Y0115369D01*
X0211563Y0115388D01*
X0211509Y0115411D01*
X0211456Y0115437D01*
X0211405Y0115467D01*
X0211357Y0115501D01*
X0211311Y0115537D01*
X0211267Y0115576D01*
X0211226Y0115619D01*
X0211188Y0115664D01*
X0211153Y0115711D01*
X0211122Y0115761D01*
X0211094Y0115812D01*
X0211069Y0115865D01*
X0211048Y0115920D01*
X0211030Y0115977D01*
X0211017Y0116034D01*
X0211007Y0116092D01*
X0211001Y0116150D01*
X0210999Y0116209D01*
X0194753Y0114635D02*
X0194753Y0201249D01*
X0213257Y0201249D01*
X0213454Y0201249D01*
X0210802Y0199477D02*
X0210804Y0199536D01*
X0210810Y0199594D01*
X0210820Y0199652D01*
X0210833Y0199709D01*
X0210851Y0199766D01*
X0210872Y0199821D01*
X0210897Y0199874D01*
X0210925Y0199925D01*
X0210956Y0199975D01*
X0210991Y0200022D01*
X0211029Y0200067D01*
X0211070Y0200110D01*
X0211114Y0200149D01*
X0211160Y0200185D01*
X0211208Y0200219D01*
X0211259Y0200249D01*
X0211312Y0200275D01*
X0211366Y0200298D01*
X0211421Y0200317D01*
X0211478Y0200333D01*
X0211536Y0200345D01*
X0211594Y0200353D01*
X0211653Y0200357D01*
X0211711Y0200357D01*
X0211770Y0200353D01*
X0211828Y0200345D01*
X0211886Y0200333D01*
X0211943Y0200317D01*
X0211998Y0200298D01*
X0212052Y0200275D01*
X0212105Y0200249D01*
X0212156Y0200219D01*
X0212204Y0200185D01*
X0212250Y0200149D01*
X0212294Y0200110D01*
X0212335Y0200067D01*
X0212373Y0200022D01*
X0212408Y0199975D01*
X0212439Y0199925D01*
X0212467Y0199874D01*
X0212492Y0199821D01*
X0212513Y0199766D01*
X0212531Y0199709D01*
X0212544Y0199652D01*
X0212554Y0199594D01*
X0212560Y0199536D01*
X0212562Y0199477D01*
X0212560Y0199418D01*
X0212554Y0199360D01*
X0212544Y0199302D01*
X0212531Y0199245D01*
X0212513Y0199188D01*
X0212492Y0199133D01*
X0212467Y0199080D01*
X0212439Y0199029D01*
X0212408Y0198979D01*
X0212373Y0198932D01*
X0212335Y0198887D01*
X0212294Y0198844D01*
X0212250Y0198805D01*
X0212204Y0198769D01*
X0212156Y0198735D01*
X0212105Y0198705D01*
X0212052Y0198679D01*
X0211998Y0198656D01*
X0211943Y0198637D01*
X0211886Y0198621D01*
X0211828Y0198609D01*
X0211770Y0198601D01*
X0211711Y0198597D01*
X0211653Y0198597D01*
X0211594Y0198601D01*
X0211536Y0198609D01*
X0211478Y0198621D01*
X0211421Y0198637D01*
X0211366Y0198656D01*
X0211312Y0198679D01*
X0211259Y0198705D01*
X0211208Y0198735D01*
X0211160Y0198769D01*
X0211114Y0198805D01*
X0211070Y0198844D01*
X0211029Y0198887D01*
X0210991Y0198932D01*
X0210956Y0198979D01*
X0210925Y0199029D01*
X0210897Y0199080D01*
X0210872Y0199133D01*
X0210851Y0199188D01*
X0210833Y0199245D01*
X0210820Y0199302D01*
X0210810Y0199360D01*
X0210804Y0199418D01*
X0210802Y0199477D01*
X0046013Y0299674D02*
X0046013Y0302824D01*
X0039713Y0302824D01*
X0039713Y0299674D01*
X0046013Y0299674D01*
D22*
X0033099Y0301957D02*
X0033099Y0305894D01*
X0033028Y0305866D02*
X0029162Y0305866D01*
X0029162Y0305894D01*
X0017351Y0305894D02*
X0013414Y0305894D01*
X0033099Y0278335D02*
X0033099Y0274398D01*
X0029162Y0274398D01*
X0017351Y0274398D02*
X0013414Y0274398D01*
D23*
X0106672Y0181877D02*
X0106672Y0179409D01*
X0105438Y0180643D02*
X0107907Y0180643D01*
D24*
X0115265Y0180304D03*
X0115265Y0175580D03*
D25*
X0115265Y0177942D03*
D26*
X0264476Y0267233D02*
X0264476Y0287233D01*
D27*
X0293563Y0083537D02*
X0276746Y0054197D01*
X0276699Y0054139D01*
X0276655Y0054078D01*
X0276615Y0054016D01*
X0276578Y0053951D01*
X0276544Y0053884D01*
X0276514Y0053816D01*
X0276488Y0053746D01*
X0276465Y0053675D01*
X0276446Y0053603D01*
X0276431Y0053530D01*
X0276420Y0053456D01*
X0276413Y0053382D01*
X0276409Y0053307D01*
X0276410Y0053232D01*
X0276414Y0053158D01*
X0276423Y0053084D01*
X0276435Y0053010D01*
X0276452Y0052937D01*
X0276472Y0052865D01*
X0276496Y0052795D01*
X0276524Y0052725D01*
X0276555Y0052657D01*
X0276590Y0052591D01*
X0276628Y0052527D01*
X0276670Y0052465D01*
X0276714Y0052406D01*
X0276762Y0052348D01*
X0276813Y0052294D01*
X0276867Y0052242D01*
X0276923Y0052193D01*
X0276982Y0052147D01*
X0277043Y0052104D01*
X0277107Y0052065D01*
X0277172Y0052029D01*
X0277239Y0051997D01*
X0277308Y0051968D01*
X0277379Y0051943D01*
X0277450Y0051921D01*
X0277523Y0051904D01*
X0277596Y0051890D01*
X0277670Y0051880D01*
X0277744Y0051874D01*
X0277819Y0051872D01*
X0277819Y0051871D02*
X0311811Y0051871D01*
X0311811Y0051872D02*
X0311886Y0051874D01*
X0311960Y0051880D01*
X0312034Y0051890D01*
X0312107Y0051904D01*
X0312180Y0051921D01*
X0312251Y0051943D01*
X0312322Y0051968D01*
X0312391Y0051997D01*
X0312458Y0052029D01*
X0312523Y0052065D01*
X0312587Y0052104D01*
X0312648Y0052147D01*
X0312707Y0052193D01*
X0312763Y0052242D01*
X0312817Y0052294D01*
X0312868Y0052348D01*
X0312916Y0052406D01*
X0312960Y0052465D01*
X0313002Y0052527D01*
X0313040Y0052591D01*
X0313075Y0052657D01*
X0313106Y0052725D01*
X0313134Y0052795D01*
X0313158Y0052865D01*
X0313178Y0052937D01*
X0313195Y0053010D01*
X0313207Y0053084D01*
X0313216Y0053158D01*
X0313220Y0053232D01*
X0313221Y0053307D01*
X0313217Y0053382D01*
X0313210Y0053456D01*
X0313199Y0053530D01*
X0313184Y0053603D01*
X0313165Y0053675D01*
X0313142Y0053746D01*
X0313116Y0053816D01*
X0313086Y0053884D01*
X0313052Y0053951D01*
X0313015Y0054016D01*
X0312975Y0054078D01*
X0312931Y0054139D01*
X0312884Y0054197D01*
X0296067Y0083537D01*
X0296029Y0083600D01*
X0295987Y0083661D01*
X0295942Y0083720D01*
X0295895Y0083776D01*
X0295844Y0083830D01*
X0295791Y0083882D01*
X0295735Y0083930D01*
X0295677Y0083976D01*
X0295617Y0084019D01*
X0295554Y0084058D01*
X0295490Y0084094D01*
X0295424Y0084127D01*
X0295356Y0084157D01*
X0295287Y0084183D01*
X0295216Y0084205D01*
X0295145Y0084224D01*
X0295072Y0084239D01*
X0294999Y0084250D01*
X0294926Y0084258D01*
X0294852Y0084262D01*
X0294778Y0084262D01*
X0294704Y0084258D01*
X0294631Y0084250D01*
X0294558Y0084239D01*
X0294485Y0084224D01*
X0294414Y0084205D01*
X0294343Y0084183D01*
X0294274Y0084157D01*
X0294206Y0084127D01*
X0294140Y0084094D01*
X0294076Y0084058D01*
X0294013Y0084019D01*
X0293953Y0083976D01*
X0293895Y0083930D01*
X0293839Y0083882D01*
X0293786Y0083830D01*
X0293735Y0083776D01*
X0293688Y0083720D01*
X0293643Y0083661D01*
X0293601Y0083600D01*
X0293563Y0083537D01*
D28*
X0294815Y0062784D03*
D29*
X0297480Y0062972D02*
X0302333Y0062972D01*
X0302346Y0062795D02*
X0297488Y0062795D01*
X0297494Y0062683D02*
X0297470Y0063167D01*
X0297359Y0063639D01*
X0297165Y0064083D01*
X0296893Y0064484D01*
X0296553Y0064830D01*
X0296157Y0065108D01*
X0298572Y0069291D01*
X0299504Y0068659D01*
X0300331Y0067895D01*
X0301034Y0067016D01*
X0301599Y0066041D01*
X0302011Y0064993D01*
X0302263Y0063896D01*
X0302348Y0062773D01*
X0297494Y0062683D01*
X0297471Y0063149D02*
X0302320Y0063149D01*
X0302306Y0063327D02*
X0297433Y0063327D01*
X0297391Y0063504D02*
X0302293Y0063504D01*
X0302279Y0063681D02*
X0297341Y0063681D01*
X0297263Y0063858D02*
X0302266Y0063858D01*
X0302231Y0064036D02*
X0297185Y0064036D01*
X0297077Y0064213D02*
X0302190Y0064213D01*
X0302150Y0064390D02*
X0296957Y0064390D01*
X0296811Y0064567D02*
X0302109Y0064567D01*
X0302068Y0064745D02*
X0296637Y0064745D01*
X0296422Y0064922D02*
X0302028Y0064922D01*
X0301970Y0065099D02*
X0296170Y0065099D01*
X0296254Y0065276D02*
X0301900Y0065276D01*
X0301830Y0065454D02*
X0296356Y0065454D01*
X0296458Y0065631D02*
X0301760Y0065631D01*
X0301690Y0065808D02*
X0296561Y0065808D01*
X0296663Y0065985D02*
X0301621Y0065985D01*
X0301528Y0066163D02*
X0296765Y0066163D01*
X0296868Y0066340D02*
X0301426Y0066340D01*
X0301323Y0066517D02*
X0296970Y0066517D01*
X0297072Y0066695D02*
X0301220Y0066695D01*
X0301118Y0066872D02*
X0297175Y0066872D01*
X0297277Y0067049D02*
X0301007Y0067049D01*
X0300866Y0067226D02*
X0297379Y0067226D01*
X0297482Y0067404D02*
X0300724Y0067404D01*
X0300582Y0067581D02*
X0297584Y0067581D01*
X0297686Y0067758D02*
X0300440Y0067758D01*
X0300287Y0067935D02*
X0297789Y0067935D01*
X0297891Y0068113D02*
X0300095Y0068113D01*
X0299903Y0068290D02*
X0297993Y0068290D01*
X0298096Y0068467D02*
X0299711Y0068467D01*
X0299520Y0068644D02*
X0298198Y0068644D01*
X0298300Y0068822D02*
X0299264Y0068822D01*
X0299003Y0068999D02*
X0298403Y0068999D01*
X0298505Y0069176D02*
X0298742Y0069176D01*
X0293276Y0065631D02*
X0287875Y0065631D01*
X0287944Y0065808D02*
X0293169Y0065808D01*
X0293062Y0065985D02*
X0288013Y0065985D01*
X0288040Y0066055D02*
X0288602Y0067031D01*
X0289303Y0067912D01*
X0290128Y0068679D01*
X0291058Y0069314D01*
X0293563Y0065155D01*
X0293155Y0064892D01*
X0292802Y0064560D01*
X0292515Y0064170D01*
X0292303Y0063734D01*
X0292174Y0063267D01*
X0292131Y0062784D01*
X0287301Y0062784D01*
X0287382Y0063907D01*
X0287631Y0065006D01*
X0288040Y0066055D01*
X0288102Y0066163D02*
X0292956Y0066163D01*
X0292849Y0066340D02*
X0288204Y0066340D01*
X0288306Y0066517D02*
X0292742Y0066517D01*
X0292635Y0066695D02*
X0288408Y0066695D01*
X0288510Y0066872D02*
X0292529Y0066872D01*
X0292422Y0067049D02*
X0288616Y0067049D01*
X0288757Y0067226D02*
X0292315Y0067226D01*
X0292208Y0067404D02*
X0288898Y0067404D01*
X0289039Y0067581D02*
X0292102Y0067581D01*
X0291995Y0067758D02*
X0289180Y0067758D01*
X0289328Y0067935D02*
X0291888Y0067935D01*
X0291781Y0068113D02*
X0289518Y0068113D01*
X0289709Y0068290D02*
X0291675Y0068290D01*
X0291568Y0068467D02*
X0289900Y0068467D01*
X0290090Y0068644D02*
X0291461Y0068644D01*
X0291355Y0068822D02*
X0290336Y0068822D01*
X0290596Y0068999D02*
X0291248Y0068999D01*
X0291141Y0069176D02*
X0290856Y0069176D01*
X0293383Y0065454D02*
X0287806Y0065454D01*
X0287736Y0065276D02*
X0293489Y0065276D01*
X0293477Y0065099D02*
X0287667Y0065099D01*
X0287612Y0064922D02*
X0293201Y0064922D01*
X0292998Y0064745D02*
X0287572Y0064745D01*
X0287532Y0064567D02*
X0292810Y0064567D01*
X0292677Y0064390D02*
X0287492Y0064390D01*
X0287452Y0064213D02*
X0292547Y0064213D01*
X0292450Y0064036D02*
X0287411Y0064036D01*
X0287379Y0063858D02*
X0292364Y0063858D01*
X0292289Y0063681D02*
X0287366Y0063681D01*
X0287353Y0063504D02*
X0292239Y0063504D01*
X0292190Y0063327D02*
X0287340Y0063327D01*
X0287327Y0063149D02*
X0292163Y0063149D01*
X0292148Y0062972D02*
X0287314Y0062972D01*
X0287302Y0062795D02*
X0292132Y0062795D01*
X0293388Y0060515D02*
X0293819Y0060293D01*
X0294283Y0060153D01*
X0294765Y0060100D01*
X0295248Y0060134D01*
X0295717Y0060256D01*
X0296157Y0060460D01*
X0298572Y0056277D01*
X0297558Y0055786D01*
X0296483Y0055452D01*
X0295369Y0055282D01*
X0294243Y0055280D01*
X0293130Y0055447D01*
X0292053Y0055778D01*
X0291038Y0056266D01*
X0293388Y0060515D01*
X0293375Y0060491D02*
X0293435Y0060491D01*
X0293277Y0060313D02*
X0293780Y0060313D01*
X0293179Y0060136D02*
X0294437Y0060136D01*
X0295255Y0060136D02*
X0296344Y0060136D01*
X0296446Y0059959D02*
X0293081Y0059959D01*
X0292983Y0059782D02*
X0296548Y0059782D01*
X0296651Y0059604D02*
X0292885Y0059604D01*
X0292787Y0059427D02*
X0296753Y0059427D01*
X0296855Y0059250D02*
X0292689Y0059250D01*
X0292591Y0059073D02*
X0296958Y0059073D01*
X0297060Y0058895D02*
X0292493Y0058895D01*
X0292395Y0058718D02*
X0297162Y0058718D01*
X0297265Y0058541D02*
X0292297Y0058541D01*
X0292199Y0058364D02*
X0297367Y0058364D01*
X0297469Y0058186D02*
X0292101Y0058186D01*
X0292002Y0058009D02*
X0297572Y0058009D01*
X0297674Y0057832D02*
X0291904Y0057832D01*
X0291806Y0057655D02*
X0297776Y0057655D01*
X0297879Y0057477D02*
X0291708Y0057477D01*
X0291610Y0057300D02*
X0297981Y0057300D01*
X0298083Y0057123D02*
X0291512Y0057123D01*
X0291414Y0056946D02*
X0298186Y0056946D01*
X0298288Y0056768D02*
X0291316Y0056768D01*
X0291218Y0056591D02*
X0298390Y0056591D01*
X0298492Y0056414D02*
X0291120Y0056414D01*
X0291099Y0056237D02*
X0298489Y0056237D01*
X0298123Y0056059D02*
X0291467Y0056059D01*
X0291836Y0055882D02*
X0297757Y0055882D01*
X0297297Y0055705D02*
X0292290Y0055705D01*
X0292867Y0055528D02*
X0296727Y0055528D01*
X0295818Y0055350D02*
X0293775Y0055350D01*
X0295841Y0060313D02*
X0296241Y0060313D01*
M02*
